<?xml version="1.0" encoding="UTF-8" standalone="no"?><!DOCTYPE svg PUBLIC "-//W3C//DTD SVG 1.1//EN" "http://www.w3.org/Graphics/SVG/1.1/DTD/svg11.dtd"><svg width="100%" height="100%" viewBox="0 0 162 22" version="1.1" xmlns="http://www.w3.org/2000/svg" xmlns:xlink="http://www.w3.org/1999/xlink" xml:space="preserve" xmlns:serif="http://www.serif.com/" style="fill-rule:evenodd;clip-rule:evenodd;stroke-linejoin:round;stroke-miterlimit:2;"><path d="M9.053,14.003c-0.059,0.101 -0.168,0.164 -0.285,0.164c-0.084,-0 -0.164,-0.032 -0.225,-0.089c-0.059,-0.063 -0.091,-0.146 -0.09,-0.233c0,-0.086 -0,-0.127 -0,-0.352l-0,-4.028c-0,-0.547 -0.053,-1.11 -0.105,-1.657c-0.054,-0.528 -0.142,-1.051 -0.263,-1.568c-0.108,-0.48 -0.261,-0.95 -0.457,-1.402c-0.186,-0.412 -0.439,-0.79 -0.75,-1.118c-0.297,-0.32 -0.657,-0.576 -1.058,-0.75c-0.456,-0.189 -0.946,-0.281 -1.44,-0.27c-0.514,-0.006 -1.024,0.091 -1.5,0.285c-0.429,0.174 -0.821,0.429 -1.155,0.75c-0.323,0.315 -0.579,0.693 -0.75,1.11c-0.18,0.422 -0.272,0.877 -0.27,1.335c-0.003,0.389 0.071,0.774 0.218,1.133c0.135,0.332 0.334,0.635 0.585,0.892c0.496,0.519 1.186,0.81 1.905,0.803c0.254,0.003 0.507,-0.035 0.75,-0.113c0.204,-0.063 0.403,-0.146 0.592,-0.247c0.132,-0.072 0.257,-0.155 0.375,-0.248l0.143,-0.112c0.059,-0.06 0.141,-0.092 0.225,-0.09c0.081,-0.001 0.16,0.032 0.217,0.09c0.062,0.052 0.097,0.129 0.098,0.21c-0.002,0.083 -0.037,0.161 -0.098,0.217c-0.059,0.059 -0.122,0.114 -0.187,0.165c-0.147,0.121 -0.305,0.227 -0.473,0.315c-0.239,0.125 -0.491,0.226 -0.75,0.3c-0.296,0.093 -0.605,0.138 -0.915,0.135c-0.448,0.006 -0.893,-0.083 -1.305,-0.262c-0.402,-0.176 -0.764,-0.431 -1.065,-0.75c-0.321,-0.311 -0.576,-0.683 -0.75,-1.095c-0.183,-0.434 -0.274,-0.901 -0.27,-1.373c-0,-0.543 0.11,-1.082 0.323,-1.582c0.436,-0.994 1.244,-1.781 2.25,-2.19c0.539,-0.216 1.114,-0.325 1.695,-0.323c0.689,-0.021 1.374,0.126 1.995,0.428c0.527,0.272 0.986,0.659 1.342,1.132c0.368,0.494 0.647,1.047 0.825,1.635c0.199,0.632 0.342,1.279 0.428,1.935c0.086,0.672 0.139,1.348 0.157,2.025l0,3.315l5.618,-10.402c0.049,-0.103 0.156,-0.165 0.27,-0.158c0.088,-0.004 0.173,0.032 0.232,0.098c0.059,0.057 0.091,0.136 0.09,0.217c-0.001,0.082 0,0.135 -0.052,0.308c-0.053,0.172 -0.075,0.412 -0.12,0.705l-0.158,1.012c-0.06,0.39 -0.105,0.795 -0.157,1.238c-0.053,0.442 -0.083,0.9 -0.12,1.38c-0.038,0.48 -0.053,0.952 -0.053,1.425c-0.004,0.712 0.038,1.424 0.128,2.13c0.064,0.539 0.203,1.067 0.412,1.567c0.159,0.382 0.418,0.714 0.75,0.96c0.339,0.227 0.74,0.343 1.148,0.33c0.402,0 0.799,-0.089 1.162,-0.262c0.383,-0.193 0.733,-0.446 1.035,-0.75c0.336,-0.327 0.635,-0.689 0.893,-1.08c0.279,-0.43 0.53,-0.879 0.75,-1.343c0.22,-0.5 0.415,-1 0.585,-1.5c0.169,-0.504 0.312,-1.017 0.427,-1.537c0.113,-0.51 0.203,-1.005 0.263,-1.5c0.051,-0.441 0.079,-0.884 0.082,-1.328c0.006,-0.677 -0.077,-1.353 -0.247,-2.01c-0.136,-0.556 -0.406,-1.072 -0.788,-1.5c-0.06,-0.052 -0.093,-0.129 -0.09,-0.21c0.001,-0.085 0.036,-0.166 0.098,-0.225c0.061,-0.057 0.141,-0.089 0.225,-0.09c0.084,-0.004 0.167,0.029 0.225,0.09c0.216,0.224 0.4,0.477 0.547,0.75c0.162,0.298 0.29,0.612 0.383,0.938c0.101,0.351 0.174,0.71 0.217,1.072c0.046,0.386 0.068,0.774 0.068,1.163c-0.003,0.674 -0.06,1.346 -0.173,2.01c-0.122,0.738 -0.295,1.468 -0.517,2.182c-0.233,0.725 -0.516,1.431 -0.848,2.115c-0.308,0.649 -0.693,1.259 -1.147,1.815c-0.407,0.495 -0.894,0.918 -1.44,1.253c-0.513,0.314 -1.102,0.48 -1.703,0.48c-0.512,0.014 -1.018,-0.121 -1.455,-0.39c-0.409,-0.285 -0.735,-0.673 -0.945,-1.125c-0.255,-0.567 -0.427,-1.169 -0.51,-1.785c-0.108,-0.785 -0.158,-1.577 -0.15,-2.37c0,-0.36 0,-0.75 0.038,-1.125c0.037,-0.375 0.052,-0.75 0.09,-1.133c0.037,-0.382 0.075,-0.75 0.12,-1.065c0.045,-0.315 0.082,-0.645 0.12,-0.922l-5.265,10.05Z" style="fill:#575757;fill-rule:nonzero;"/><path d="M25.043,7.028c-0,0.411 -0.339,0.75 -0.75,0.75c-0.412,-0 -0.75,-0.339 -0.75,-0.75c-0.003,-0.1 0.015,-0.199 0.052,-0.293c0.076,-0.187 0.225,-0.336 0.413,-0.412c0.093,-0.037 0.192,-0.055 0.292,-0.053c0.103,-0.003 0.205,0.015 0.3,0.053c0.09,0.043 0.173,0.099 0.248,0.165c0.068,0.071 0.121,0.155 0.157,0.247c0.035,0.094 0.048,0.194 0.038,0.293Zm-1.358,4.905c0.002,-0.805 0.052,-1.609 0.15,-2.408c0.012,-0.077 0.049,-0.148 0.105,-0.202c0.061,-0.061 0.146,-0.094 0.233,-0.09c0.081,-0.002 0.159,0.034 0.21,0.097c0.053,0.061 0.082,0.138 0.082,0.218c0,0.08 0,0.135 0,0.307c0,0.173 0,0.368 -0.045,0.6c-0.045,0.233 -0.037,0.473 -0.052,0.75c-0.015,0.278 -0,0.503 -0,0.75c-0.007,0.241 0.023,0.482 0.09,0.713c0.045,0.156 0.121,0.302 0.225,0.427c0.08,0.09 0.18,0.16 0.292,0.203c0.098,0.029 0.199,0.044 0.3,0.045c0.175,-0.006 0.345,-0.063 0.488,-0.165c0.191,-0.136 0.364,-0.295 0.517,-0.473c0.196,-0.236 0.374,-0.487 0.533,-0.75c0.172,-0.285 0.352,-0.6 0.525,-0.945c0.027,-0.054 0.068,-0.101 0.12,-0.135c0.049,-0.03 0.106,-0.046 0.165,-0.045c0.086,0 0.169,0.039 0.225,0.105c0.055,0.059 0.084,0.138 0.082,0.218c0.012,0.047 0.012,0.096 0,0.142c-0.067,0.128 -0.15,0.285 -0.255,0.465c-0.105,0.18 -0.21,0.375 -0.337,0.578c-0.128,0.202 -0.27,0.39 -0.428,0.577c-0.147,0.189 -0.31,0.365 -0.487,0.525c-0.166,0.147 -0.35,0.27 -0.548,0.368c-0.178,0.094 -0.376,0.143 -0.577,0.142c-0.233,0.005 -0.462,-0.049 -0.668,-0.157c-0.189,-0.106 -0.353,-0.252 -0.48,-0.428c-0.139,-0.188 -0.238,-0.402 -0.292,-0.63c-0.094,-0.258 -0.152,-0.528 -0.173,-0.802Zm0.893,-4.92c-0.001,-0.077 -0.034,-0.15 -0.09,-0.203c-0.055,-0.057 -0.131,-0.09 -0.21,-0.09c-0.075,0 -0.147,0.033 -0.195,0.09c-0.057,0.053 -0.09,0.126 -0.09,0.203c-0.003,0.078 0.03,0.152 0.09,0.202c0.049,0.056 0.121,0.086 0.195,0.083c0.078,0.003 0.155,-0.027 0.21,-0.083c0.055,-0.046 0.088,-0.115 0.09,-0.187l-0,-0.015Z" style="fill:#575757;fill-rule:nonzero;"/><path d="M32.055,11.295l-0.225,0.458c-0.097,0.172 -0.202,0.36 -0.315,0.547c-0.122,0.197 -0.255,0.388 -0.397,0.57c-0.14,0.184 -0.298,0.352 -0.473,0.503c-0.168,0.14 -0.352,0.261 -0.547,0.36c-0.193,0.09 -0.403,0.136 -0.615,0.135c-0.316,0.006 -0.623,-0.103 -0.863,-0.308c-0.257,-0.228 -0.467,-0.506 -0.615,-0.817c-0.177,-0.364 -0.312,-0.746 -0.405,-1.14c-0.106,-0.432 -0.187,-0.871 -0.24,-1.313c-0.06,-0.442 -0.097,-0.877 -0.112,-1.297c-0.015,-0.42 -0,-0.788 -0,-1.118c-0,-0.465 -0,-0.952 0.045,-1.455c0.045,-0.502 0.082,-0.997 0.15,-1.5c0.062,-0.458 0.147,-0.914 0.255,-1.365c0.088,-0.387 0.211,-0.766 0.367,-1.132c0.118,-0.276 0.283,-0.53 0.488,-0.75c0.16,-0.18 0.389,-0.284 0.63,-0.285c0.176,-0.005 0.35,0.039 0.502,0.127c0.163,0.101 0.293,0.247 0.375,0.42c0.112,0.238 0.191,0.491 0.233,0.75c0.058,0.38 0.086,0.764 0.082,1.148c-0.003,0.582 -0.061,1.162 -0.172,1.732c-0.122,0.61 -0.282,1.211 -0.48,1.8c-0.203,0.608 -0.443,1.208 -0.75,1.815c-0.308,0.608 -0.57,1.185 -0.885,1.755c0.098,0.584 0.288,1.149 0.562,1.673c0.148,0.343 0.475,0.577 0.848,0.607c0.239,-0.006 0.469,-0.099 0.645,-0.262c0.215,-0.186 0.408,-0.394 0.577,-0.623c0.168,-0.24 0.321,-0.49 0.458,-0.75c0.127,-0.247 0.232,-0.45 0.3,-0.6c0.027,-0.054 0.068,-0.101 0.12,-0.135c0.05,-0.029 0.107,-0.045 0.165,-0.045c0.089,-0.001 0.174,0.038 0.232,0.105c0.058,0.061 0.09,0.142 0.09,0.225c0,0.057 -0.01,0.113 -0.03,0.165Zm-4.2,-3.375l0,1.035c0,0.33 0.023,0.645 0.068,0.945c0.24,-0.45 0.457,-0.937 0.675,-1.447c0.217,-0.51 0.397,-1.028 0.562,-1.553c0.157,-0.512 0.288,-1.033 0.39,-1.56c0.095,-0.494 0.142,-0.996 0.143,-1.5c0.023,-0.477 -0.03,-0.956 -0.158,-1.417c-0.105,-0.293 -0.247,-0.435 -0.427,-0.435c-0.18,-0 -0.233,0.082 -0.338,0.247c-0.13,0.207 -0.233,0.428 -0.307,0.66c-0.106,0.325 -0.194,0.656 -0.263,0.99c-0.075,0.383 -0.142,0.75 -0.195,1.23c-0.052,0.48 -0.097,0.893 -0.127,1.365c-0.03,0.473 -0.023,0.953 -0.023,1.44Z" style="fill:#575757;fill-rule:nonzero;"/><path d="M32.183,12.908c0.09,-0.195 0.195,-0.398 0.307,-0.623l0.375,-0.675c0.27,-0.467 0.57,-0.915 0.9,-1.342c0.136,-0.172 0.304,-0.314 0.495,-0.42c0.141,-0.084 0.301,-0.13 0.465,-0.135c0.257,-0.008 0.501,0.117 0.645,0.33c0.076,0.107 0.132,0.226 0.165,0.352c0.037,0.142 0.055,0.289 0.053,0.435c-0,0.128 -0,0.3 -0.038,0.518c-0.011,0.225 -0.011,0.45 0,0.675c-0.008,0.132 -0.008,0.265 0,0.397c0.011,0.121 0.036,0.239 0.075,0.353c0.032,0.098 0.089,0.186 0.165,0.255c0.08,0.067 0.181,0.101 0.285,0.097c0.14,-0.003 0.277,-0.041 0.398,-0.112c0.144,-0.086 0.277,-0.189 0.397,-0.308c0.132,-0.131 0.255,-0.271 0.368,-0.42c0.12,-0.15 0.225,-0.307 0.322,-0.457c0.098,-0.15 0.173,-0.3 0.248,-0.443l0.18,-0.36c0.043,-0.122 0.163,-0.202 0.292,-0.195c0.087,-0.002 0.171,0.037 0.225,0.105c0.052,0.061 0.081,0.138 0.083,0.218c0.007,0.042 0.007,0.085 -0,0.127c-0,0.045 -0.068,0.135 -0.128,0.27c-0.06,0.135 -0.157,0.308 -0.262,0.488c-0.105,0.18 -0.24,0.382 -0.383,0.585c-0.145,0.197 -0.306,0.382 -0.48,0.555c-0.171,0.164 -0.362,0.305 -0.57,0.42c-0.199,0.105 -0.42,0.162 -0.645,0.165c-0.219,0.008 -0.436,-0.05 -0.622,-0.165c-0.153,-0.107 -0.279,-0.248 -0.368,-0.413c-0.085,-0.177 -0.143,-0.367 -0.172,-0.562c-0.03,-0.201 -0.045,-0.404 -0.045,-0.608c-0.007,-0.107 -0.007,-0.215 -0,-0.322l-0,-0.9c0.011,-0.122 -0.012,-0.244 -0.068,-0.353c-0.036,-0.057 -0.097,-0.093 -0.165,-0.097c-0.118,0.013 -0.228,0.069 -0.307,0.157c-0.131,0.126 -0.251,0.261 -0.36,0.405c-0.128,0.173 -0.255,0.36 -0.383,0.57c-0.127,0.21 -0.247,0.42 -0.36,0.623c-0.112,0.202 -0.225,0.405 -0.322,0.592l-0.233,0.465c-0.079,0.185 -0.203,0.347 -0.36,0.473c-0.092,0.074 -0.205,0.118 -0.322,0.127c-0.16,0.005 -0.311,-0.075 -0.398,-0.21c-0.094,-0.147 -0.141,-0.32 -0.135,-0.495l0,-3.555c0,-0.96 0.015,-1.852 0.045,-2.677c0,-0.825 0.068,-1.575 0.128,-2.25c0.039,-0.576 0.127,-1.148 0.262,-1.71c0.084,-0.389 0.237,-0.759 0.45,-1.095c0.146,-0.237 0.405,-0.382 0.683,-0.383c0.213,-0.008 0.423,0.058 0.592,0.188c0.172,0.142 0.308,0.322 0.398,0.525c0.103,0.24 0.176,0.492 0.217,0.75c0.046,0.308 0.069,0.619 0.068,0.93c0,0.652 -0.06,1.302 -0.18,1.942c-0.122,0.63 -0.283,1.251 -0.48,1.86c-0.204,0.6 -0.439,1.188 -0.705,1.763c-0.27,0.57 -0.555,1.132 -0.848,1.672l0,1.868l0.053,0.03Zm-0,-3.098c0.232,-0.517 0.45,-1.02 0.637,-1.5c0.192,-0.478 0.357,-0.966 0.495,-1.462c0.142,-0.492 0.25,-0.993 0.323,-1.5c0.082,-0.516 0.122,-1.038 0.12,-1.56l-0,-0.428c-0.007,-0.201 -0.032,-0.402 -0.075,-0.6c-0.034,-0.183 -0.097,-0.361 -0.188,-0.525c-0.069,-0.139 -0.211,-0.229 -0.367,-0.232c-0.146,0.015 -0.27,0.111 -0.323,0.247c-0.106,0.215 -0.184,0.441 -0.232,0.675c-0.074,0.325 -0.129,0.653 -0.165,0.983c-0.045,0.375 -0.083,0.772 -0.113,1.192c0,0.42 -0.045,0.855 -0.06,1.298c-0.015,0.442 0,0.87 0,1.282l0,1.17l-0.052,0.96Z" style="fill:#575757;fill-rule:nonzero;"/><path d="M38.933,12.683c0.12,0.161 0.274,0.294 0.45,0.39c0.212,0.102 0.446,0.151 0.682,0.142c0.263,0.002 0.522,-0.065 0.75,-0.195c0.228,-0.14 0.433,-0.315 0.608,-0.517c0.192,-0.218 0.358,-0.457 0.495,-0.713c0.15,-0.262 0.277,-0.525 0.397,-0.787c0.027,-0.055 0.066,-0.103 0.113,-0.143c0.052,-0.029 0.112,-0.045 0.172,-0.045c0.089,0 0.174,0.039 0.233,0.105c0.052,0.061 0.081,0.138 0.082,0.218c0.005,0.022 0.005,0.045 0,0.067l0,0.068c-0.299,0.713 -0.729,1.365 -1.267,1.92c-0.411,0.411 -0.965,0.648 -1.545,0.66c-0.33,0.01 -0.658,-0.062 -0.953,-0.21c-0.26,-0.134 -0.488,-0.324 -0.667,-0.555c-0.173,-0.224 -0.303,-0.479 -0.383,-0.75c-0.082,-0.28 -0.125,-0.571 -0.127,-0.863c0.002,-0.253 0.037,-0.505 0.105,-0.75c0.063,-0.225 0.164,-0.438 0.3,-0.63c0.127,-0.17 0.288,-0.313 0.472,-0.42c0.184,-0.099 0.391,-0.15 0.6,-0.15c0.132,0.003 0.262,0.031 0.383,0.083c0.125,0.054 0.239,0.13 0.337,0.225c0.103,0.103 0.184,0.226 0.24,0.36c0.068,0.148 0.102,0.31 0.098,0.472c0.003,0.224 -0.038,0.445 -0.12,0.653c-0.081,0.201 -0.19,0.391 -0.323,0.562c-0.141,0.178 -0.305,0.337 -0.487,0.473c-0.205,0.129 -0.421,0.24 -0.645,0.33Zm-0.255,-0.548c0.171,-0.071 0.332,-0.164 0.48,-0.277c0.136,-0.105 0.257,-0.229 0.36,-0.368c0.1,-0.13 0.18,-0.274 0.24,-0.427c0.054,-0.144 0.082,-0.296 0.082,-0.45c0.008,-0.139 -0.038,-0.276 -0.127,-0.383c-0.076,-0.08 -0.182,-0.126 -0.293,-0.127c-0.14,-0.002 -0.277,0.043 -0.39,0.127c-0.108,0.09 -0.195,0.203 -0.255,0.33c-0.073,0.139 -0.123,0.289 -0.15,0.443c-0.03,0.163 -0.045,0.329 -0.045,0.495c-0.01,0.105 -0.01,0.21 0,0.315c0.06,0.12 0.09,0.232 0.113,0.337l-0.015,-0.015Z" style="fill:#575757;fill-rule:nonzero;"/><path d="M47.1,11.295l-0.225,0.458c-0.097,0.172 -0.202,0.36 -0.315,0.547c-0.112,0.188 -0.255,0.383 -0.397,0.57c-0.14,0.184 -0.298,0.352 -0.473,0.503c-0.168,0.14 -0.352,0.261 -0.547,0.36c-0.193,0.09 -0.403,0.136 -0.615,0.135c-0.316,0.006 -0.623,-0.103 -0.863,-0.308c-0.257,-0.228 -0.467,-0.506 -0.615,-0.817c-0.177,-0.364 -0.312,-0.746 -0.405,-1.14c-0.106,-0.432 -0.187,-0.871 -0.24,-1.313c-0.06,-0.442 -0.097,-0.877 -0.112,-1.297c-0.015,-0.42 -0,-0.788 -0,-1.118c-0,-0.465 -0,-0.952 0.045,-1.455c0.045,-0.502 0.082,-0.997 0.15,-1.5c0.062,-0.458 0.147,-0.914 0.255,-1.365c0.085,-0.388 0.208,-0.767 0.367,-1.132c0.118,-0.276 0.283,-0.53 0.488,-0.75c0.16,-0.18 0.389,-0.284 0.63,-0.285c0.176,-0.005 0.35,0.039 0.502,0.127c0.163,0.101 0.293,0.247 0.375,0.42c0.109,0.24 0.187,0.492 0.233,0.75c0.058,0.38 0.086,0.764 0.082,1.148c-0.003,0.582 -0.061,1.162 -0.172,1.732c-0.122,0.61 -0.282,1.211 -0.48,1.8c-0.203,0.608 -0.443,1.208 -0.75,1.815c-0.308,0.608 -0.57,1.185 -0.885,1.755c0.098,0.584 0.288,1.149 0.562,1.673c0.148,0.343 0.475,0.577 0.848,0.607c0.239,-0.006 0.469,-0.099 0.645,-0.262c0.214,-0.184 0.406,-0.393 0.57,-0.623c0.173,-0.236 0.326,-0.487 0.457,-0.75c0.135,-0.247 0.24,-0.45 0.308,-0.6c0.027,-0.054 0.068,-0.101 0.12,-0.135c0.05,-0.029 0.107,-0.045 0.165,-0.045c0.089,-0.001 0.174,0.038 0.232,0.105c0.058,0.061 0.09,0.142 0.09,0.225c0,0.057 -0.01,0.113 -0.03,0.165Zm-4.2,-3.375l0,1.035c0,0.33 0.023,0.645 0.068,0.945c0.232,-0.45 0.457,-0.937 0.675,-1.447c0.217,-0.51 0.397,-1.028 0.562,-1.553c0.157,-0.512 0.288,-1.033 0.39,-1.56c0.095,-0.494 0.142,-0.996 0.143,-1.5c0.023,-0.477 -0.03,-0.956 -0.158,-1.417c-0.105,-0.293 -0.247,-0.435 -0.427,-0.435c-0.18,-0 -0.233,0.082 -0.338,0.247c-0.133,0.205 -0.236,0.427 -0.307,0.66c-0.109,0.324 -0.197,0.655 -0.263,0.99c-0.075,0.383 -0.142,0.75 -0.195,1.23c-0.052,0.48 -0.097,0.893 -0.127,1.365c-0.03,0.473 -0.023,0.953 -0.023,1.44Z" style="fill:#575757;fill-rule:nonzero;"/><path d="M48.473,12.87c0.082,-0.165 0.187,-0.375 0.322,-0.622c0.135,-0.248 0.27,-0.503 0.413,-0.75c0.142,-0.248 0.277,-0.495 0.42,-0.713c0.103,-0.179 0.218,-0.352 0.345,-0.517c0.138,-0.172 0.309,-0.314 0.502,-0.42c0.149,-0.076 0.313,-0.117 0.48,-0.12c0.131,-0.003 0.26,0.028 0.375,0.09c0.103,0.062 0.19,0.147 0.255,0.247c0.068,0.112 0.119,0.234 0.15,0.36c0.034,0.146 0.051,0.294 0.053,0.443l-0,1.845l0.285,-0.563c0.112,-0.202 0.217,-0.405 0.322,-0.607l0.315,-0.563c0.085,-0.149 0.178,-0.294 0.278,-0.435c0.174,-0.266 0.404,-0.491 0.675,-0.66c0.17,-0.102 0.363,-0.161 0.562,-0.172c0.162,-0.005 0.322,0.031 0.465,0.105c0.118,0.066 0.218,0.158 0.293,0.27c0.069,0.113 0.12,0.238 0.15,0.367c0.023,0.127 0.035,0.255 0.037,0.383c-0.002,0.201 -0.014,0.401 -0.037,0.6c-0.034,0.249 -0.049,0.499 -0.045,0.75l-0,0.352c0.011,0.108 0.036,0.214 0.075,0.315c0.035,0.088 0.095,0.164 0.172,0.218c0.094,0.059 0.204,0.088 0.315,0.082c0.15,0 0.297,-0.038 0.428,-0.112c0.149,-0.079 0.286,-0.18 0.405,-0.3c0.133,-0.13 0.256,-0.27 0.367,-0.42c0.113,-0.158 0.218,-0.315 0.315,-0.465l0.248,-0.45c0.075,-0.143 0.135,-0.27 0.18,-0.368c0.022,-0.057 0.061,-0.107 0.112,-0.142c0.05,-0.036 0.111,-0.055 0.173,-0.053c0.087,-0.002 0.17,0.037 0.225,0.105c0.056,0.062 0.088,0.142 0.09,0.225c0.006,0.04 0.006,0.081 -0,0.12l-0.135,0.278c-0.081,0.168 -0.171,0.33 -0.27,0.487c-0.113,0.18 -0.24,0.375 -0.39,0.578c-0.149,0.197 -0.312,0.383 -0.488,0.555c-0.175,0.166 -0.371,0.308 -0.585,0.42c-0.201,0.107 -0.425,0.164 -0.652,0.165c-0.209,0.009 -0.416,-0.038 -0.6,-0.135c-0.15,-0.082 -0.276,-0.201 -0.368,-0.345c-0.095,-0.153 -0.159,-0.324 -0.187,-0.503c-0.037,-0.197 -0.055,-0.398 -0.053,-0.6c-0.001,-0.25 0.015,-0.501 0.045,-0.75c0,-0.232 0.038,-0.412 0.038,-0.54c0.006,-0.108 -0.006,-0.218 -0.038,-0.322c-0.015,-0.057 -0.047,-0.109 -0.09,-0.15c-0.029,-0.028 -0.065,-0.046 -0.105,-0.053l-0.075,0c-0.167,0.016 -0.32,0.097 -0.427,0.225c-0.172,0.183 -0.325,0.381 -0.458,0.593c-0.15,0.247 -0.315,0.525 -0.48,0.84l-0.495,0.952l-0.24,0.45c-0.054,0.098 -0.117,0.191 -0.187,0.278c-0.048,0.058 -0.107,0.107 -0.173,0.142c-0.057,0.024 -0.118,0.037 -0.18,0.038c-0.13,0.011 -0.258,-0.046 -0.337,-0.15c-0.08,-0.117 -0.12,-0.256 -0.113,-0.398l0,-2.565c0.006,-0.11 -0.02,-0.219 -0.075,-0.315c-0.043,-0.056 -0.109,-0.092 -0.18,-0.097c-0.072,0.004 -0.142,0.027 -0.202,0.067c-0.103,0.073 -0.195,0.162 -0.27,0.263c-0.075,0.097 -0.173,0.247 -0.293,0.442c-0.12,0.195 -0.247,0.405 -0.382,0.638c-0.135,0.232 -0.27,0.48 -0.398,0.75c-0.127,0.27 -0.247,0.465 -0.345,0.66c-0.077,0.186 -0.198,0.351 -0.352,0.48c-0.094,0.082 -0.213,0.129 -0.338,0.135c-0.139,0.01 -0.275,-0.046 -0.367,-0.15c-0.081,-0.114 -0.121,-0.251 -0.113,-0.39c0.008,-0.139 0,-0.12 0,-0.3l0,-1.53c0,-0.3 0,-0.585 0.038,-0.848c0.012,-0.127 0.012,-0.255 -0,-0.382c-0,-0.12 -0,-0.188 -0.068,-0.21c-0.067,-0.023 -0.135,0.112 -0.262,0.307c-0.199,0.327 -0.367,0.671 -0.503,1.028c-0.025,0.058 -0.066,0.108 -0.12,0.142c-0.055,0.029 -0.117,0.045 -0.18,0.045c-0.086,0.007 -0.171,-0.029 -0.225,-0.097c-0.056,-0.058 -0.086,-0.137 -0.082,-0.218c-0.007,-0.042 -0.007,-0.085 -0,-0.127c0.191,-0.471 0.443,-0.915 0.75,-1.32c0.15,-0.236 0.397,-0.393 0.675,-0.428c0.114,-0.003 0.226,0.028 0.322,0.09c0.085,0.058 0.154,0.135 0.203,0.225c0.053,0.099 0.091,0.205 0.112,0.315c0.011,0.115 0.011,0.231 0,0.345c0,0.495 0,0.953 -0.037,1.365c-0.038,0.413 0.037,0.78 0.015,1.2Z" style="fill:#575757;fill-rule:nonzero;"/><path d="M58.883,7.028c-0,0.411 -0.339,0.75 -0.75,0.75c-0.202,0.003 -0.397,-0.075 -0.54,-0.218c-0.147,-0.143 -0.229,-0.341 -0.225,-0.547c-0,-0.101 0.02,-0.2 0.06,-0.293c0.039,-0.092 0.095,-0.176 0.165,-0.247c0.07,-0.068 0.151,-0.123 0.24,-0.165c0.095,-0.036 0.197,-0.054 0.3,-0.053c0.102,-0.002 0.204,0.016 0.3,0.053c0.088,0.042 0.169,0.097 0.24,0.165c0.072,0.069 0.129,0.154 0.165,0.247c0.036,0.099 0.051,0.203 0.045,0.308Zm-1.358,4.905c-0.002,-0.805 0.048,-1.609 0.15,-2.408c0.009,-0.078 0.046,-0.15 0.105,-0.202c0.061,-0.061 0.146,-0.094 0.233,-0.09c0.081,-0.002 0.159,0.034 0.21,0.097c0.053,0.061 0.082,0.138 0.082,0.218c0,0.08 0,0.135 0,0.307c0,0.173 0,0.368 -0.052,0.6c-0.053,0.233 -0,0.473 -0.045,0.75c-0.045,0.278 -0,0.503 -0,0.75c-0.007,0.241 0.023,0.482 0.09,0.713c0.039,0.159 0.116,0.305 0.225,0.427c0.08,0.09 0.18,0.16 0.292,0.203c0.098,0.029 0.199,0.044 0.3,0.045c0.173,-0.006 0.34,-0.063 0.48,-0.165c0.194,-0.132 0.369,-0.291 0.518,-0.473c0.198,-0.234 0.376,-0.485 0.532,-0.75c0.18,-0.285 0.36,-0.6 0.533,-0.945c0.027,-0.052 0.065,-0.098 0.112,-0.135c0.053,-0.029 0.112,-0.045 0.173,-0.045c0.086,0 0.169,0.039 0.225,0.105c0.052,0.061 0.081,0.138 0.082,0.218c0.012,0.047 0.012,0.096 0,0.142c-0.067,0.128 -0.15,0.285 -0.255,0.465c-0.105,0.18 -0.217,0.375 -0.345,0.578c-0.127,0.202 -0.27,0.39 -0.42,0.577c-0.149,0.19 -0.315,0.365 -0.495,0.525c-0.163,0.146 -0.344,0.27 -0.54,0.368c-0.181,0.094 -0.381,0.143 -0.585,0.142c-0.23,0.005 -0.457,-0.049 -0.66,-0.157c-0.19,-0.105 -0.354,-0.251 -0.48,-0.428c-0.139,-0.188 -0.238,-0.402 -0.292,-0.63c-0.094,-0.258 -0.152,-0.528 -0.173,-0.802Zm0.885,-4.92c-0.001,-0.075 -0.03,-0.148 -0.082,-0.203c-0.055,-0.057 -0.131,-0.09 -0.21,-0.09c-0.077,0.001 -0.151,0.034 -0.203,0.09c-0.052,0.055 -0.081,0.128 -0.082,0.203c-0.002,0.076 0.028,0.149 0.082,0.202c0.053,0.055 0.127,0.085 0.203,0.083c0.002,0 0.005,0 0.007,0c0.157,0 0.285,-0.129 0.285,-0.285c0,0 0,0 0,-0Z" style="fill:#575757;fill-rule:nonzero;"/><path d="M62.985,12.863c0.09,-0.188 0.195,-0.39 0.308,-0.608c0.112,-0.217 0.247,-0.442 0.382,-0.675c0.135,-0.232 0.278,-0.45 0.42,-0.675c0.143,-0.225 0.308,-0.435 0.465,-0.637c0.136,-0.172 0.304,-0.314 0.495,-0.42c0.141,-0.083 0.301,-0.13 0.465,-0.135c0.256,-0.01 0.499,0.112 0.645,0.322c0.148,0.236 0.222,0.51 0.21,0.788l0,0.952c-0.007,0.113 -0.007,0.226 0,0.338c-0.008,0.13 -0.008,0.26 0,0.39c0.011,0.11 0.036,0.219 0.075,0.322c0.038,0.086 0.098,0.161 0.173,0.218c0.083,0.058 0.183,0.087 0.285,0.082c0.23,-0.007 0.45,-0.094 0.622,-0.247c0.207,-0.175 0.394,-0.374 0.555,-0.593c0.165,-0.218 0.313,-0.449 0.443,-0.69c0.127,-0.232 0.225,-0.427 0.285,-0.57c0.023,-0.059 0.065,-0.109 0.12,-0.142c0.05,-0.035 0.111,-0.054 0.172,-0.053c0.089,-0.001 0.175,0.038 0.233,0.105c0.051,0.064 0.08,0.143 0.082,0.225c0.007,0.04 0.007,0.081 0,0.12l-0.135,0.27c-0.181,0.375 -0.397,0.731 -0.645,1.065c-0.142,0.201 -0.302,0.386 -0.48,0.555c-0.171,0.165 -0.362,0.306 -0.57,0.42c-0.197,0.111 -0.419,0.171 -0.645,0.173c-0.215,0.009 -0.428,-0.043 -0.615,-0.15c-0.153,-0.094 -0.279,-0.226 -0.367,-0.383c-0.091,-0.165 -0.152,-0.345 -0.18,-0.532c-0.031,-0.194 -0.046,-0.389 -0.045,-0.585c-0.007,-0.095 -0.007,-0.19 -0,-0.285l-0,-0.33c-0,-0.113 -0,-0.24 0.037,-0.353c0.038,-0.112 0,-0.232 0,-0.337c0.012,-0.128 -0.017,-0.257 -0.082,-0.368c-0.035,-0.051 -0.089,-0.086 -0.15,-0.097c-0.119,0.013 -0.228,0.069 -0.308,0.157c-0.13,0.126 -0.251,0.261 -0.36,0.405c-0.127,0.173 -0.255,0.36 -0.382,0.57c-0.128,0.21 -0.255,0.42 -0.375,0.623l-0.315,0.592c-0.098,0.188 -0.18,0.345 -0.233,0.465c-0.072,0.183 -0.188,0.345 -0.337,0.473c-0.098,0.079 -0.22,0.124 -0.345,0.127c-0.145,0.005 -0.286,-0.049 -0.39,-0.15c-0.102,-0.112 -0.154,-0.261 -0.143,-0.412l0,-0.233c0,-0.112 0,-0.255 0.045,-0.412c0.045,-0.158 0,-0.33 0.045,-0.518c0.045,-0.187 0,-0.367 0.053,-0.547c0.052,-0.18 -0,-0.353 0.045,-0.51c0.045,-0.158 -0,-0.285 -0,-0.39l-0,-0.405c0,-0.082 -0.023,-0.163 -0.068,-0.233c-0.05,0 -0.14,0.105 -0.27,0.315c-0.194,0.325 -0.36,0.667 -0.495,1.02c-0.027,0.06 -0.072,0.109 -0.127,0.143c-0.053,0.03 -0.112,0.045 -0.173,0.045c-0.088,0.004 -0.174,-0.032 -0.232,-0.098c-0.053,-0.06 -0.083,-0.137 -0.083,-0.217c-0.009,-0.042 -0.009,-0.086 0,-0.128c0.178,-0.468 0.415,-0.912 0.705,-1.32c0.143,-0.236 0.386,-0.393 0.66,-0.427c0.117,-0.001 0.232,0.033 0.33,0.097c0.088,0.069 0.16,0.156 0.21,0.255c0.054,0.113 0.094,0.231 0.12,0.353c0.024,0.131 0.037,0.264 0.038,0.397l-0,0.465c-0,0.21 -0,0.443 -0.053,0.69l-0.067,0.75c-0.015,0.21 -0.038,0.398 -0.053,0.578Z" style="fill:#575757;fill-rule:nonzero;"/><path d="M75.255,11.28l-0.142,0.278c-0.081,0.168 -0.171,0.33 -0.27,0.487c-0.115,0.202 -0.241,0.397 -0.375,0.585c-0.151,0.196 -0.314,0.381 -0.488,0.555c-0.177,0.162 -0.373,0.301 -0.585,0.413c-0.201,0.107 -0.425,0.164 -0.652,0.165c-0.303,0.001 -0.595,-0.117 -0.81,-0.33c-0.222,-0.205 -0.387,-0.463 -0.48,-0.75c-0.172,0.296 -0.405,0.551 -0.683,0.75c-0.382,0.304 -0.903,0.371 -1.35,0.172c-0.165,-0.073 -0.311,-0.183 -0.427,-0.322c-0.123,-0.139 -0.215,-0.303 -0.27,-0.48c-0.069,-0.195 -0.102,-0.401 -0.098,-0.608c-0.007,-0.393 0.067,-0.783 0.218,-1.147c0.133,-0.314 0.327,-0.6 0.57,-0.84c0.215,-0.214 0.47,-0.384 0.75,-0.503c0.254,-0.106 0.527,-0.162 0.802,-0.165c0.163,-0.001 0.324,0.022 0.48,0.068c0.128,0.046 0.253,0.098 0.375,0.157c0.083,0.045 0.161,0.098 0.233,0.158l0.097,0.075c0.057,0.064 0.089,0.147 0.09,0.232c0.001,0.082 -0.031,0.161 -0.09,0.218c-0.054,0.064 -0.134,0.099 -0.217,0.097c-0.086,0.001 -0.17,-0.031 -0.233,-0.09c-0.063,-0.058 0,0 -0.075,-0.067c-0.048,-0.036 -0.101,-0.066 -0.157,-0.09c-0.076,-0.041 -0.156,-0.072 -0.24,-0.09c-0.103,-0.029 -0.209,-0.042 -0.315,-0.038c-0.413,0.004 -0.807,0.178 -1.088,0.48c-0.174,0.18 -0.311,0.391 -0.405,0.623c-0.117,0.28 -0.174,0.582 -0.165,0.885c-0.011,0.107 -0.011,0.215 0,0.322c0.021,0.107 0.062,0.209 0.12,0.3c0.056,0.091 0.133,0.166 0.225,0.218c0.109,0.056 0.23,0.084 0.353,0.082c0.123,-0.008 0.243,-0.041 0.352,-0.097c0.144,-0.08 0.271,-0.187 0.375,-0.315c0.13,-0.16 0.239,-0.336 0.323,-0.525c0.11,-0.237 0.18,-0.49 0.21,-0.75c0.009,-0.076 0.046,-0.146 0.105,-0.195c0.062,-0.053 0.142,-0.083 0.225,-0.083c0.077,0.001 0.15,0.034 0.202,0.09c0.055,0.058 0.089,0.132 0.098,0.21l-0,0.45c0.023,0.196 0.06,0.389 0.112,0.578c0.057,0.181 0.148,0.349 0.27,0.495c0.119,0.14 0.297,0.217 0.48,0.21c0.143,-0.002 0.282,-0.041 0.405,-0.113c0.14,-0.077 0.268,-0.173 0.383,-0.285c0.131,-0.127 0.252,-0.265 0.36,-0.412c0.12,-0.158 0.217,-0.308 0.315,-0.465c0.097,-0.158 0.18,-0.308 0.255,-0.458c0.075,-0.15 0.135,-0.27 0.18,-0.375c0.025,-0.06 0.07,-0.11 0.127,-0.142c0.048,-0.035 0.106,-0.054 0.165,-0.053c0.089,-0.001 0.175,0.038 0.233,0.105c0.056,0.062 0.088,0.142 0.09,0.225c0.017,0.033 0.03,0.069 0.037,0.105Z" style="fill:#575757;fill-rule:nonzero;"/><path d="M76.433,2.183c0.049,0.817 -0.258,1.616 -0.84,2.19c-0.062,0.056 -0.142,0.088 -0.225,0.09c-0.003,0 -0.005,0 -0.008,0c-0.169,0 -0.307,-0.139 -0.307,-0.307c-0,-0.003 -0,-0.005 -0,-0.008c0,-0.084 0.032,-0.164 0.09,-0.225c0.454,-0.452 0.694,-1.077 0.66,-1.718c-0.007,-0.085 0.023,-0.17 0.082,-0.232c0.059,-0.062 0.14,-0.097 0.225,-0.098c0.082,-0 0.16,0.032 0.218,0.09c0.064,0.054 0.103,0.134 0.105,0.218Z" style="fill:#575757;fill-rule:nonzero;"/><path d="M78.345,10.515c-0.034,0.103 -0.074,0.203 -0.12,0.3c-0.047,0.122 -0.102,0.239 -0.165,0.353c-0.036,0.083 -0.087,0.16 -0.15,0.225c-0.057,0.052 -0.133,0.079 -0.21,0.075c-0.082,0.002 -0.163,-0.028 -0.225,-0.083c-0.053,-0.057 -0.082,-0.132 -0.082,-0.21c-0.005,-0.022 -0.005,-0.045 -0,-0.067l0.045,-0.098c0.122,-0.243 0.23,-0.493 0.322,-0.75c0.071,-0.216 0.129,-0.436 0.173,-0.66c-0.036,-0.108 -0.066,-0.218 -0.09,-0.33c-0.008,-0.092 -0.008,-0.185 -0,-0.277c-0.007,-0.156 0.034,-0.311 0.12,-0.443c0.068,-0.111 0.191,-0.177 0.322,-0.172c0.125,-0.005 0.243,0.059 0.308,0.165c0.076,0.124 0.115,0.267 0.112,0.412c0.008,0.09 0.008,0.181 0,0.27c0,0.09 0,0.203 -0.067,0.33c0.112,0.29 0.239,0.573 0.382,0.848c0.135,0.247 0.248,0.472 0.345,0.675c0.096,0.186 0.179,0.379 0.248,0.577c0.065,0.173 0.098,0.356 0.097,0.54c0.002,0.231 -0.046,0.459 -0.142,0.668c-0.101,0.221 -0.262,0.408 -0.465,0.54l0.165,-0c0.306,0.002 0.607,-0.073 0.877,-0.218c0.279,-0.148 0.532,-0.34 0.75,-0.57c0.218,-0.229 0.411,-0.48 0.578,-0.75c0.162,-0.27 0.307,-0.551 0.435,-0.84c0.052,-0.127 0.135,-0.195 0.232,-0.195c0.088,-0.003 0.172,0.036 0.225,0.105c0.052,0.061 0.081,0.138 0.083,0.218c0.007,0.042 0.007,0.085 -0,0.127c-0.06,0.15 -0.143,0.323 -0.24,0.51c-0.103,0.209 -0.22,0.41 -0.353,0.6c-0.141,0.213 -0.299,0.413 -0.472,0.6c-0.181,0.197 -0.382,0.373 -0.6,0.525c-0.232,0.157 -0.484,0.281 -0.75,0.368c-0.623,0.199 -1.296,0.177 -1.905,-0.06c-0.311,-0.136 -0.573,-0.363 -0.75,-0.653c-0.031,-0.046 -0.047,-0.101 -0.045,-0.157c-0,-0.003 -0,-0.005 -0,-0.008c-0,-0.168 0.138,-0.307 0.307,-0.307c0.003,-0 0.005,-0 0.008,-0c0.084,-0.002 0.165,0.03 0.225,0.09l0.06,0.052l0.12,0.083c0.054,0.033 0.112,0.061 0.172,0.082c0.065,0.012 0.131,0.012 0.195,0c0.118,0.007 0.236,-0.021 0.338,-0.082c0.09,-0.049 0.167,-0.118 0.225,-0.203c0.053,-0.08 0.094,-0.169 0.12,-0.262c0.021,-0.078 0.034,-0.159 0.037,-0.24c-0.001,-0.143 -0.024,-0.284 -0.067,-0.42c-0.046,-0.145 -0.104,-0.285 -0.173,-0.42l-0.225,-0.428c-0.187,-0.12 -0.262,-0.277 -0.33,-0.435Z" style="fill:#575757;fill-rule:nonzero;"/><path d="M101.558,13.575c0.024,0.044 0.037,0.093 0.037,0.143c0.001,0.082 -0.031,0.16 -0.09,0.217c-0.061,0.062 -0.146,0.095 -0.232,0.09c-0.052,0.016 -0.107,0.016 -0.158,0c-0.052,-0.026 -0.092,-0.072 -0.112,-0.127c-0.123,-0.239 -0.218,-0.49 -0.285,-0.75c-0.083,-0.315 -0.15,-0.66 -0.21,-1.043c-0.06,-0.382 -0.105,-0.787 -0.143,-1.222c-0.037,-0.435 -0.067,-0.9 -0.09,-1.365l-1.41,0.18l-1.792,0.24c-0.473,0.067 -0.945,0.12 -1.433,0.172c-1.062,1.215 -2.332,2.231 -3.75,3c-1.228,0.648 -2.594,0.993 -3.982,1.005c-0.505,0.007 -1.009,-0.048 -1.5,-0.165c-0.372,-0.095 -0.733,-0.226 -1.08,-0.39c-0.226,-0.109 -0.44,-0.242 -0.638,-0.397c-0.08,-0.062 -0.155,-0.13 -0.225,-0.203c-0.061,-0.055 -0.094,-0.135 -0.09,-0.217c-0.003,-0.086 0.033,-0.169 0.098,-0.225c0.056,-0.06 0.135,-0.093 0.217,-0.09c0.088,-0.003 0.173,0.032 0.233,0.097l0.202,0.173c0.169,0.131 0.353,0.242 0.548,0.33c0.299,0.137 0.61,0.245 0.93,0.322c0.438,0.1 0.886,0.148 1.335,0.143c0.682,0.002 1.362,-0.094 2.017,-0.285c0.632,-0.193 1.245,-0.444 1.83,-0.75c0.562,-0.303 1.096,-0.655 1.598,-1.05c0.473,-0.371 0.924,-0.769 1.35,-1.193c-0.398,0.038 -0.795,0.06 -1.185,0.075c-0.39,0.015 -0.75,0 -1.155,0c-0.717,0.001 -1.434,-0.041 -2.145,-0.127c-0.623,-0.085 -1.232,-0.247 -1.815,-0.48c-0.465,-0.168 -0.886,-0.44 -1.23,-0.795c-0.306,-0.338 -0.47,-0.782 -0.458,-1.238c0.001,-0.229 0.05,-0.457 0.143,-0.667c0.085,-0.215 0.196,-0.419 0.33,-0.608c0.115,-0.166 0.251,-0.317 0.405,-0.45c0.097,-0.095 0.224,-0.153 0.36,-0.165c0.08,-0.001 0.158,0.029 0.217,0.083c0.068,0.054 0.104,0.139 0.098,0.225c0.01,0.049 0.01,0.101 -0,0.15c-0.025,0.046 -0.061,0.085 -0.105,0.112l-0.143,0.113c-0.098,0.082 -0.186,0.175 -0.262,0.277c-0.106,0.123 -0.194,0.259 -0.263,0.405c-0.08,0.161 -0.121,0.338 -0.12,0.518c-0.001,0.314 0.117,0.617 0.33,0.847c0.274,0.272 0.604,0.479 0.968,0.608c0.503,0.187 1.027,0.313 1.56,0.375c0.696,0.089 1.398,0.132 2.1,0.127c0.455,0 0.935,-0.015 1.44,-0.045c0.502,0 1.035,-0.067 1.59,-0.12c0.27,-0.3 0.51,-0.577 0.712,-0.84c0.203,-0.262 0.383,-0.502 0.533,-0.705l0.75,-1.095c0.27,-0.382 0.525,-0.75 0.787,-1.17c0.263,-0.42 0.518,-0.795 0.75,-1.185l0.698,-1.095l0.592,-0.937l0.428,-0.705c0.029,-0.144 0.08,-0.283 0.15,-0.413c0.06,-0.121 0.187,-0.195 0.322,-0.187c0.199,0.008 0.36,0.169 0.368,0.367c-0.005,0.09 -0.037,0.176 -0.09,0.248c-0.048,0.081 -0.1,0.159 -0.158,0.232c0,0.105 -0.045,0.33 -0.082,0.675c-0.038,0.345 -0.068,0.75 -0.105,1.275c-0.038,0.525 -0.068,1.05 -0.09,1.65c-0.023,0.6 -0,1.208 -0,1.823l-0,1.365c0.84,-0.113 1.447,-0.18 1.837,-0.225c0.39,-0.045 0.593,-0.06 0.615,-0.06c0.077,0.004 0.151,0.033 0.21,0.082c0.067,0.059 0.105,0.144 0.105,0.233c0.004,0.078 -0.026,0.155 -0.082,0.21c-0.055,0.055 -0.126,0.092 -0.203,0.105l-0.352,-0l-0.495,0.06l-0.69,0.082l-0.923,0.113c0,0.457 0.045,0.9 0.083,1.32c0.037,0.42 0.082,0.817 0.135,1.177c0.044,0.331 0.107,0.659 0.187,0.983c0.032,0.258 0.09,0.511 0.173,0.757Zm-4.568,-4.327l1.8,-0.24l1.463,-0.188l-0,-3.75c-0,-0.75 0.067,-1.342 0.12,-1.875l-0.69,1.238c-0.27,0.427 -0.555,0.862 -0.84,1.305c-0.285,0.442 -0.585,0.885 -0.885,1.32c-0.3,0.435 -0.578,0.847 -0.848,1.23c-0.135,0.187 -0.27,0.375 -0.412,0.555c-0.143,0.18 -0.278,0.352 -0.42,0.525l0.367,-0l0.345,-0.12Z" style="fill:#575757;fill-rule:nonzero;"/><path d="M105.188,10.17c-0.021,0.142 -0.051,0.283 -0.09,0.42c-0,0.135 -0.06,0.248 -0.09,0.345c-0.03,0.098 -0.06,0.18 -0.083,0.24c-0.011,0.037 -0.026,0.072 -0.045,0.105c-0.043,0.122 -0.164,0.199 -0.292,0.188c-0.08,-0.003 -0.156,-0.032 -0.218,-0.083c-0.065,-0.056 -0.1,-0.139 -0.097,-0.225l-0,-0.075c-0,-0.015 -0,-0.052 0.052,-0.105c0.053,-0.052 0.045,-0.135 0.083,-0.247c0.037,-0.113 0.075,-0.3 0.127,-0.548l-0.3,0c-0.095,-0.004 -0.189,-0.025 -0.277,-0.06c-0.087,-0.029 -0.163,-0.084 -0.218,-0.157c-0.058,-0.089 -0.087,-0.194 -0.082,-0.3c0.008,-0.133 0.036,-0.265 0.082,-0.39c0.054,-0.167 0.125,-0.327 0.21,-0.48c0.084,-0.148 0.188,-0.284 0.308,-0.405c0.083,-0.098 0.201,-0.16 0.33,-0.173c0.121,-0.004 0.238,0.049 0.315,0.143c0.088,0.103 0.154,0.223 0.195,0.352c0.045,0.139 0.076,0.283 0.09,0.428c0.009,0.132 0.009,0.265 -0,0.397l0.547,0c0.268,-0.025 0.535,0.05 0.75,0.21c0.187,0.175 0.282,0.428 0.255,0.683c0.007,0.135 0.007,0.27 0,0.405c0,0.142 0,0.285 -0.06,0.435c-0.06,0.15 -0.045,0.292 -0.06,0.435c-0.007,0.145 -0.007,0.29 0,0.435c-0.008,0.169 0.021,0.338 0.083,0.495c0.044,0.12 0.116,0.228 0.21,0.315c0.077,0.074 0.169,0.13 0.27,0.165c0.082,0.028 0.168,0.043 0.255,0.045c0.246,-0.002 0.486,-0.083 0.682,-0.233c0.219,-0.164 0.415,-0.355 0.585,-0.57c0.18,-0.218 0.34,-0.451 0.48,-0.697c0.15,-0.248 0.263,-0.465 0.36,-0.645c0.028,-0.05 0.07,-0.092 0.12,-0.12c0.047,-0.031 0.102,-0.046 0.158,-0.045c0.002,-0 0.005,-0 0.007,-0c0.169,-0 0.308,0.139 0.308,0.307c-0,0.003 -0,0.005 -0,0.008c0.011,0.049 0.011,0.101 -0,0.15c-0.128,0.225 -0.278,0.487 -0.45,0.75c-0.169,0.288 -0.365,0.559 -0.585,0.81c-0.215,0.251 -0.468,0.466 -0.75,0.637c-0.266,0.174 -0.576,0.265 -0.893,0.263c-0.195,0.001 -0.389,-0.037 -0.57,-0.113c-0.177,-0.075 -0.335,-0.188 -0.465,-0.33c-0.135,-0.154 -0.242,-0.332 -0.315,-0.525c-0.082,-0.241 -0.12,-0.495 -0.112,-0.75c-0.003,-0.279 0.025,-0.558 0.082,-0.832c0.052,-0.262 0.08,-0.528 0.083,-0.795c0.007,-0.087 -0.02,-0.173 -0.075,-0.24c-0.045,-0.053 -0.15,-0.075 -0.315,-0.075l-0.548,-0l-0.037,0.052Zm-0.563,-0.622c0.003,-0.052 0.003,-0.105 0,-0.158c0.004,-0.062 0.004,-0.125 0,-0.187c-0.007,-0.054 -0.02,-0.106 -0.037,-0.158c-0,-0.045 -0,-0.067 -0.045,-0.067c-0.045,-0 -0,-0 -0.06,0.06l-0.083,0.157c-0.031,0.061 -0.056,0.123 -0.075,0.188l-0.052,0.165l0.352,-0Z" style="fill:#575757;fill-rule:nonzero;"/><path d="M116.31,5.22c0.004,0.081 -0.029,0.158 -0.09,0.21c-0.063,0.054 -0.142,0.083 -0.225,0.083l-4.26,-0l0,0.09c0.007,0.361 -0.011,0.722 -0.052,1.08c-0.045,0.382 -0.12,0.75 -0.203,1.155c-0.082,0.405 -0.187,0.75 -0.292,1.117c-0.105,0.368 -0.225,0.698 -0.338,1.005c-0.097,0.274 -0.21,0.542 -0.337,0.803c-0.086,0.18 -0.189,0.351 -0.308,0.51c0.07,0.256 0.158,0.506 0.263,0.75c0.089,0.205 0.202,0.399 0.337,0.577c0.114,0.155 0.254,0.29 0.413,0.398c0.138,0.091 0.299,0.14 0.465,0.142c0.218,-0.009 0.426,-0.097 0.585,-0.247c0.202,-0.176 0.383,-0.375 0.54,-0.593c0.16,-0.22 0.305,-0.45 0.435,-0.69c0.104,-0.177 0.194,-0.363 0.27,-0.555c0.042,-0.123 0.161,-0.206 0.292,-0.202c0.089,-0.001 0.175,0.037 0.233,0.105c0.057,0.058 0.089,0.136 0.09,0.217c0.01,0.037 0.01,0.076 -0,0.113c-0.035,0.092 -0.075,0.183 -0.12,0.27c-0.072,0.168 -0.155,0.33 -0.248,0.487c-0.105,0.19 -0.225,0.385 -0.36,0.585c-0.137,0.2 -0.292,0.386 -0.465,0.555c-0.163,0.164 -0.347,0.305 -0.547,0.42c-0.189,0.112 -0.404,0.172 -0.623,0.173c-0.382,0.001 -0.752,-0.135 -1.042,-0.383c-0.328,-0.29 -0.585,-0.652 -0.75,-1.057c-0.237,-0.513 -0.404,-1.055 -0.495,-1.613c-0.116,-0.671 -0.171,-1.351 -0.165,-2.032l-0,-1.44c-0,-0.278 0.045,-0.563 0.075,-0.855c0.03,-0.293 0.082,-0.585 0.135,-0.863l-3,0c-0.083,0.002 -0.163,-0.027 -0.225,-0.082c-0.066,-0.05 -0.102,-0.128 -0.098,-0.21c-0.004,-0.084 0.032,-0.165 0.098,-0.218c0.063,-0.052 0.143,-0.078 0.225,-0.075l3.15,0c0.054,-0.189 0.122,-0.374 0.202,-0.555c0.065,-0.155 0.151,-0.302 0.255,-0.435c0.089,-0.118 0.201,-0.218 0.33,-0.292c0.121,-0.069 0.258,-0.105 0.398,-0.105c0.13,-0.002 0.258,0.035 0.367,0.105c0.11,0.075 0.2,0.175 0.263,0.292c0.079,0.136 0.137,0.283 0.172,0.435c0.047,0.183 0.079,0.368 0.098,0.555l4.29,0c0.081,-0.003 0.161,0.024 0.225,0.075c0.036,0.059 0.049,0.128 0.037,0.195Zm-6.315,5.25c0.165,-0.367 0.315,-0.75 0.458,-1.2c0.142,-0.45 0.255,-0.855 0.352,-1.29c0.098,-0.435 0.173,-0.87 0.225,-1.29c0.049,-0.383 0.074,-0.768 0.075,-1.155l-0.99,0c-0.086,0.427 -0.148,0.857 -0.187,1.29c-0.045,0.5 -0.068,1.123 -0.068,1.868l0,1.027c0.032,0.24 0.077,0.478 0.135,0.713l0,0.037Zm0.75,-6.277c-0.052,-0 -0.127,0.052 -0.217,0.165c-0.134,0.176 -0.231,0.378 -0.285,0.592l0.802,0c-0.018,-0.189 -0.058,-0.375 -0.12,-0.555c-0.03,-0.15 -0.08,-0.225 -0.15,-0.225l-0.03,0.023Z" style="fill:#575757;fill-rule:nonzero;"/><path d="M131.318,5.558c-0.001,0.084 -0.033,0.164 -0.09,0.225c-0.057,0.065 -0.14,0.101 -0.225,0.097c-0.08,0 -0.158,-0.029 -0.218,-0.082c-0.063,-0.058 -0.101,-0.139 -0.105,-0.225c-0.02,-0.107 -0.032,-0.214 -0.037,-0.323c-0.033,-0.238 -0.09,-0.471 -0.173,-0.697c-0.107,-0.312 -0.248,-0.611 -0.42,-0.893c-0.21,-0.335 -0.476,-0.632 -0.787,-0.877c-0.381,-0.291 -0.806,-0.516 -1.26,-0.668c-0.598,-0.193 -1.225,-0.284 -1.853,-0.27c-0.658,0.003 -1.313,0.101 -1.942,0.293c-0.656,0.192 -1.286,0.464 -1.875,0.81c-0.606,0.353 -1.169,0.773 -1.68,1.252c-0.518,0.474 -0.974,1.01 -1.358,1.598c-0.379,0.579 -0.684,1.204 -0.907,1.86c-0.218,0.658 -0.33,1.347 -0.33,2.04c-0.013,0.554 0.076,1.106 0.262,1.627c0.16,0.422 0.417,0.799 0.75,1.103c0.31,0.288 0.682,0.501 1.088,0.622c0.434,0.136 0.887,0.202 1.342,0.195c0.8,0.007 1.594,-0.138 2.34,-0.427c0.726,-0.289 1.406,-0.684 2.018,-1.17c0.628,-0.501 1.195,-1.075 1.687,-1.71c0.511,-0.649 0.967,-1.339 1.365,-2.063c0.021,-0.527 0.102,-1.05 0.24,-1.56c0.11,-0.36 0.283,-0.54 0.518,-0.54c0.126,-0.001 0.246,0.057 0.322,0.158c0.092,0.117 0.137,0.264 0.128,0.412c-0.01,0.242 -0.058,0.48 -0.143,0.705c-0.117,0.342 -0.262,0.673 -0.435,0.99l0,0.848c0,0.442 0,0.922 0.053,1.447c0.052,0.525 0.097,1.088 0.172,1.68c0.233,-0.12 0.42,-0.202 0.548,-0.255l0.292,-0.112l0.158,-0c0.082,-0.002 0.163,0.027 0.225,0.082c0.063,0.061 0.098,0.145 0.097,0.233c-0.001,0.134 -0.089,0.253 -0.217,0.292l-0.293,0.113c-0.18,0.075 -0.42,0.18 -0.75,0.33c0,0.307 0.053,0.607 0.068,0.915c0.015,0.307 -0,0.622 -0,0.937c0.003,0.709 -0.052,1.416 -0.165,2.115c-0.087,0.613 -0.264,1.21 -0.525,1.77c-0.218,0.477 -0.551,0.892 -0.968,1.208c-0.435,0.314 -0.964,0.473 -1.5,0.45c-0.274,0.002 -0.547,-0.049 -0.802,-0.15c-0.238,-0.097 -0.455,-0.24 -0.638,-0.42c-0.184,-0.183 -0.328,-0.402 -0.42,-0.645c-0.105,-0.26 -0.156,-0.538 -0.15,-0.818c-0.001,-0.421 0.07,-0.839 0.21,-1.237c0.147,-0.414 0.338,-0.812 0.57,-1.185c0.24,-0.384 0.513,-0.745 0.818,-1.08c0.3,-0.327 0.618,-0.637 0.952,-0.93c0.303,-0.271 0.624,-0.522 0.96,-0.75c0.279,-0.196 0.569,-0.374 0.87,-0.533c-0.075,-0.555 -0.135,-1.102 -0.18,-1.642c-0.045,-0.54 -0.075,-1.065 -0.082,-1.575c-0.46,0.741 -0.998,1.43 -1.605,2.055c-0.554,0.568 -1.171,1.071 -1.838,1.5c-0.61,0.392 -1.271,0.697 -1.965,0.907c-0.65,0.204 -1.328,0.308 -2.01,0.308c-0.559,0.008 -1.115,-0.083 -1.642,-0.27c-0.477,-0.17 -0.91,-0.445 -1.268,-0.803c-0.374,-0.38 -0.658,-0.838 -0.832,-1.342c-0.199,-0.576 -0.295,-1.183 -0.285,-1.793c0,-0.718 0.114,-1.432 0.337,-2.115c0.225,-0.701 0.538,-1.371 0.93,-1.995c0.404,-0.632 0.88,-1.216 1.418,-1.74c0.538,-0.528 1.138,-0.991 1.785,-1.38c0.643,-0.386 1.33,-0.693 2.047,-0.915c0.715,-0.217 1.458,-0.329 2.205,-0.33c0.634,-0.011 1.266,0.072 1.875,0.248c0.481,0.142 0.939,0.354 1.358,0.63c0.343,0.23 0.649,0.511 0.907,0.832c0.208,0.266 0.391,0.549 0.548,0.848c0.107,0.214 0.195,0.438 0.262,0.667c0.06,0.185 0.108,0.373 0.143,0.563c0.026,0.129 0.046,0.259 0.06,0.39c0.037,0.105 0.045,0.157 0.045,0.165Zm-2.123,7.462c-0.623,0.36 -1.207,0.785 -1.74,1.268c-0.288,0.257 -0.556,0.535 -0.802,0.832c-0.249,0.288 -0.473,0.597 -0.668,0.923c-0.185,0.31 -0.336,0.64 -0.45,0.982c-0.103,0.331 -0.156,0.675 -0.157,1.02c-0.005,0.197 0.028,0.393 0.097,0.578c0.064,0.163 0.161,0.312 0.285,0.435c0.126,0.121 0.274,0.218 0.435,0.285c0.177,0.067 0.366,0.1 0.555,0.097c0.808,-0.014 1.534,-0.507 1.845,-1.252c0.507,-1.153 0.736,-2.41 0.668,-3.668l-0,-0.75c-0,-0.27 -0.045,-0.487 -0.068,-0.75Z" style="fill:#575757;fill-rule:nonzero;"/><path d="M138.458,11.28l-0.143,0.278c-0.08,0.168 -0.171,0.33 -0.27,0.487c-0.115,0.202 -0.24,0.397 -0.375,0.585c-0.148,0.198 -0.311,0.383 -0.487,0.555c-0.177,0.162 -0.374,0.301 -0.585,0.413c-0.201,0.107 -0.425,0.164 -0.653,0.165c-0.303,0.007 -0.597,-0.106 -0.817,-0.315c-0.222,-0.205 -0.387,-0.463 -0.48,-0.75c-0.172,0.296 -0.405,0.551 -0.683,0.75c-0.382,0.304 -0.903,0.371 -1.35,0.172c-0.165,-0.073 -0.311,-0.183 -0.427,-0.322c-0.123,-0.139 -0.215,-0.303 -0.27,-0.48c-0.069,-0.195 -0.102,-0.401 -0.098,-0.608c-0.007,-0.393 0.067,-0.783 0.218,-1.147c0.133,-0.314 0.327,-0.6 0.57,-0.84c0.217,-0.212 0.471,-0.382 0.75,-0.503c0.254,-0.106 0.527,-0.162 0.802,-0.165c0.163,-0.001 0.324,0.022 0.48,0.068c0.128,0.046 0.253,0.098 0.375,0.157c0.083,0.045 0.161,0.098 0.233,0.158l0.097,0.075c0.057,0.064 0.089,0.147 0.09,0.232c0.001,0.082 -0.031,0.161 -0.09,0.218c-0.054,0.064 -0.134,0.099 -0.217,0.097c-0.084,0.003 -0.166,-0.03 -0.225,-0.09l-0.083,-0.067c-0.048,-0.036 -0.101,-0.066 -0.157,-0.09c-0.076,-0.041 -0.156,-0.072 -0.24,-0.09c-0.103,-0.029 -0.209,-0.042 -0.315,-0.038c-0.413,0.004 -0.807,0.178 -1.088,0.48c-0.174,0.18 -0.311,0.391 -0.405,0.623c-0.117,0.28 -0.174,0.582 -0.165,0.885c-0.011,0.107 -0.011,0.215 0,0.322c0.024,0.106 0.065,0.207 0.12,0.3c0.056,0.091 0.133,0.166 0.225,0.218c0.109,0.056 0.23,0.084 0.353,0.082c0.123,-0.008 0.243,-0.041 0.352,-0.097c0.144,-0.08 0.271,-0.187 0.375,-0.315c0.303,-0.364 0.489,-0.811 0.533,-1.283c0.008,-0.077 0.049,-0.148 0.112,-0.195c0.059,-0.054 0.137,-0.083 0.218,-0.082c0.077,0.001 0.15,0.033 0.202,0.09c0.055,0.057 0.089,0.131 0.098,0.21l-0,0.45c0.023,0.195 0.06,0.388 0.112,0.577c0.057,0.182 0.148,0.35 0.27,0.495c0.122,0.141 0.302,0.219 0.488,0.21c0.14,-0.003 0.276,-0.041 0.397,-0.112c0.14,-0.078 0.268,-0.174 0.383,-0.285c0.131,-0.127 0.252,-0.265 0.36,-0.413c0.115,-0.147 0.22,-0.303 0.315,-0.465c0.162,-0.268 0.307,-0.546 0.435,-0.832c0.028,-0.059 0.072,-0.108 0.127,-0.143c0.05,-0.036 0.111,-0.054 0.173,-0.052c0.086,-0 0.169,0.038 0.225,0.105c0.056,0.062 0.088,0.142 0.09,0.225c0.019,0.03 0.034,0.063 0.045,0.097Z" style="fill:#575757;fill-rule:nonzero;"/><path d="M142.65,11.295c-0.06,0.128 -0.135,0.278 -0.232,0.458c-0.098,0.18 -0.195,0.36 -0.315,0.547c-0.12,0.197 -0.25,0.388 -0.39,0.57c-0.144,0.18 -0.302,0.348 -0.473,0.503c-0.168,0.14 -0.352,0.261 -0.547,0.36c-0.193,0.09 -0.403,0.136 -0.615,0.135c-0.318,0.006 -0.627,-0.103 -0.87,-0.308c-0.256,-0.229 -0.462,-0.507 -0.608,-0.817c-0.182,-0.362 -0.321,-0.745 -0.412,-1.14c-0.101,-0.433 -0.178,-0.871 -0.233,-1.313c-0.06,-0.442 -0.097,-0.877 -0.112,-1.297c-0.015,-0.42 -0,-0.788 -0,-1.118c-0,-0.465 -0,-0.952 0.045,-1.455c0.045,-0.502 0.075,-0.997 0.142,-1.5c0.068,-0.502 0.158,-0.937 0.255,-1.365c0.091,-0.387 0.217,-0.766 0.375,-1.132c0.118,-0.276 0.283,-0.53 0.488,-0.75c0.16,-0.18 0.389,-0.284 0.63,-0.285c0.176,-0.005 0.35,0.039 0.502,0.127c0.161,0.102 0.289,0.248 0.368,0.42c0.115,0.238 0.196,0.49 0.24,0.75c0.058,0.38 0.086,0.764 0.082,1.148c-0.002,0.582 -0.062,1.162 -0.18,1.732c-0.119,0.61 -0.276,1.211 -0.472,1.8c-0.218,0.619 -0.468,1.224 -0.75,1.815c-0.27,0.6 -0.563,1.185 -0.878,1.755c0.099,0.584 0.288,1.149 0.563,1.673c0.145,0.345 0.473,0.581 0.847,0.607c0.24,-0.006 0.469,-0.099 0.645,-0.262c0.215,-0.184 0.406,-0.393 0.57,-0.623c0.171,-0.238 0.324,-0.489 0.458,-0.75c0.135,-0.247 0.232,-0.45 0.307,-0.6c0.027,-0.054 0.069,-0.101 0.12,-0.135c0.05,-0.03 0.107,-0.046 0.165,-0.045c0.089,-0.001 0.175,0.038 0.233,0.105c0.057,0.061 0.089,0.142 0.09,0.225c-0.003,0.057 -0.015,0.113 -0.038,0.165Zm-4.2,-3.375l0,1.035c0,0.33 0.023,0.645 0.068,0.945c0.232,-0.45 0.457,-0.937 0.667,-1.447c0.216,-0.507 0.404,-1.025 0.563,-1.553c0.16,-0.511 0.291,-1.032 0.39,-1.56c0.097,-0.494 0.147,-0.996 0.15,-1.5c0.023,-0.477 -0.03,-0.956 -0.158,-1.417c-0.105,-0.293 -0.247,-0.435 -0.427,-0.435c-0.18,-0 -0.233,0.082 -0.345,0.247c-0.127,0.208 -0.231,0.43 -0.308,0.66c-0.103,0.326 -0.188,0.656 -0.255,0.99c-0.082,0.383 -0.142,0.75 -0.195,1.23c-0.052,0.48 -0.097,0.893 -0.127,1.365c-0.03,0.473 -0.023,0.953 -0.023,1.44Z" style="fill:#575757;fill-rule:nonzero;"/><path d="M146.858,11.295l-0.233,0.458c-0.09,0.172 -0.195,0.36 -0.315,0.547c-0.122,0.197 -0.255,0.388 -0.397,0.57c-0.14,0.184 -0.298,0.352 -0.473,0.503c-0.168,0.14 -0.352,0.261 -0.547,0.36c-0.193,0.091 -0.403,0.137 -0.615,0.135c-0.316,0.006 -0.623,-0.103 -0.863,-0.308c-0.255,-0.23 -0.464,-0.508 -0.615,-0.817c-0.177,-0.364 -0.312,-0.746 -0.405,-1.14c-0.103,-0.433 -0.183,-0.871 -0.24,-1.313c-0.052,-0.442 -0.09,-0.877 -0.112,-1.297c-0.023,-0.42 -0,-0.788 -0,-1.118c-0,-0.465 -0,-0.952 0.045,-1.455c0.045,-0.502 0.082,-0.997 0.15,-1.5c0.062,-0.458 0.147,-0.914 0.255,-1.365c0.088,-0.387 0.211,-0.766 0.367,-1.132c0.118,-0.278 0.285,-0.533 0.495,-0.75c0.158,-0.183 0.389,-0.287 0.63,-0.285c0.174,-0.004 0.345,0.04 0.495,0.127c0.163,0.101 0.293,0.247 0.375,0.42c0.112,0.238 0.191,0.491 0.233,0.75c0.062,0.38 0.09,0.764 0.082,1.148c0.001,0.582 -0.057,1.162 -0.172,1.732c-0.122,0.61 -0.282,1.211 -0.48,1.8c-0.205,0.618 -0.443,1.224 -0.713,1.815c-0.28,0.6 -0.572,1.185 -0.877,1.755c0.091,0.586 0.282,1.151 0.562,1.673c0.144,0.346 0.473,0.582 0.848,0.607c0.239,-0.009 0.467,-0.102 0.645,-0.262c0.212,-0.186 0.403,-0.395 0.57,-0.623c0.168,-0.24 0.321,-0.49 0.457,-0.75l0.308,-0.6c0.022,-0.055 0.061,-0.102 0.112,-0.135c0.052,-0.03 0.112,-0.046 0.173,-0.045c0.087,-0.002 0.17,0.037 0.225,0.105c0.057,0.061 0.089,0.142 0.09,0.225c-0.008,0.059 -0.029,0.116 -0.06,0.165Zm-4.208,-3.375l0,1.035c0,0.33 0.038,0.645 0.06,0.945c0.24,-0.45 0.465,-0.937 0.675,-1.447c0.21,-0.51 0.398,-1.028 0.563,-1.553c0.16,-0.511 0.291,-1.032 0.39,-1.56c0.094,-0.494 0.142,-0.996 0.142,-1.5c0.023,-0.477 -0.03,-0.956 -0.157,-1.417c-0.105,-0.293 -0.248,-0.435 -0.428,-0.435c-0.147,0.021 -0.273,0.114 -0.337,0.247c-0.13,0.207 -0.234,0.428 -0.308,0.66c-0.105,0.325 -0.193,0.656 -0.262,0.99c-0.075,0.383 -0.143,0.75 -0.195,1.23c-0.053,0.48 -0.098,0.893 -0.128,1.365c-0.03,0.473 -0.015,0.953 -0.015,1.44Z" style="fill:#575757;fill-rule:nonzero;"/><path d="M147.293,12.683c0.118,0.162 0.272,0.296 0.45,0.39c0.456,0.207 0.985,0.188 1.425,-0.053c0.23,-0.14 0.437,-0.314 0.615,-0.517c0.192,-0.218 0.358,-0.457 0.495,-0.713c0.142,-0.262 0.277,-0.525 0.397,-0.787c0.025,-0.057 0.063,-0.106 0.113,-0.143c0.052,-0.03 0.112,-0.046 0.172,-0.045c0.087,-0.002 0.171,0.037 0.225,0.105c0.057,0.059 0.089,0.137 0.09,0.218c0.005,0.022 0.005,0.045 0,0.067l0,0.068c-0.299,0.713 -0.729,1.365 -1.267,1.92c-0.411,0.411 -0.965,0.648 -1.545,0.66c-0.333,0.009 -0.662,-0.063 -0.96,-0.21c-0.257,-0.137 -0.482,-0.326 -0.66,-0.555c-0.173,-0.224 -0.303,-0.479 -0.383,-0.75c-0.086,-0.279 -0.129,-0.57 -0.127,-0.863c-0.002,-0.253 0.034,-0.506 0.105,-0.75c0.06,-0.226 0.161,-0.44 0.3,-0.63c0.126,-0.171 0.287,-0.315 0.472,-0.42c0.184,-0.099 0.391,-0.15 0.6,-0.15c0.132,0.003 0.262,0.031 0.383,0.083c0.124,0.055 0.238,0.131 0.337,0.225c0.103,0.103 0.184,0.226 0.24,0.36c0.068,0.148 0.102,0.31 0.098,0.472c-0.001,0.223 -0.042,0.444 -0.12,0.653c-0.084,0.2 -0.193,0.389 -0.323,0.562c-0.142,0.18 -0.309,0.339 -0.495,0.473c-0.201,0.131 -0.414,0.241 -0.637,0.33Zm-0.255,-0.548c0.169,-0.071 0.327,-0.164 0.472,-0.277c0.139,-0.105 0.263,-0.229 0.368,-0.368c0.097,-0.13 0.176,-0.274 0.232,-0.427c0.06,-0.142 0.091,-0.295 0.09,-0.45c0.008,-0.139 -0.038,-0.276 -0.127,-0.383c-0.076,-0.08 -0.182,-0.126 -0.293,-0.127c-0.141,-0.004 -0.279,0.041 -0.39,0.127c-0.111,0.09 -0.2,0.203 -0.262,0.33c-0.067,0.141 -0.115,0.29 -0.143,0.443c-0.03,0.163 -0.045,0.329 -0.045,0.495c-0.01,0.105 -0.01,0.21 0,0.315c0.024,0.115 0.056,0.228 0.098,0.337l-0,-0.015Z" style="fill:#575757;fill-rule:nonzero;"/><path d="M151.553,10.17c-0,0.15 -0.053,0.293 -0.083,0.42c-0.03,0.128 -0.067,0.248 -0.097,0.345c-0.03,0.098 -0.06,0.18 -0.083,0.24l-0.037,0.105c-0.048,0.119 -0.166,0.194 -0.293,0.188c-0.08,-0.002 -0.157,-0.031 -0.217,-0.083c-0.067,-0.055 -0.105,-0.138 -0.105,-0.225c-0.006,-0.024 -0.006,-0.05 -0,-0.075c0.022,-0.032 0.039,-0.067 0.052,-0.105c0.035,-0.08 0.062,-0.162 0.083,-0.247c0.037,-0.12 0.075,-0.3 0.127,-0.548l-0.292,0c-0.098,-0.003 -0.194,-0.024 -0.285,-0.06c-0.085,-0.029 -0.158,-0.084 -0.21,-0.157c-0.062,-0.087 -0.091,-0.193 -0.083,-0.3c0.006,-0.133 0.031,-0.264 0.075,-0.39c0.057,-0.167 0.13,-0.327 0.218,-0.48c0.081,-0.148 0.182,-0.284 0.3,-0.405c0.085,-0.1 0.206,-0.162 0.337,-0.173c0.121,-0 0.236,0.052 0.315,0.143c0.086,0.104 0.15,0.223 0.188,0.352c0.044,0.14 0.077,0.283 0.097,0.428l0,0.397l0.623,0c0.267,-0.022 0.533,0.052 0.75,0.21c0.181,0.179 0.272,0.43 0.247,0.683c0.007,0.135 0.007,0.27 0,0.405c0,0.142 -0.037,0.285 -0.06,0.435c-0.022,0.15 0,0.292 -0.06,0.435c-0.007,0.145 -0.007,0.29 0,0.435c-0.004,0.169 0.024,0.337 0.083,0.495c0.047,0.118 0.119,0.226 0.21,0.315c0.077,0.074 0.169,0.13 0.27,0.165c0.084,0.028 0.173,0.043 0.262,0.045c0.245,-0.001 0.482,-0.082 0.675,-0.233c0.223,-0.161 0.422,-0.353 0.593,-0.57c0.177,-0.22 0.337,-0.453 0.48,-0.697c0.142,-0.248 0.262,-0.465 0.352,-0.645c0.028,-0.05 0.07,-0.092 0.12,-0.12c0.048,-0.029 0.102,-0.044 0.158,-0.045c0.09,-0.002 0.177,0.033 0.24,0.097c0.09,0.101 0.108,0.249 0.045,0.368c-0.128,0.225 -0.278,0.487 -0.45,0.75c-0.164,0.289 -0.358,0.561 -0.578,0.81c-0.216,0.249 -0.469,0.464 -0.75,0.637c-0.266,0.173 -0.576,0.264 -0.892,0.263c-0.196,0.001 -0.39,-0.037 -0.57,-0.113c-0.178,-0.073 -0.337,-0.186 -0.465,-0.33c-0.14,-0.151 -0.248,-0.33 -0.315,-0.525c-0.089,-0.239 -0.13,-0.494 -0.12,-0.75c0.001,-0.279 0.029,-0.558 0.082,-0.832c0.056,-0.261 0.084,-0.528 0.083,-0.795c0.006,-0.085 -0.018,-0.17 -0.068,-0.24c-0.045,-0.053 -0.15,-0.075 -0.315,-0.075l-0.555,-0l-0.082,0.052Zm-0.563,-0.622l0,-0.345c0.005,-0.052 0.005,-0.105 0,-0.158c0,-0.045 -0.015,-0.067 -0.045,-0.067c-0.03,-0 0,-0 -0.067,0.06c-0.028,0.051 -0.053,0.104 -0.075,0.157c-0.031,0.061 -0.056,0.123 -0.075,0.188c-0.021,0.054 -0.039,0.109 -0.053,0.165l0.315,-0Z" style="fill:#575757;fill-rule:nonzero;"/><path d="M159,13.733c0.203,-0.195 0.398,-0.39 0.6,-0.6c0.203,-0.21 0.398,-0.413 0.585,-0.638c0.192,-0.223 0.37,-0.458 0.533,-0.705c0.166,-0.238 0.314,-0.488 0.442,-0.75c0.027,-0.057 0.069,-0.106 0.12,-0.142c0.05,-0.031 0.107,-0.046 0.165,-0.045c0.089,-0.001 0.175,0.037 0.233,0.105c0.057,0.061 0.089,0.141 0.09,0.225c0.007,0.042 0.007,0.085 -0,0.127c-0.166,0.351 -0.365,0.685 -0.593,0.998c-0.225,0.3 -0.457,0.585 -0.705,0.855c-0.247,0.27 -0.495,0.54 -0.75,0.795c-0.255,0.255 -0.487,0.51 -0.75,0.75c-0.022,0.387 -0.022,0.775 0,1.162l0,2.31c0,0.323 -0.06,0.705 -0.112,1.028c-0.041,0.313 -0.109,0.621 -0.203,0.922c-0.076,0.264 -0.187,0.516 -0.33,0.75c-0.121,0.196 -0.282,0.365 -0.472,0.495c-0.501,0.31 -1.158,0.211 -1.545,-0.232c-0.228,-0.338 -0.339,-0.741 -0.315,-1.148c0.002,-0.292 0.032,-0.583 0.09,-0.87c0.057,-0.323 0.139,-0.642 0.247,-0.952c0.101,-0.336 0.218,-0.666 0.353,-0.99c0.142,-0.338 0.307,-0.66 0.48,-0.983c0.168,-0.312 0.353,-0.615 0.555,-0.907c0.18,-0.275 0.378,-0.538 0.592,-0.788c0,-0.27 0,-0.547 0.038,-0.832c0.037,-0.285 -0,-0.555 0.045,-0.803c-0.133,0.245 -0.317,0.458 -0.54,0.623c-0.204,0.152 -0.451,0.234 -0.705,0.232c-0.383,0.019 -0.754,-0.138 -1.005,-0.427c-0.257,-0.337 -0.385,-0.755 -0.36,-1.178c-0.002,-0.332 0.033,-0.664 0.105,-0.99c0.063,-0.254 0.141,-0.504 0.232,-0.75c0.056,-0.171 0.129,-0.337 0.218,-0.495c0.027,-0.059 0.063,-0.114 0.105,-0.165c0.051,-0.091 0.15,-0.147 0.255,-0.142c0.088,-0.004 0.173,0.032 0.232,0.097c0.059,0.058 0.091,0.136 0.09,0.218c0.002,0.062 -0.016,0.122 -0.052,0.172l-0.083,0.135c-0.073,0.138 -0.135,0.281 -0.187,0.428c-0.082,0.215 -0.148,0.435 -0.195,0.66c-0.062,0.278 -0.093,0.562 -0.09,0.847c-0.019,0.262 0.041,0.523 0.172,0.75c0.118,0.18 0.326,0.282 0.54,0.263c0.323,-0 0.608,-0.233 0.87,-0.705c0.314,-0.653 0.534,-1.348 0.653,-2.063c0.007,-0.07 0.042,-0.135 0.097,-0.18c0.058,-0.046 0.129,-0.072 0.203,-0.075c0.175,0.004 0.318,0.148 0.322,0.323c0.004,0.175 0,0.112 -0.037,0.3c-0.038,0.187 -0.045,0.42 -0.075,0.75c-0.03,0.33 -0.068,0.652 -0.098,1.057c-0.03,0.405 -0.037,0.728 -0.06,1.178Zm-0.667,1.777c-0.255,0.37 -0.485,0.756 -0.69,1.155c-0.204,0.39 -0.387,0.791 -0.548,1.2c-0.141,0.372 -0.257,0.753 -0.345,1.14c-0.082,0.319 -0.125,0.647 -0.127,0.975c-0.013,0.236 0.036,0.472 0.142,0.683c0.09,0.162 0.265,0.259 0.45,0.247c0.201,-0.005 0.386,-0.109 0.495,-0.277c0.166,-0.225 0.288,-0.48 0.36,-0.75c0.11,-0.4 0.183,-0.809 0.218,-1.223c0.054,-0.533 0.079,-1.069 0.075,-1.605l-0,-0.75c-0,-0.262 -0.023,-0.51 -0.03,-0.795Z" style="fill:#575757;fill-rule:nonzero;"/></svg>