<svg width="100%" height="100%" viewBox="0 0 3072 512" version="1.1" xmlns="http://www.w3.org/2000/svg" xmlns:xlink="http://www.w3.org/1999/xlink" xml:space="preserve" style="fill-rule:evenodd;clip-rule:evenodd;stroke-linejoin:round;stroke-miterlimit:2;"><path id="Artboard1" style="fill:none;" d="M0 0h3072v512H0z"/><g id="Artboard11"><path d="M174.902 365.973c-1.16 2.109-2.901 3.164-5.221 3.164-1.898 0-3.375-.606-4.43-1.819-1.054-1.213-1.582-2.663-1.582-4.351 0-.211.053-2.399.159-6.565.105-4.166.158-9.782.158-16.849 0-8.965.026-18.51.079-28.635a867.086 867.086 0 0 0-.396-30.849 437.578 437.578 0 0 0-2.056-31.166c-1.055-10.336-2.69-20.224-4.905-29.663-2.214-9.44-5.115-18.22-8.701-26.341-3.586-8.121-8.174-15.161-13.763-21.12-5.59-5.959-12.235-10.626-19.934-14.001-7.699-3.375-16.77-5.063-27.211-5.063-10.23 0-19.564 1.767-28.002 5.3-8.437 3.533-15.688 8.279-21.753 14.238-6.064 5.959-10.758 12.92-14.08 20.883-3.322 7.963-4.983 16.374-4.983 25.234 0 7.699 1.344 14.792 4.034 21.278 2.689 6.486 6.354 12.102 10.995 16.849 4.641 4.746 10.046 8.463 16.216 11.153 6.17 2.689 12.735 4.034 19.696 4.034 5.168 0 9.914-.712 14.238-2.136 4.325-1.424 8.016-2.979 11.075-4.667 3.058-1.687 5.431-3.243 7.119-4.667 1.687-1.423 2.584-2.135 2.689-2.135 1.16-1.161 2.584-1.741 4.272-1.741 1.582 0 2.953.554 4.113 1.661 1.16 1.108 1.74 2.453 1.74 4.035 0 1.582-.58 2.953-1.74 4.113-.211.211-1.397 1.239-3.56 3.085-2.162 1.846-5.141 3.823-8.938 5.933-3.797 2.109-8.306 4.007-13.526 5.695-5.221 1.687-10.996 2.531-17.324 2.531-8.754 0-16.954-1.635-24.6-4.904-7.647-3.27-14.318-7.805-20.013-13.606-5.695-5.8-10.204-12.682-13.526-20.645-3.323-7.963-4.984-16.585-4.984-25.866 0-10.547 2.031-20.514 6.091-29.901 4.061-9.387 9.677-17.587 16.849-24.6 7.172-7.014 15.635-12.551 25.391-16.612 9.756-4.06 20.382-6.091 31.878-6.091 14.871 0 27.422 2.664 37.653 7.99 10.23 5.326 18.694 12.445 25.391 21.357 6.697 8.912 11.865 19.195 15.504 30.85 3.639 11.654 6.302 23.809 7.989 36.466a354.962 354.962 0 0 1 3.006 38.206c.317 12.814.475 24.864.475 36.149v6.803c0 2.426-.027 4.851-.079 7.277-.053 2.426-.106 4.72-.158 6.882-.053 2.162-.08 3.929-.08 5.3l105.997-196.172c.949-2.004 2.636-3.006 5.062-3.006 1.793 0 3.243.606 4.351 1.819 1.107 1.213 1.661 2.611 1.661 4.193 0 .527-.317 2.452-.949 5.774-.633 3.322-1.398 7.726-2.294 13.21a1133.706 1133.706 0 0 0-2.927 19.064c-1.055 7.224-2.03 15.003-2.927 23.335a705.855 705.855 0 0 0-2.294 26.024 385.11 385.11 0 0 0-.949 26.974c0 15.082.791 28.45 2.373 40.104 1.582 11.654 4.166 21.489 7.752 29.505 3.586 8.016 8.306 14.08 14.159 18.193 5.854 4.114 13.052 6.17 21.595 6.17 7.699 0 15.029-1.661 21.99-4.983 6.961-3.322 13.447-7.884 19.459-13.685 6.012-5.8 11.602-12.603 16.77-20.408 5.168-7.805 9.835-16.216 14.001-25.233a268.003 268.003 0 0 0 11.074-28.081c3.217-9.703 5.906-19.354 8.068-28.952 2.162-9.597 3.797-18.931 4.904-28.001 1.108-9.071 1.662-17.403 1.662-24.997 0-13.711-1.556-26.34-4.667-37.889-3.112-11.549-8.095-20.962-14.951-28.239-1.054-1.055-1.582-2.374-1.582-3.956 0-1.687.607-3.111 1.82-4.271 1.213-1.16 2.61-1.74 4.192-1.74 1.793 0 3.217.58 4.272 1.74 4.007 4.324 7.461 9.202 10.362 14.634 2.9 5.431 5.273 11.338 7.119 17.719 1.846 6.38 3.217 13.104 4.113 20.17.897 7.067 1.345 14.397 1.345 21.991 0 11.601-1.107 24.231-3.322 37.889-2.215 13.658-5.485 27.369-9.809 41.133a287.732 287.732 0 0 1-15.899 39.946c-6.276 12.868-13.5 24.232-21.674 34.093-8.174 9.861-17.218 17.772-27.132 23.731-9.914 5.959-20.619 8.938-32.115 8.938-10.863 0-19.987-2.452-27.369-7.356-7.383-4.905-13.316-11.971-17.798-21.2-4.483-9.228-7.699-20.434-9.651-33.618-1.951-13.183-2.926-28.054-2.926-44.613 0-6.855.237-13.922.712-21.199a645.704 645.704 0 0 1 1.74-21.358 834.08 834.08 0 0 1 2.215-20.091 899.192 899.192 0 0 1 2.294-17.403L174.902 365.973ZM476.437 234.506c0 4.008-1.398 7.41-4.192 10.204-2.795 2.795-6.197 4.193-10.205 4.193-4.007 0-7.409-1.398-10.204-4.193-2.795-2.794-4.192-6.196-4.192-10.204 0-2.004.369-3.876 1.107-5.616a14.376 14.376 0 0 1 7.673-7.673c1.74-.738 3.613-1.107 5.616-1.107 2.004 0 3.876.369 5.617 1.107a14.376 14.376 0 0 1 7.673 7.673c.738 1.74 1.107 3.612 1.107 5.616Zm-25.629 92.707c0-15.187.949-30.322 2.848-45.404.211-1.477.87-2.768 1.977-3.876 1.108-1.107 2.558-1.661 4.351-1.661 1.582 0 2.9.606 3.955 1.819 1.055 1.213 1.582 2.611 1.582 4.193 0 .632-.132 2.531-.396 5.695-.263 3.164-.58 6.935-.949 11.312a461.026 461.026 0 0 0-.949 13.921c-.264 4.905-.396 9.413-.396 13.527 0 5.59.554 10.098 1.662 13.526 1.107 3.428 2.531 6.091 4.271 7.989 1.74 1.899 3.586 3.164 5.537 3.797s3.823.949 5.616.949c2.954 0 6.012-1.054 9.176-3.164 3.164-2.109 6.407-5.062 9.73-8.859 3.322-3.797 6.671-8.358 10.046-13.685 3.375-5.326 6.697-11.258 9.966-17.797.528-1.055 1.266-1.872 2.215-2.453.949-.58 2.004-.87 3.164-.87 1.688 0 3.085.633 4.193 1.899 1.107 1.265 1.661 2.636 1.661 4.113 0 1.055-.211 1.951-.633 2.69a571.504 571.504 0 0 1-4.746 8.859c-1.899 3.48-4.061 7.066-6.486 10.758a148.493 148.493 0 0 1-7.99 10.995c-2.9 3.638-5.985 6.908-9.255 9.808-3.269 2.901-6.697 5.247-10.283 7.04-3.586 1.793-7.224 2.69-10.916 2.69-4.746 0-8.912-1.002-12.498-3.006-3.586-2.004-6.618-4.693-9.097-8.068-2.478-3.375-4.324-7.357-5.537-11.945s-1.819-9.518-1.819-14.792Zm16.77-92.707c0-1.476-.554-2.768-1.662-3.876-1.107-1.107-2.399-1.661-3.876-1.661-1.476 0-2.742.554-3.796 1.661-1.055 1.108-1.582 2.4-1.582 3.876 0 1.477.527 2.743 1.582 3.797 1.054 1.055 2.32 1.582 3.796 1.582 1.477 0 2.769-.527 3.876-1.582 1.108-1.054 1.662-2.32 1.662-3.797Z" style="fill-rule:nonzero;"/><path d="M608.695 314.874c-1.16 2.425-2.611 5.299-4.351 8.622a169.501 169.501 0 0 1-5.932 10.362 122.183 122.183 0 0 1-7.436 10.679c-2.742 3.533-5.722 6.697-8.938 9.492-3.217 2.795-6.645 5.062-10.284 6.803-3.638 1.74-7.514 2.61-11.628 2.61-6.328 0-11.759-1.951-16.295-5.854-4.535-3.902-8.384-9.017-11.548-15.345-3.164-6.328-5.722-13.527-7.673-21.595a223.76 223.76 0 0 1-4.509-24.68c-1.055-8.385-1.767-16.532-2.136-24.442-.369-7.91-.553-14.924-.553-21.041 0-8.86.29-18.035.87-27.528a360.858 360.858 0 0 1 2.768-27.843c1.266-9.071 2.874-17.666 4.825-25.787 1.952-8.121 4.272-15.241 6.961-21.358 2.69-6.117 5.775-10.969 9.255-14.554 3.481-3.586 7.436-5.379 11.865-5.379 3.481 0 6.619.817 9.414 2.452 2.794 1.635 5.141 4.298 7.04 7.989 1.898 3.691 3.375 8.49 4.429 14.397 1.055 5.906 1.582 13.13 1.582 21.673 0 10.547-1.107 21.437-3.322 32.669-2.215 11.233-5.221 22.544-9.018 33.935-3.796 11.39-8.279 22.755-13.447 34.093a498.32 498.32 0 0 1-16.611 33.143c2.637 13.395 6.17 23.915 10.599 31.562 4.43 7.646 9.756 11.469 15.979 11.469 4.219 0 8.279-1.661 12.182-4.983 3.902-3.322 7.488-7.251 10.757-11.786 3.27-4.535 6.144-9.15 8.623-13.843 2.478-4.693 4.403-8.464 5.774-11.311.527-1.055 1.266-1.872 2.215-2.453.949-.58 2.004-.87 3.164-.87 1.793 0 3.243.633 4.35 1.899 1.108 1.265 1.662 2.689 1.662 4.271 0 .633-.211 1.477-.633 2.532Zm-79.26-63.598c0 6.75.158 13.236.475 19.459.316 6.222.738 12.181 1.265 17.877 4.43-8.543 8.649-17.64 12.656-27.29a335.185 335.185 0 0 0 10.6-29.268c3.059-9.861 5.511-19.67 7.357-29.426 1.845-9.755 2.768-19.063 2.768-27.922 0-12.446-1.002-21.358-3.006-26.737-2.004-5.379-4.693-8.068-8.068-8.068-2.215 0-4.351 1.529-6.407 4.588-2.057 3.058-3.982 7.224-5.775 12.498-1.793 5.273-3.428 11.496-4.904 18.668-1.477 7.172-2.716 14.871-3.718 23.097-1.002 8.227-1.793 16.823-2.373 25.788-.58 8.964-.87 17.876-.87 26.736Z" style="fill-rule:nonzero;"/><path d="M610.435 345.249c1.687-3.586 3.639-7.462 5.854-11.628a408.038 408.038 0 0 1 7.119-12.815 264.31 264.31 0 0 1 8.068-13.052 157.66 157.66 0 0 1 8.859-12.181c3.059-3.692 6.144-6.355 9.255-7.99 3.112-1.634 6.038-2.452 8.781-2.452 2.742 0 5.141.554 7.198 1.661a14.376 14.376 0 0 1 5.062 4.509c1.319 1.899 2.321 4.114 3.006 6.645.686 2.531 1.028 5.273 1.028 8.226 0 2.426-.237 5.669-.711 9.73-.475 4.06-.712 8.305-.712 12.735 0 2.531.131 5.036.395 7.515.264 2.478.738 4.693 1.424 6.644.686 1.952 1.714 3.534 3.085 4.746 1.371 1.213 3.164 1.82 5.379 1.82 2.531 0 5.062-.712 7.594-2.136 2.531-1.424 5.009-3.322 7.435-5.695 2.426-2.373 4.746-5.01 6.961-7.91a107.436 107.436 0 0 0 6.012-8.702c1.793-2.9 3.375-5.695 4.746-8.384a246.776 246.776 0 0 0 3.322-6.724c1.055-2.426 2.901-3.639 5.537-3.639 1.793 0 3.217.633 4.272 1.899 1.054 1.265 1.582 2.636 1.582 4.113 0 .844-.158 1.635-.475 2.373-.422.844-1.239 2.584-2.452 5.221-1.213 2.637-2.848 5.695-4.904 9.176-2.057 3.48-4.456 7.119-7.199 10.916a79.02 79.02 0 0 1-9.096 10.52c-3.322 3.217-6.908 5.854-10.758 7.91-3.85 2.057-7.884 3.085-12.103 3.085-4.851 0-8.753-1.028-11.707-3.085-2.953-2.056-5.247-4.667-6.881-7.831-1.635-3.164-2.743-6.697-3.323-10.599-.58-3.903-.87-7.7-.87-11.391 0-1.898.079-3.929.238-6.091.158-2.162.342-4.298.553-6.407.211-2.109.396-4.087.554-5.933.158-1.845.237-3.401.237-4.667 0-3.269-.448-5.484-1.344-6.644-.897-1.16-1.925-1.74-3.085-1.74-1.688 0-3.613.975-5.775 2.926-2.162 1.951-4.43 4.509-6.803 7.673-2.373 3.164-4.746 6.724-7.119 10.679a565.906 565.906 0 0 0-6.882 11.786 273.42 273.42 0 0 0-6.011 11.153 1697.51 1697.51 0 0 0-4.43 8.781c-2.215 4.429-4.456 7.409-6.724 8.938-2.267 1.529-4.297 2.294-6.09 2.294-3.27 0-5.775-1.292-7.515-3.876-1.74-2.584-2.61-5.722-2.61-9.413v-9.967c0-19.933.026-38.944.079-57.032.052-18.088.316-34.91.791-50.467.474-15.556 1.265-29.637 2.373-42.24 1.107-12.604 2.768-23.361 4.983-32.274 2.215-8.912 5.036-15.793 8.464-20.645 3.428-4.852 7.726-7.277 12.894-7.277 4.429 0 8.173 1.213 11.232 3.638 3.059 2.426 5.537 5.722 7.436 9.888 1.898 4.166 3.269 9.018 4.113 14.555.844 5.537 1.265 11.364 1.265 17.481 0 12.445-1.133 24.653-3.401 36.624a269.008 269.008 0 0 1-9.097 35.042 308.385 308.385 0 0 1-13.289 33.302 569.157 569.157 0 0 1-15.978 31.561v27.686l.158 7.436Zm0-58.377c4.43-9.704 8.464-19.169 12.103-28.398 3.638-9.228 6.75-18.431 9.334-27.606a239.333 239.333 0 0 0 6.09-27.923c1.477-9.44 2.215-19.275 2.215-29.505 0-1.688-.079-4.377-.237-8.068a69.62 69.62 0 0 0-1.424-11.233c-.791-3.797-2.004-7.119-3.639-9.967-1.634-2.847-3.928-4.271-6.881-4.271-2.321 0-4.325 1.556-6.012 4.667-1.688 3.111-3.164 7.33-4.43 12.656-1.265 5.326-2.32 11.523-3.164 18.589-.844 7.066-1.529 14.555-2.057 22.465a700.209 700.209 0 0 0-1.186 24.363c-.264 8.332-.448 16.427-.554 24.284-.105 7.858-.158 15.214-.158 22.07v17.877Z" style="fill-rule:nonzero;"/><path d="M738.58 341.293c2.214 3.059 5.062 5.511 8.542 7.357 3.481 1.846 7.752 2.768 12.815 2.768 5.168 0 9.861-1.239 14.08-3.717 4.219-2.479 8.068-5.722 11.549-9.73 3.48-4.008 6.592-8.49 9.334-13.447a195.173 195.173 0 0 0 7.435-14.871c.528-1.16 1.266-2.03 2.215-2.611.949-.58 2.004-.87 3.164-.87 1.793 0 3.243.633 4.351 1.899 1.107 1.265 1.661 2.636 1.661 4.113 0 .527-.053.976-.158 1.345a6.992 6.992 0 0 1-.475 1.186c-7.277 16.032-15.214 28.108-23.809 36.229-8.596 8.121-18.326 12.287-29.189 12.498-6.961 0-12.973-1.345-18.035-4.034-5.063-2.69-9.229-6.17-12.498-10.442-3.27-4.271-5.695-9.096-7.277-14.475-1.582-5.379-2.373-10.758-2.373-16.137 0-5.379.659-10.336 1.977-14.871s3.217-8.49 5.695-11.865c2.479-3.375 5.432-6.012 8.86-7.911 3.428-1.898 7.198-2.847 11.311-2.847 2.426 0 4.826.501 7.199 1.503 2.373 1.002 4.508 2.426 6.407 4.271 1.898 1.846 3.428 4.087 4.588 6.724 1.16 2.637 1.74 5.642 1.74 9.017 0 4.325-.738 8.385-2.215 12.182a40.984 40.984 0 0 1-6.091 10.6c-2.584 3.269-5.669 6.275-9.255 9.017a67.907 67.907 0 0 1-11.548 7.119Zm-4.747-10.283c3.27-1.371 6.249-3.111 8.939-5.22 2.689-2.11 4.983-4.43 6.882-6.961 1.898-2.532 3.375-5.195 4.429-7.99 1.055-2.795 1.582-5.616 1.582-8.464 0-3.164-.791-5.563-2.373-7.198-1.582-1.635-3.427-2.452-5.537-2.452-2.847 0-5.273.791-7.277 2.373-2.004 1.582-3.639 3.639-4.904 6.17-1.266 2.531-2.189 5.353-2.769 8.464a50.409 50.409 0 0 0-.87 9.255c0 1.898.185 3.902.554 6.012a63.167 63.167 0 0 0 1.344 6.011Z" style="fill-rule:nonzero;"/><path d="M892.353 314.874c-1.16 2.425-2.61 5.299-4.351 8.622a168.978 168.978 0 0 1-5.932 10.362 122.183 122.183 0 0 1-7.436 10.679c-2.742 3.533-5.721 6.697-8.938 9.492-3.217 2.795-6.645 5.062-10.283 6.803-3.639 1.74-7.515 2.61-11.628 2.61-6.329 0-11.76-1.951-16.295-5.854-4.535-3.902-8.385-9.017-11.549-15.345-3.164-6.328-5.722-13.527-7.673-21.595a223.76 223.76 0 0 1-4.509-24.68c-1.054-8.385-1.766-16.532-2.136-24.442-.369-7.91-.553-14.924-.553-21.041 0-8.86.29-18.035.87-27.528a360.858 360.858 0 0 1 2.768-27.843c1.266-9.071 2.874-17.666 4.826-25.787 1.951-8.121 4.271-15.241 6.961-21.358 2.689-6.117 5.774-10.969 9.254-14.554 3.481-3.586 7.436-5.379 11.866-5.379 3.48 0 6.618.817 9.413 2.452s5.141 4.298 7.04 7.989c1.898 3.691 3.375 8.49 4.429 14.397 1.055 5.906 1.583 13.13 1.583 21.673 0 10.547-1.108 21.437-3.323 32.669-2.215 11.233-5.22 22.544-9.017 33.935-3.797 11.39-8.28 22.755-13.448 34.093a498.32 498.32 0 0 1-16.611 33.143c2.637 13.395 6.17 23.915 10.6 31.562 4.429 7.646 9.756 11.469 15.978 11.469 4.219 0 8.28-1.661 12.182-4.983 3.902-3.322 7.488-7.251 10.758-11.786 3.269-4.535 6.143-9.15 8.622-13.843 2.478-4.693 4.403-8.464 5.774-11.311.527-1.055 1.266-1.872 2.215-2.453.949-.58 2.004-.87 3.164-.87 1.793 0 3.243.633 4.351 1.899 1.107 1.265 1.661 2.689 1.661 4.271 0 .633-.211 1.477-.633 2.532Zm-79.26-63.598c0 6.75.158 13.236.475 19.459.316 6.222.738 12.181 1.265 17.877 4.43-8.543 8.649-17.64 12.657-27.29a335.176 335.176 0 0 0 10.599-29.268c3.059-9.861 5.511-19.67 7.357-29.426 1.845-9.755 2.768-19.063 2.768-27.922 0-12.446-1.002-21.358-3.006-26.737-2.003-5.379-4.693-8.068-8.068-8.068-2.215 0-4.351 1.529-6.407 4.588-2.057 3.058-3.982 7.224-5.775 12.498-1.793 5.273-3.427 11.496-4.904 18.668-1.476 7.172-2.716 14.871-3.718 23.097-1.002 8.227-1.793 16.823-2.373 25.788-.58 8.964-.87 17.876-.87 26.736Z" style="fill-rule:nonzero;"/><path d="M918.14 344.616c1.582-3.164 3.612-7.093 6.091-11.786a539.593 539.593 0 0 1 7.752-14.16 458.909 458.909 0 0 1 7.91-13.447c2.584-4.219 4.772-7.435 6.565-9.65 3.059-3.692 6.223-6.328 9.493-7.91 3.269-1.582 6.275-2.373 9.017-2.373 2.742 0 5.089.58 7.04 1.74 1.951 1.16 3.56 2.716 4.825 4.667 1.266 1.951 2.215 4.219 2.848 6.802.633 2.584.949 5.353.949 8.306 0 1.688-.079 3.902-.237 6.645-.158 2.742-.316 5.695-.475 8.859-.158 3.164-.316 6.434-.474 9.809-.158 3.375-.29 6.539-.396 9.492a731.504 731.504 0 0 1 5.379-10.521 784.367 784.367 0 0 1 6.091-11.469 536.92 536.92 0 0 1 5.933-10.679c1.898-3.322 3.638-6.038 5.22-8.148 4.535-6.222 8.781-10.388 12.736-12.498 3.955-2.109 7.462-3.164 10.52-3.164 3.586 0 6.539.66 8.86 1.978 2.32 1.318 4.139 3.006 5.458 5.062 1.318 2.057 2.241 4.351 2.768 6.882.527 2.531.791 4.957.791 7.278 0 3.585-.264 7.33-.791 11.232-.527 3.902-.791 8.543-.791 13.922 0 2.215.106 4.43.317 6.644.21 2.215.659 4.166 1.344 5.854a9.229 9.229 0 0 0 3.243 4.113c1.477 1.055 3.481 1.582 6.012 1.582 2.742 0 5.432-.712 8.068-2.136 2.637-1.423 5.168-3.295 7.594-5.616 2.426-2.32 4.72-4.957 6.882-7.91a123.629 123.629 0 0 0 5.933-8.859 131.245 131.245 0 0 0 4.746-8.464c1.371-2.69 2.478-4.984 3.322-6.882.527-1.16 1.266-2.057 2.215-2.689a5.58 5.58 0 0 1 3.164-.95c1.793 0 3.243.66 4.351 1.978 1.107 1.318 1.661 2.716 1.661 4.192 0 .739-.159 1.477-.475 2.215-.422.844-1.266 2.61-2.531 5.3-1.266 2.689-2.953 5.748-5.063 9.176-2.109 3.427-4.561 7.04-7.356 10.837a80.164 80.164 0 0 1-9.255 10.52c-3.375 3.217-7.014 5.854-10.916 7.91-3.902 2.057-8.016 3.085-12.34 3.085-4.641 0-8.411-.817-11.311-2.452-2.901-1.635-5.221-3.823-6.961-6.565-1.741-2.743-2.927-5.907-3.56-9.493-.633-3.585-.949-7.33-.949-11.232 0-5.168.264-9.94.791-14.317.527-4.377.791-7.779.791-10.204 0-2.637-.237-4.641-.712-6.012-.475-1.371-1.055-2.347-1.74-2.927-.686-.58-1.345-.896-1.978-.949a18.615 18.615 0 0 0-1.424-.079c-2.531 0-5.194 1.397-7.989 4.192s-5.669 6.513-8.622 11.153c-2.953 4.641-5.985 9.915-9.097 15.821a2723.858 2723.858 0 0 0-9.413 18.035 795.874 795.874 0 0 1-4.508 8.385c-1.213 2.215-2.374 3.955-3.481 5.22-1.107 1.266-2.188 2.163-3.243 2.69-1.055.527-2.215.791-3.481.791-2.742 0-4.825-.949-6.249-2.848-1.423-1.898-2.135-4.377-2.135-7.435 0-1.582.052-3.692.158-6.328.105-2.637.211-5.538.316-8.702.106-3.164.844-16.426.949-19.538.106-3.111.211-5.88.317-8.305.105-2.426.158-4.272.158-5.537 0-2.743-.475-4.72-1.424-5.933s-2.056-1.819-3.322-1.819c-1.16 0-2.452.421-3.876 1.265-1.424.844-3.085 2.479-4.983 4.904-1.477 1.899-3.349 4.667-5.617 8.306a371.874 371.874 0 0 0-7.198 12.103 542.557 542.557 0 0 0-7.514 13.605c-2.479 4.641-4.615 8.807-6.408 12.498-2.215 4.43-4.429 7.462-6.644 9.097-2.215 1.635-4.377 2.452-6.487 2.452-3.058 0-5.326-.923-6.802-2.769-1.477-1.845-2.215-4.297-2.215-7.356 0-.316.58-13.421.791-18.431.211-5.009 1.213-27.079 1.424-32.036.105-2.636 0-5.062-.317-7.277-.316-2.215-.738-3.533-1.265-3.955-.844.211-2.505 2.162-4.984 5.853-2.478 3.692-5.616 10.125-9.413 19.301-.527 1.16-1.318 2.057-2.373 2.69-1.055.632-2.162.949-3.322.949-1.793 0-3.217-.607-4.272-1.82-1.054-1.212-1.582-2.61-1.582-4.192 0-.738.159-1.529.475-2.373 4.746-11.285 9.281-19.591 13.605-24.917 4.325-5.326 8.543-7.989 12.657-7.989 2.425 0 4.456.553 6.09 1.661a12.055 12.055 0 0 1 3.876 4.271c.95 1.741 1.635 3.718 2.057 5.933a34.62 34.62 0 0 1 .633 6.486c0 9.387-.237 17.983-.712 25.787-.475 7.805-.976 15.663-1.503 23.573Z" style="fill-rule:nonzero;"/><path d="M1114.47 234.506c0 4.008-1.397 7.41-4.192 10.204-2.795 2.795-6.197 4.193-10.204 4.193-4.008 0-7.41-1.398-10.204-4.193-2.795-2.794-4.193-6.196-4.193-10.204 0-2.004.369-3.876 1.108-5.616a14.344 14.344 0 0 1 3.085-4.588 14.361 14.361 0 0 1 4.587-3.085c1.741-.738 3.613-1.107 5.617-1.107s3.876.369 5.616 1.107a14.376 14.376 0 0 1 7.673 7.673c.738 1.74 1.107 3.612 1.107 5.616Zm-25.629 92.707c0-15.187.949-30.322 2.848-45.404.211-1.477.87-2.768 1.977-3.876 1.108-1.107 2.558-1.661 4.351-1.661 1.582 0 2.9.606 3.955 1.819 1.055 1.213 1.582 2.611 1.582 4.193 0 .632-.132 2.531-.395 5.695-.264 3.164-.58 6.935-.95 11.312a461.026 461.026 0 0 0-.949 13.921c-.263 4.905-.395 9.413-.395 13.527 0 5.59.553 10.098 1.661 13.526 1.107 3.428 2.531 6.091 4.271 7.989 1.741 1.899 3.586 3.164 5.537 3.797 1.952.633 3.824.949 5.617.949 2.953 0 6.011-1.054 9.175-3.164 3.164-2.109 6.408-5.062 9.73-8.859 3.322-3.797 6.671-8.358 10.046-13.685 3.375-5.326 6.697-11.258 9.967-17.797.527-1.055 1.265-1.872 2.214-2.453.95-.58 2.004-.87 3.164-.87 1.688 0 3.085.633 4.193 1.899 1.107 1.265 1.661 2.636 1.661 4.113 0 1.055-.211 1.951-.633 2.69a554.756 554.756 0 0 1-4.746 8.859c-1.898 3.48-4.06 7.066-6.486 10.758a148.765 148.765 0 0 1-7.989 10.995c-2.901 3.638-5.986 6.908-9.255 9.808-3.27 2.901-6.698 5.247-10.284 7.04-3.586 1.793-7.224 2.69-10.916 2.69-4.746 0-8.912-1.002-12.498-3.006-3.586-2.004-6.618-4.693-9.096-8.068-2.479-3.375-4.325-7.357-5.537-11.945-1.213-4.588-1.82-9.518-1.82-14.792Zm16.77-92.707c0-1.476-.554-2.768-1.661-3.876-1.108-1.107-2.4-1.661-3.876-1.661-1.477 0-2.743.554-3.797 1.661-1.055 1.108-1.582 2.4-1.582 3.876 0 1.477.527 2.743 1.582 3.797 1.054 1.055 2.32 1.582 3.797 1.582 1.476 0 2.768-.527 3.876-1.582 1.107-1.054 1.661-2.32 1.661-3.797Z" style="fill-rule:nonzero;"/><path d="M1191.83 344.457a350.04 350.04 0 0 1 5.854-11.469 313.846 313.846 0 0 1 7.119-12.656 299.252 299.252 0 0 1 7.989-12.736 159.97 159.97 0 0 1 8.781-12.023c3.058-3.692 6.143-6.355 9.255-7.99 3.111-1.634 6.038-2.452 8.78-2.452 5.484 0 9.545 2.004 12.181 6.012 2.637 4.008 3.956 8.965 3.956 14.871 0 1.371-.08 3.032-.238 4.984a654.993 654.993 0 0 0-.474 6.249c-.159 2.214-.317 4.456-.475 6.723a92.456 92.456 0 0 0-.237 6.407c0 2.532.132 4.957.395 7.278.264 2.32.765 4.35 1.503 6.091.738 1.74 1.793 3.111 3.164 4.113 1.371 1.002 3.164 1.503 5.379 1.503 4.008 0 7.91-1.556 11.707-4.667 3.797-3.112 7.304-6.803 10.521-11.074 3.216-4.272 6.011-8.622 8.384-13.052s4.14-8.016 5.3-10.758c.528-1.16 1.292-2.057 2.294-2.689a5.961 5.961 0 0 1 3.243-.95c1.793 0 3.244.66 4.351 1.978 1.107 1.318 1.661 2.716 1.661 4.192a5.57 5.57 0 0 1-.475 2.215c-.421.844-1.265 2.584-2.531 5.221-1.265 2.637-2.927 5.669-4.983 9.096-2.057 3.428-4.456 7.067-7.198 10.917a72.932 72.932 0 0 1-9.097 10.52c-3.322 3.164-6.908 5.801-10.758 7.91-3.85 2.11-7.884 3.164-12.102 3.164-4.747 0-8.596-.923-11.549-2.768-2.953-1.846-5.274-4.272-6.961-7.278-1.688-3.006-2.822-6.328-3.402-9.966a69.749 69.749 0 0 1-.87-10.996c0-1.582.079-3.375.238-5.378.158-2.004 1.107-10.758 1.265-12.973.158-2.215.238-4.324.238-6.328 0-3.375-.528-5.669-1.583-6.882-1.054-1.213-2.003-1.819-2.847-1.819-1.688 0-3.612.975-5.775 2.926-2.162 1.951-4.429 4.509-6.802 7.673-2.373 3.164-4.799 6.724-7.278 10.679a255.69 255.69 0 0 0-6.961 11.786 514.186 514.186 0 0 0-6.011 11.153c-1.846 3.534-3.296 6.46-4.351 8.781-2.109 4.429-4.219 7.409-6.328 8.938-2.109 1.529-4.272 2.294-6.486 2.294-3.059 0-5.511-.923-7.357-2.769-1.846-1.845-2.768-4.456-2.768-7.831 0-.738.105-2.188.316-4.35.211-2.162.475-4.746.791-7.752.316-3.006.633-6.249.949-9.73.317-3.48.633-6.934.949-10.362.317-3.428.581-6.618.792-9.571.21-2.953.316-5.432.316-7.436 0-2.636-.106-5.168-.316-7.594-.211-2.425-.633-3.902-1.266-4.429-.949.316-2.637 2.294-5.063 5.932-2.425 3.639-5.537 10.046-9.334 19.222-.527 1.16-1.318 2.057-2.373 2.69-1.054.632-2.162.949-3.322.949-1.793 0-3.217-.607-4.271-1.82-1.055-1.212-1.582-2.61-1.582-4.192 0-.738.158-1.529.474-2.373 4.746-11.285 9.202-19.591 13.368-24.917 4.166-5.326 8.306-7.989 12.419-7.989 2.426 0 4.483.606 6.17 1.819 1.688 1.213 3.032 2.821 4.034 4.825 1.002 2.004 1.741 4.219 2.215 6.645.475 2.426.712 4.904.712 7.435 0 1.899-.132 4.852-.395 8.86a500.196 500.196 0 0 1-1.029 12.893c-.422 4.588-.817 9.15-1.186 13.685a532.516 532.516 0 0 1-1.029 11.39Z" style="fill-rule:nonzero;"/><path d="M1423.12 314.557c-.421.844-1.292 2.61-2.61 5.3-1.318 2.689-3.006 5.774-5.062 9.255-2.057 3.48-4.456 7.119-7.199 10.916a72.254 72.254 0 0 1-9.175 10.441c-3.375 3.164-7.014 5.775-10.916 7.831-3.903 2.057-8.016 3.085-12.34 3.085-6.117 0-11.259-1.951-15.425-5.853-4.166-3.903-7.198-8.807-9.097-14.713-3.586 6.012-7.857 10.784-12.814 14.317-4.957 3.533-9.914 5.3-14.871 5.3-3.903 0-7.436-.712-10.6-2.136-3.164-1.424-5.853-3.427-8.068-6.011s-3.929-5.617-5.142-9.097c-1.213-3.481-1.819-7.277-1.819-11.391 0-8.226 1.397-15.477 4.192-21.753 2.795-6.275 6.355-11.522 10.679-15.741 4.324-4.219 9.097-7.383 14.317-9.492 5.221-2.109 10.257-3.164 15.109-3.164 3.269 0 6.275.448 9.017 1.345 2.742.896 5.089 1.872 7.04 2.926 1.951 1.055 3.454 2.031 4.509 2.927 1.055.897 1.635 1.398 1.74 1.503 1.16 1.371 1.741 2.795 1.741 4.272 0 1.582-.581 2.979-1.741 4.192-1.16 1.213-2.531 1.819-4.113 1.819-1.687 0-3.111-.58-4.271-1.74-.211-.211-.686-.606-1.424-1.187-.739-.58-1.741-1.186-3.006-1.819-1.266-.633-2.769-1.186-4.509-1.661-1.74-.475-3.718-.712-5.933-.712-3.269 0-6.75.738-10.441 2.215-3.691 1.476-7.066 3.77-10.125 6.882-3.059 3.111-5.616 7.013-7.673 11.707-2.056 4.693-3.085 10.257-3.085 16.69 0 2.004.211 4.034.633 6.091.422 2.057 1.16 3.929 2.215 5.616 1.055 1.688 2.478 3.059 4.271 4.114 1.793 1.054 4.008 1.582 6.645 1.582 1.898 0 4.087-.633 6.565-1.899 2.479-1.265 4.852-3.217 7.119-5.853 2.268-2.637 4.325-5.959 6.17-9.967 1.846-4.008 3.138-8.754 3.876-14.238.211-1.477.897-2.716 2.057-3.718 1.16-1.002 2.531-1.503 4.113-1.503 1.477 0 2.769.58 3.876 1.74 1.108 1.16 1.714 2.479 1.82 3.955.105 2.004.316 4.825.632 8.464a51.929 51.929 0 0 0 2.136 10.837c1.108 3.586 2.769 6.697 4.984 9.334 2.214 2.637 5.273 3.955 9.175 3.955 2.532 0 5.036-.686 7.515-2.057 2.478-1.371 4.904-3.19 7.277-5.458 2.373-2.267 4.641-4.851 6.803-7.752a111.64 111.64 0 0 0 5.933-8.78 119.435 119.435 0 0 0 4.746-8.543 377.971 377.971 0 0 0 3.48-7.119c.528-1.16 1.292-2.057 2.294-2.689a5.961 5.961 0 0 1 3.243-.95c1.793 0 3.244.66 4.351 1.978 1.107 1.318 1.661 2.716 1.661 4.192a5.57 5.57 0 0 1-.475 2.215ZM1429.77 173.282c-.211 1.476-.897 2.716-2.057 3.717-1.16 1.002-2.478 1.503-3.955 1.503-1.476 0-2.821-.58-4.034-1.74-1.213-1.16-1.819-2.637-1.819-4.43 0-.421.211-2.425.316-3.164l3.955-32.906c.211-1.582.897-2.847 2.057-3.797 1.16-.949 2.478-1.424 3.955-1.424 1.793 0 3.217.607 4.271 1.82 1.055 1.213 1.582 2.61 1.582 4.192 0 .422-.079 1.345-.237 2.769-.158 1.424-4.034 33.46-4.034 33.46ZM1469.32 300.161a145.131 145.131 0 0 1-2.294 5.695 119.415 119.415 0 0 1-3.085 6.644c-.949 1.793-1.925 3.191-2.927 4.193-1.002 1.002-2.294 1.503-3.876 1.503-1.793 0-3.217-.554-4.271-1.661-1.055-1.108-1.582-2.4-1.582-3.876 0-.528.052-.976.158-1.345.105-.369.369-.976.791-1.819 2.742-5.274 4.772-9.888 6.091-13.843a99.597 99.597 0 0 0 3.243-12.419c-.738-2.426-1.266-4.483-1.582-6.17a28.229 28.229 0 0 1-.475-5.221c0-3.48.738-6.301 2.215-8.464 1.477-2.162 3.533-3.243 6.17-3.243 2.426 0 4.351 1.055 5.774 3.164 1.424 2.11 2.136 4.694 2.136 7.752a27.37 27.37 0 0 1-.475 5.063 331.406 331.406 0 0 1-1.265 6.328c2.426 6.012 4.851 11.338 7.277 15.978a614.257 614.257 0 0 1 6.487 12.736c1.898 3.849 3.454 7.462 4.667 10.837 1.212 3.375 1.819 6.75 1.819 10.125 0 4.429-.897 8.648-2.69 12.656-1.793 4.008-4.746 7.383-8.859 10.125a8.084 8.084 0 0 0 1.582.158h1.582c6.012 0 11.549-1.371 16.611-4.113 5.063-2.742 9.624-6.302 13.685-10.679 4.061-4.377 7.673-9.228 10.837-14.555 3.164-5.326 5.906-10.626 8.226-15.899 1.055-2.426 2.532-3.639 4.43-3.639 1.793 0 3.191.633 4.193 1.899 1.001 1.265 1.502 2.636 1.502 4.113 0 .844-.158 1.635-.474 2.373-1.16 2.848-2.663 6.091-4.509 9.73-1.846 3.638-4.06 7.382-6.644 11.232-2.584 3.85-5.564 7.62-8.939 11.312a67.611 67.611 0 0 1-11.311 9.887c-4.166 2.901-8.728 5.221-13.685 6.961-4.957 1.74-10.389 2.611-16.295 2.611-7.066 0-13.632-1.24-19.696-3.718-6.065-2.479-10.995-6.566-14.792-12.261-.633-.949-.949-1.951-.949-3.006 0-1.582.606-2.979 1.819-4.192s2.61-1.82 4.192-1.82c1.688 0 3.112.581 4.272 1.741.105.211.474.553 1.107 1.028a40.954 40.954 0 0 0 2.294 1.582c.897.58 1.951 1.081 3.164 1.503 1.213.422 2.452.633 3.718.633 2.531 0 4.667-.528 6.407-1.582 1.74-1.055 3.138-2.347 4.193-3.876a16.036 16.036 0 0 0 2.294-4.905c.474-1.74.711-3.243.711-4.508 0-2.637-.421-5.274-1.265-7.91a55.627 55.627 0 0 0-3.243-7.911 251.46 251.46 0 0 0-4.272-8.147 89.813 89.813 0 0 1-4.192-8.78ZM1908.65 357.905c.422.738.633 1.635.633 2.689 0 1.582-.554 2.953-1.661 4.113-1.108 1.161-2.558 1.741-4.351 1.741-1.16 0-2.189-.264-3.085-.791-.897-.528-1.608-1.319-2.136-2.373-2.004-3.903-3.77-8.781-5.3-14.634-1.529-5.854-2.847-12.366-3.955-19.538-1.107-7.172-2.004-14.898-2.689-23.177a735.185 735.185 0 0 1-1.661-25.708 5419.028 5419.028 0 0 1-26.657 3.48 7123.869 7123.869 0 0 0-33.777 4.43 700.995 700.995 0 0 1-27.053 3.322c-22.57 24.575-46.327 43.216-71.27 55.925-24.943 12.709-49.966 19.064-75.067 19.064-11.18 0-20.857-1.081-29.031-3.243-8.174-2.163-14.924-4.588-20.25-7.278-5.326-2.689-9.334-5.194-12.023-7.514-2.69-2.321-4.14-3.586-4.351-3.797-1.054-1.055-1.582-2.426-1.582-4.114 0-1.687.58-3.111 1.74-4.271 1.161-1.16 2.532-1.74 4.114-1.74 1.793 0 3.269.633 4.429 1.898.211.211 1.477 1.292 3.797 3.243 2.321 1.951 5.775 4.034 10.363 6.249 4.587 2.215 10.415 4.219 17.481 6.012 7.066 1.793 15.451 2.689 25.154 2.689 13.289 0 25.998-1.792 38.127-5.378 12.129-3.586 23.599-8.253 34.409-14.001 10.811-5.748 20.883-12.314 30.217-19.697 9.334-7.382 17.798-14.871 25.392-22.465a537.863 537.863 0 0 1-22.307 1.424 508.95 508.95 0 0 1-21.832.475c-14.133 0-27.58-.791-40.342-2.373-12.761-1.582-23.994-4.245-33.697-7.989-9.703-3.745-17.429-8.728-23.177-14.951-5.748-6.222-8.622-13.974-8.622-23.255 0-4.219.87-8.438 2.611-12.657 1.74-4.218 3.823-8.042 6.249-11.469 2.425-3.428 4.957-6.223 7.593-8.385 2.637-2.162 4.905-3.243 6.803-3.243 1.477 0 2.848.527 4.113 1.582 1.266 1.054 1.899 2.478 1.899 4.271 0 .949-.211 1.872-.633 2.769a4.964 4.964 0 0 1-1.898 2.135c-.211.211-1.108.95-2.69 2.215-1.582 1.266-3.269 2.98-5.062 5.142-1.793 2.162-3.428 4.746-4.905 7.752-1.476 3.006-2.214 6.249-2.214 9.729 0 6.012 2.083 11.312 6.249 15.9 4.166 4.588 10.23 8.437 18.193 11.549 7.963 3.111 17.745 5.458 29.347 7.04 11.601 1.582 24.837 2.373 39.709 2.373 8.543 0 17.56-.264 27.052-.791 9.493-.528 19.512-1.319 30.059-2.373 5.062-5.59 9.545-10.864 13.447-15.821 3.903-4.957 7.225-9.386 9.967-13.289a1561.656 1561.656 0 0 0 14.238-20.566c4.957-7.278 9.888-14.66 14.792-22.149a2563.188 2563.188 0 0 0 14.397-22.227c4.693-7.33 9.096-14.238 13.21-20.725a1450.67 1450.67 0 0 0 11.074-17.718c3.269-5.327 5.959-9.73 8.068-13.21.633-2.848 1.582-5.458 2.848-7.832 1.266-2.373 3.322-3.559 6.17-3.559 1.582 0 3.111.659 4.588 1.977 1.476 1.319 2.215 2.98 2.215 4.984 0 1.476-.528 3.058-1.582 4.746-1.055 1.687-2.057 3.111-3.006 4.271-.317 2.004-.818 6.276-1.503 12.815-.686 6.539-1.371 14.528-2.057 23.968-.685 9.439-1.265 19.828-1.74 31.166a822.008 822.008 0 0 0-.712 34.409v12.814c0 4.219.105 8.491.316 12.815 15.821-2.004 27.37-3.402 34.647-4.193 7.277-.791 11.127-1.186 11.549-1.186 1.371 0 2.716.554 4.034 1.661 1.318 1.107 1.977 2.558 1.977 4.351 0 1.476-.501 2.768-1.503 3.876-1.001 1.107-2.293 1.766-3.875 1.977-1.899.211-12.288 1.477-15.979 1.899-3.691.421-8.016.922-12.973 1.502-4.957.581-10.757 1.292-17.402 2.136.316 8.649.817 16.954 1.503 24.917.685 7.963 1.529 15.372 2.531 22.228 1.002 6.855 2.189 13.025 3.56 18.509 1.371 5.485 2.953 9.967 4.746 13.448Zm-86.221-81.633a5799.291 5799.291 0 0 1 33.935-4.509c10.177-1.318 19.38-2.505 27.606-3.559a1187.635 1187.635 0 0 1-.316-27.37c0-14.871.263-29.083.791-42.635.527-13.553 1.265-25.339 2.215-35.359-4.219 6.645-8.886 14.001-14.001 22.07a2065.814 2065.814 0 0 1-15.9 24.679 1694.685 1694.685 0 0 1-16.611 24.917 1574.8 1574.8 0 0 1-15.979 23.098 267.325 267.325 0 0 1-7.752 10.441 809.409 809.409 0 0 1-7.91 9.967c2.321-.211 4.615-.474 6.882-.791 2.268-.316 4.614-.633 7.04-.949ZM1976.99 293.674a79.625 79.625 0 0 1-1.582 7.99 125.77 125.77 0 0 1-1.82 6.486 110.96 110.96 0 0 1-1.503 4.509c-.422 1.16-.685 1.793-.791 1.898-1.054 2.426-2.9 3.639-5.537 3.639-1.476 0-2.847-.554-4.113-1.661-1.266-1.108-1.899-2.505-1.899-4.193 0-.633.106-1.107.317-1.424.211-.316.527-.949.949-1.898.422-.949.949-2.531 1.582-4.746.633-2.215 1.424-5.643 2.373-10.283-1.793 0-3.639-.053-5.537-.159-1.898-.105-3.665-.474-5.3-1.107a9.167 9.167 0 0 1-4.034-3.006c-1.055-1.371-1.582-3.269-1.582-5.695 0-1.793.501-4.219 1.503-7.277 1.002-3.059 2.347-6.065 4.034-9.018 1.688-2.953 3.586-5.511 5.695-7.673 2.11-2.162 4.219-3.243 6.329-3.243 2.425 0 4.403.896 5.932 2.689 1.529 1.793 2.716 3.982 3.56 6.566a44.68 44.68 0 0 1 1.819 8.147c.369 2.848.554 5.326.554 7.436 1.793 0 8.701-.158 10.283-.158 6.012 0 10.6 1.318 13.764 3.955 3.164 2.636 4.746 6.961 4.746 12.972a63.67 63.67 0 0 1-.475 7.594c-.316 2.637-1.898 13.711-2.215 16.453a70.46 70.46 0 0 0-.474 8.069c0 3.796.527 6.934 1.582 9.413 1.054 2.478 2.373 4.456 3.955 5.932 1.582 1.477 3.269 2.505 5.062 3.085 1.793.58 3.428.87 4.905.87 4.535 0 8.806-1.476 12.814-4.429 4.008-2.953 7.699-6.513 11.074-10.679a102.93 102.93 0 0 0 9.097-13.21c2.689-4.641 4.931-8.701 6.724-12.182a5.588 5.588 0 0 1 2.214-2.214 6.097 6.097 0 0 1 3.006-.791c1.899 0 3.375.606 4.43 1.819 1.055 1.213 1.582 2.557 1.582 4.034 0 1.055-.211 2.004-.633 2.848a730.286 730.286 0 0 1-8.464 14.634 104.71 104.71 0 0 1-10.995 15.266c-4.113 4.746-8.727 8.754-13.843 12.024-5.115 3.269-10.731 4.904-16.848 4.904-3.797 0-7.383-.712-10.758-2.136a25.031 25.031 0 0 1-8.78-6.17c-2.479-2.689-4.456-6.012-5.933-9.967-1.476-3.955-2.215-8.411-2.215-13.368 0-5.273.528-10.52 1.582-15.741 1.055-5.221 1.582-10.204 1.582-14.95 0-2.004-.448-3.507-1.344-4.509-.897-1.002-2.874-1.503-5.933-1.503h-4.825c-1.74 0-3.613.053-5.616.158Zm-10.6-11.707c0-.738-.026-1.714-.079-2.926a38.627 38.627 0 0 0-.317-3.56c-.158-1.16-.369-2.162-.632-3.006-.264-.844-.554-1.266-.87-1.266-.317 0-.712.396-1.187 1.187a33.75 33.75 0 0 0-1.503 2.848 31.377 31.377 0 0 0-1.424 3.559 44.648 44.648 0 0 0-.949 3.164h6.961Z" style="fill-rule:nonzero;"/><path d="M2186.77 200.334c0 1.688-.58 3.033-1.74 4.035-1.16 1.002-2.584 1.503-4.272 1.503h-80.209v1.74c0 6.433-.474 13.289-1.424 20.566a237.76 237.76 0 0 1-3.876 21.753 315.982 315.982 0 0 1-5.537 21.12c-2.056 6.856-4.166 13.184-6.328 18.985-2.162 5.8-4.298 10.837-6.407 15.108-2.109 4.272-4.008 7.462-5.695 9.571 1.371 4.852 3.006 9.361 4.904 13.527 1.898 4.166 4.034 7.804 6.407 10.916 2.373 3.111 4.931 5.563 7.673 7.356 2.742 1.793 5.695 2.69 8.859 2.69 3.692 0 7.357-1.556 10.996-4.667 3.638-3.112 7.013-6.803 10.125-11.075 3.111-4.271 5.853-8.595 8.226-12.972 2.373-4.377 4.087-7.884 5.142-10.521 1.054-2.531 2.9-3.797 5.537-3.797 1.793 0 3.243.633 4.35 1.899 1.108 1.265 1.662 2.636 1.662 4.113 0 .738-.159 1.477-.475 2.215-.317.738-1.081 2.426-2.294 5.062-1.213 2.637-2.795 5.696-4.746 9.176-1.951 3.481-4.219 7.146-6.803 10.995a67.342 67.342 0 0 1-8.701 10.521c-3.217 3.164-6.671 5.801-10.362 7.91-3.692 2.109-7.594 3.164-11.707 3.164-7.278 0-13.817-2.373-19.618-7.119-5.8-4.746-10.731-11.391-14.792-19.934-4.06-8.543-7.145-18.668-9.254-30.375-2.11-11.707-3.165-24.521-3.165-38.443 0-3.481.053-7.567.159-12.261.105-4.693.316-9.65.633-14.871.316-5.221.791-10.6 1.423-16.137a196.232 196.232 0 0 1 2.532-16.215h-56.795c-1.688 0-3.112-.501-4.272-1.503-1.16-1.002-1.74-2.347-1.74-4.035 0-1.687.58-3.032 1.74-4.034 1.16-1.002 2.584-1.503 4.272-1.503h59.484c1.055-3.797 2.294-7.277 3.718-10.441 1.424-3.164 3.058-5.906 4.904-8.227 1.846-2.32 3.902-4.139 6.17-5.458 2.268-1.318 4.772-1.977 7.515-1.977 2.636 0 4.93.659 6.882 1.977 1.951 1.319 3.612 3.138 4.983 5.458 1.371 2.321 2.452 5.063 3.243 8.227.791 3.164 1.398 6.644 1.819 10.441h80.842c1.688 0 3.112.501 4.272 1.503 1.16 1.002 1.74 2.347 1.74 4.034Zm-119.127 98.561c3.164-6.961 6.038-14.476 8.622-22.544a283.92 283.92 0 0 0 6.645-24.442c1.845-8.227 3.269-16.295 4.271-24.205 1.002-7.911 1.503-15.188 1.503-21.832h-18.668c-1.477 6.539-2.663 14.633-3.56 24.284-.896 9.65-1.344 21.384-1.344 35.2 0 7.699.211 14.159.633 19.38.421 5.221 1.054 9.94 1.898 14.159Zm14.713-118.336c-.949 0-2.32 1.028-4.113 3.085-1.793 2.057-3.586 5.774-5.379 11.153h15.187c-.527-4.429-1.292-7.91-2.294-10.441-1.002-2.531-2.136-3.797-3.401-3.797Zm-12.182 129.727v.158-.158ZM2473.91 206.663c0 1.582-.554 3.005-1.662 4.271-1.107 1.266-2.504 1.898-4.192 1.898-1.582 0-2.953-.527-4.113-1.582-1.16-1.054-1.846-2.478-2.057-4.271-.105-.422-.343-2.426-.712-6.012-.369-3.586-1.424-7.989-3.164-13.21-1.74-5.22-4.403-10.81-7.989-16.769-3.586-5.959-8.517-11.47-14.792-16.532-6.275-5.063-14.212-9.282-23.81-12.657-9.597-3.375-21.252-5.062-34.963-5.062-12.128 0-24.336 1.819-36.624 5.458-12.287 3.638-24.073 8.754-35.358 15.346-11.285 6.591-21.832 14.449-31.641 23.572-9.808 9.123-18.325 19.169-25.549 30.137a150.331 150.331 0 0 0-17.086 35.122c-4.166 12.445-6.249 25.259-6.249 38.443 0 11.918 1.634 22.122 4.904 30.612 3.269 8.49 7.805 15.425 13.605 20.804 5.801 5.379 12.63 9.308 20.488 11.786 7.857 2.479 16.321 3.718 25.391 3.718 15.715 0 30.402-2.716 44.06-8.148 13.658-5.431 26.314-12.761 37.969-21.99 11.654-9.228 22.28-19.986 31.878-32.273a302.604 302.604 0 0 0 25.787-38.839c.843-12.867 2.346-22.702 4.508-29.505 2.163-6.803 5.406-10.204 9.73-10.204 2.426 0 4.456 1.002 6.091 3.006 1.635 2.004 2.452 4.588 2.452 7.752 0 3.48-.897 7.91-2.69 13.289-1.792 5.379-4.535 11.601-8.226 18.668-.316 4.957-.475 10.283-.475 15.978 0 8.332.343 17.455 1.029 27.369.685 9.914 1.766 20.461 3.243 31.641 4.429-2.215 7.884-3.823 10.362-4.825 2.479-1.002 4.298-1.688 5.458-2.057 1.16-.369 1.899-.527 2.215-.474.316.052.58.079.791.079 1.582 0 2.979.553 4.192 1.661 1.213 1.107 1.82 2.557 1.82 4.35 0 1.266-.369 2.4-1.108 3.402-.738 1.002-1.74 1.714-3.006 2.135-.211.106-2.03.818-5.458 2.136-3.427 1.319-7.989 3.402-13.684 6.249.527 5.696.949 11.444 1.265 17.244.317 5.801.475 11.655.475 17.561 0 13.922-1.002 27.211-3.006 39.867-2.004 12.656-5.3 23.783-9.887 33.381-4.588 9.598-10.679 17.218-18.273 22.86-7.594 5.643-16.928 8.464-28.002 8.464-5.484 0-10.547-.949-15.187-2.847-4.641-1.899-8.649-4.536-12.024-7.911s-6.012-7.409-7.91-12.102c-1.898-4.694-2.848-9.835-2.848-15.425 0-7.91 1.345-15.715 4.035-23.414 2.689-7.699 6.275-15.135 10.757-22.307a142.334 142.334 0 0 1 15.425-20.329c5.801-6.381 11.76-12.261 17.877-17.639 6.117-5.379 12.155-10.125 18.114-14.239 5.959-4.113 11.417-7.435 16.374-9.967a672.025 672.025 0 0 1-3.322-31.086c-.844-10.178-1.371-20.066-1.582-29.664-9.176 14.661-19.274 27.581-30.296 38.76-11.021 11.18-22.544 20.567-34.567 28.16-12.024 7.594-24.39 13.316-37.099 17.165-12.709 3.85-25.339 5.775-37.889 5.775-11.391 0-21.727-1.714-31.008-5.142-9.282-3.427-17.244-8.464-23.889-15.108-6.644-6.645-11.76-14.871-15.346-24.68-3.586-9.808-5.379-21.094-5.379-33.855 0-13.5 2.11-26.816 6.329-39.947 4.218-13.13 10.072-25.628 17.56-37.494 7.488-11.865 16.374-22.807 26.657-32.827 10.284-10.019 21.516-18.694 33.698-26.024a173.419 173.419 0 0 1 38.601-17.244c13.553-4.166 27.396-6.249 41.528-6.249 13.606 0 25.418 1.555 35.438 4.667 10.02 3.111 18.536 7.066 25.55 11.865 7.013 4.799 12.709 10.019 17.086 15.662 4.377 5.642 7.831 10.995 10.362 16.058 2.109 4.324 3.771 8.49 4.983 12.498 1.213 4.007 2.11 7.541 2.69 10.599.58 3.059.949 5.537 1.107 7.436.159 1.898.238 2.9.238 3.006Zm-40.026 140.8c-5.273 2.953-10.731 6.46-16.374 10.521a184.18 184.18 0 0 0-16.453 13.368 169.938 169.938 0 0 0-15.108 15.662c-4.746 5.59-8.912 11.391-12.498 17.402-3.586 6.012-6.408 12.208-8.464 18.589-2.057 6.381-3.085 12.788-3.085 19.222 0 4.008.633 7.62 1.898 10.837 1.266 3.217 3.059 5.959 5.379 8.227 2.32 2.267 5.063 4.034 8.227 5.299 3.164 1.266 6.644 1.899 10.441 1.899 14.871 0 26.473-7.884 34.805-23.652 8.332-15.767 12.498-38.786 12.498-69.055 0-4.535-.106-9.15-.317-13.843a362.92 362.92 0 0 0-.949-14.476ZM2608.54 314.557c-.421.844-1.292 2.61-2.61 5.3-1.318 2.689-3.006 5.774-5.062 9.255-2.057 3.48-4.456 7.119-7.199 10.916a72.254 72.254 0 0 1-9.175 10.441c-3.375 3.164-7.014 5.775-10.916 7.831-3.903 2.057-8.016 3.085-12.34 3.085-6.117 0-11.259-1.951-15.425-5.853-4.166-3.903-7.198-8.807-9.097-14.713-3.586 6.012-7.857 10.784-12.814 14.317-4.957 3.533-9.914 5.3-14.871 5.3-3.903 0-7.436-.712-10.6-2.136-3.164-1.424-5.853-3.427-8.068-6.011s-3.929-5.617-5.142-9.097c-1.213-3.481-1.819-7.277-1.819-11.391 0-8.226 1.397-15.477 4.192-21.753 2.795-6.275 6.355-11.522 10.679-15.741 4.324-4.219 9.097-7.383 14.317-9.492 5.221-2.109 10.257-3.164 15.109-3.164 3.269 0 6.275.448 9.017 1.345 2.742.896 5.089 1.872 7.04 2.926 1.951 1.055 3.454 2.031 4.509 2.927 1.055.897 1.635 1.398 1.74 1.503 1.16 1.371 1.741 2.795 1.741 4.272 0 1.582-.581 2.979-1.741 4.192-1.16 1.213-2.531 1.819-4.113 1.819-1.687 0-3.111-.58-4.271-1.74-.211-.211-.686-.606-1.424-1.187-.739-.58-1.741-1.186-3.006-1.819-1.266-.633-2.769-1.186-4.509-1.661-1.74-.475-3.718-.712-5.933-.712-3.269 0-6.75.738-10.441 2.215-3.691 1.476-7.066 3.77-10.125 6.882-3.059 3.111-5.616 7.013-7.673 11.707-2.056 4.693-3.085 10.257-3.085 16.69 0 2.004.211 4.034.633 6.091.422 2.057 1.16 3.929 2.215 5.616 1.055 1.688 2.478 3.059 4.271 4.114 1.793 1.054 4.008 1.582 6.645 1.582 1.898 0 4.087-.633 6.565-1.899 2.479-1.265 4.852-3.217 7.119-5.853 2.268-2.637 4.325-5.959 6.17-9.967 1.846-4.008 3.138-8.754 3.876-14.238.211-1.477.897-2.716 2.057-3.718 1.16-1.002 2.531-1.503 4.113-1.503 1.477 0 2.769.58 3.876 1.74 1.108 1.16 1.714 2.479 1.82 3.955.105 2.004.316 4.825.632 8.464a51.929 51.929 0 0 0 2.136 10.837c1.108 3.586 2.769 6.697 4.984 9.334 2.214 2.637 5.273 3.955 9.175 3.955 2.532 0 5.036-.686 7.515-2.057s4.904-3.19 7.277-5.458c2.373-2.267 4.641-4.851 6.803-7.752a111.64 111.64 0 0 0 5.933-8.78 119.435 119.435 0 0 0 4.746-8.543 377.971 377.971 0 0 0 3.48-7.119c.528-1.16 1.292-2.057 2.294-2.689a5.961 5.961 0 0 1 3.243-.95c1.793 0 3.244.66 4.351 1.978 1.107 1.318 1.661 2.716 1.661 4.192a5.57 5.57 0 0 1-.475 2.215Z" style="fill-rule:nonzero;"/><path d="M2687.64 314.874c-1.16 2.425-2.61 5.299-4.351 8.622a168.978 168.978 0 0 1-5.932 10.362 122.183 122.183 0 0 1-7.436 10.679c-2.742 3.533-5.721 6.697-8.938 9.492-3.217 2.795-6.645 5.062-10.283 6.803-3.639 1.74-7.515 2.61-11.628 2.61-6.328 0-11.76-1.951-16.295-5.854-4.535-3.902-8.385-9.017-11.549-15.345-3.164-6.328-5.722-13.527-7.673-21.595a223.76 223.76 0 0 1-4.509-24.68c-1.054-8.385-1.766-16.532-2.135-24.442-.37-7.91-.554-14.924-.554-21.041 0-8.86.29-18.035.87-27.528a360.858 360.858 0 0 1 2.768-27.843c1.266-9.071 2.875-17.666 4.826-25.787 1.951-8.121 4.271-15.241 6.961-21.358 2.689-6.117 5.774-10.969 9.255-14.554 3.48-3.586 7.435-5.379 11.865-5.379 3.48 0 6.618.817 9.413 2.452s5.141 4.298 7.04 7.989c1.898 3.691 3.375 8.49 4.43 14.397 1.054 5.906 1.582 13.13 1.582 21.673 0 10.547-1.108 21.437-3.323 32.669-2.215 11.233-5.22 22.544-9.017 33.935-3.797 11.39-8.28 22.755-13.448 34.093a497.836 497.836 0 0 1-16.611 33.143c2.637 13.395 6.17 23.915 10.6 31.562 4.429 7.646 9.756 11.469 15.978 11.469 4.219 0 8.28-1.661 12.182-4.983 3.902-3.322 7.488-7.251 10.758-11.786 3.269-4.535 6.143-9.15 8.622-13.843 2.478-4.693 4.403-8.464 5.774-11.311.528-1.055 1.266-1.872 2.215-2.453.949-.58 2.004-.87 3.164-.87 1.793 0 3.243.633 4.351 1.899 1.107 1.265 1.661 2.689 1.661 4.271 0 .633-.211 1.477-.633 2.532Zm-79.26-63.598c0 6.75.158 13.236.475 19.459.316 6.222.738 12.181 1.265 17.877 4.43-8.543 8.649-17.64 12.657-27.29a334.85 334.85 0 0 0 10.599-29.268c3.059-9.861 5.511-19.67 7.357-29.426 1.846-9.755 2.768-19.063 2.768-27.922 0-12.446-1.002-21.358-3.006-26.737-2.003-5.379-4.693-8.068-8.068-8.068-2.215 0-4.35 1.529-6.407 4.588-2.057 3.058-3.982 7.224-5.775 12.498-1.792 5.273-3.427 11.496-4.904 18.668-1.476 7.172-2.716 14.871-3.718 23.097-1.002 8.227-1.793 16.823-2.373 25.788-.58 8.964-.87 17.876-.87 26.736Z" style="fill-rule:nonzero;"/><path d="M2766.9 314.874c-1.16 2.425-2.611 5.299-4.351 8.622a169.501 169.501 0 0 1-5.932 10.362 122.183 122.183 0 0 1-7.436 10.679c-2.742 3.533-5.722 6.697-8.938 9.492-3.217 2.795-6.645 5.062-10.284 6.803-3.638 1.74-7.514 2.61-11.628 2.61-6.328 0-11.759-1.951-16.294-5.854-4.536-3.902-8.385-9.017-11.549-15.345-3.164-6.328-5.722-13.527-7.673-21.595a223.76 223.76 0 0 1-4.509-24.68c-1.055-8.385-1.767-16.532-2.136-24.442-.369-7.91-.553-14.924-.553-21.041 0-8.86.29-18.035.87-27.528a360.858 360.858 0 0 1 2.768-27.843c1.266-9.071 2.874-17.666 4.825-25.787 1.952-8.121 4.272-15.241 6.961-21.358 2.69-6.117 5.775-10.969 9.255-14.554 3.481-3.586 7.436-5.379 11.866-5.379 3.48 0 6.618.817 9.413 2.452s5.141 4.298 7.04 7.989c1.898 3.691 3.375 8.49 4.429 14.397 1.055 5.906 1.582 13.13 1.582 21.673 0 10.547-1.107 21.437-3.322 32.669-2.215 11.233-5.221 22.544-9.017 33.935-3.797 11.39-8.28 22.755-13.448 34.093a498.32 498.32 0 0 1-16.611 33.143c2.637 13.395 6.17 23.915 10.6 31.562 4.429 7.646 9.755 11.469 15.978 11.469 4.219 0 8.279-1.661 12.182-4.983 3.902-3.322 7.488-7.251 10.757-11.786 3.27-4.535 6.144-9.15 8.623-13.843 2.478-4.693 4.403-8.464 5.774-11.311.527-1.055 1.266-1.872 2.215-2.453.949-.58 2.004-.87 3.164-.87 1.793 0 3.243.633 4.35 1.899 1.108 1.265 1.662 2.689 1.662 4.271 0 .633-.211 1.477-.633 2.532Zm-79.26-63.598c0 6.75.158 13.236.475 19.459.316 6.222.738 12.181 1.265 17.877 4.43-8.543 8.649-17.64 12.657-27.29a335.176 335.176 0 0 0 10.599-29.268c3.059-9.861 5.511-19.67 7.357-29.426 1.845-9.755 2.768-19.063 2.768-27.922 0-12.446-1.002-21.358-3.006-26.737-2.004-5.379-4.693-8.068-8.068-8.068-2.215 0-4.351 1.529-6.407 4.588-2.057 3.058-3.982 7.224-5.775 12.498-1.793 5.273-3.427 11.496-4.904 18.668-1.477 7.172-2.716 14.871-3.718 23.097-1.002 8.227-1.793 16.823-2.373 25.788-.58 8.964-.87 17.876-.87 26.736Z" style="fill-rule:nonzero;"/><path d="M2775.13 341.293c2.215 3.059 5.063 5.511 8.543 7.357 3.481 1.846 7.752 2.768 12.815 2.768 5.168 0 9.861-1.239 14.08-3.717 4.219-2.479 8.068-5.722 11.549-9.73 3.48-4.008 6.591-8.49 9.334-13.447a195.543 195.543 0 0 0 7.435-14.871c.528-1.16 1.266-2.03 2.215-2.611.949-.58 2.004-.87 3.164-.87 1.793 0 3.243.633 4.351 1.899 1.107 1.265 1.661 2.636 1.661 4.113 0 .527-.053.976-.158 1.345a6.992 6.992 0 0 1-.475 1.186c-7.277 16.032-15.214 28.108-23.81 36.229-8.595 8.121-18.325 12.287-29.188 12.498-6.961 0-12.973-1.345-18.035-4.034-5.063-2.69-9.229-6.17-12.498-10.442-3.27-4.271-5.696-9.096-7.278-14.475-1.582-5.379-2.373-10.758-2.373-16.137 0-5.379.66-10.336 1.978-14.871s3.217-8.49 5.695-11.865c2.479-3.375 5.432-6.012 8.86-7.911 3.427-1.898 7.198-2.847 11.311-2.847 2.426 0 4.825.501 7.198 1.503 2.373 1.002 4.509 2.426 6.408 4.271 1.898 1.846 3.427 4.087 4.587 6.724 1.161 2.637 1.741 5.642 1.741 9.017 0 4.325-.739 8.385-2.215 12.182a40.984 40.984 0 0 1-6.091 10.6c-2.584 3.269-5.669 6.275-9.255 9.017a67.877 67.877 0 0 1-11.549 7.119Zm-4.746-10.283c3.27-1.371 6.249-3.111 8.939-5.22 2.689-2.11 4.983-4.43 6.882-6.961 1.898-2.532 3.375-5.195 4.429-7.99 1.055-2.795 1.582-5.616 1.582-8.464 0-3.164-.791-5.563-2.373-7.198-1.582-1.635-3.427-2.452-5.537-2.452-2.848 0-5.273.791-7.277 2.373-2.004 1.582-3.639 3.639-4.905 6.17-1.265 2.531-2.188 5.353-2.768 8.464a50.409 50.409 0 0 0-.87 9.255c0 1.898.184 3.902.554 6.012a63.167 63.167 0 0 0 1.344 6.011Z" style="fill-rule:nonzero;"/><path d="M2855.5 293.674a79.625 79.625 0 0 1-1.582 7.99 125.77 125.77 0 0 1-1.82 6.486 110.96 110.96 0 0 1-1.503 4.509c-.422 1.16-.685 1.793-.791 1.898-1.054 2.426-2.9 3.639-5.537 3.639-1.476 0-2.848-.554-4.113-1.661-1.266-1.108-1.899-2.505-1.899-4.193 0-.633.106-1.107.317-1.424.211-.316.527-.949.949-1.898.422-.949.949-2.531 1.582-4.746.633-2.215 1.424-5.643 2.373-10.283-1.793 0-3.639-.053-5.537-.159-1.898-.105-3.665-.474-5.3-1.107a9.167 9.167 0 0 1-4.034-3.006c-1.055-1.371-1.582-3.269-1.582-5.695 0-1.793.501-4.219 1.503-7.277 1.002-3.059 2.347-6.065 4.034-9.018 1.688-2.953 3.586-5.511 5.695-7.673 2.11-2.162 4.219-3.243 6.329-3.243 2.425 0 4.403.896 5.932 2.689 1.529 1.793 2.716 3.982 3.56 6.566.843 2.584 1.45 5.3 1.819 8.147.369 2.848.554 5.326.554 7.436 1.793 0 8.701-.158 10.283-.158 6.012 0 10.6 1.318 13.764 3.955 3.164 2.636 4.746 6.961 4.746 12.972a63.67 63.67 0 0 1-.475 7.594c-.316 2.637-1.898 13.711-2.215 16.453a70.46 70.46 0 0 0-.474 8.069c0 3.796.527 6.934 1.582 9.413 1.054 2.478 2.373 4.456 3.955 5.932 1.582 1.477 3.269 2.505 5.062 3.085 1.793.58 3.428.87 4.905.87 4.535 0 8.806-1.476 12.814-4.429 4.008-2.953 7.699-6.513 11.074-10.679a103.03 103.03 0 0 0 9.097-13.21c2.689-4.641 4.931-8.701 6.724-12.182a5.588 5.588 0 0 1 2.214-2.214 6.097 6.097 0 0 1 3.006-.791c1.899 0 3.375.606 4.43 1.819 1.055 1.213 1.582 2.557 1.582 4.034 0 1.055-.211 2.004-.633 2.848a730.286 730.286 0 0 1-8.464 14.634 104.785 104.785 0 0 1-10.995 15.266c-4.113 4.746-8.727 8.754-13.843 12.024-5.115 3.269-10.731 4.904-16.848 4.904-3.797 0-7.383-.712-10.758-2.136a25.031 25.031 0 0 1-8.78-6.17c-2.479-2.689-4.456-6.012-5.933-9.967-1.476-3.955-2.215-8.411-2.215-13.368 0-5.273.528-10.52 1.582-15.741 1.055-5.221 1.582-10.204 1.582-14.95 0-2.004-.448-3.507-1.344-4.509-.897-1.002-2.874-1.503-5.933-1.503h-4.825c-1.74 0-3.613.053-5.616.158Zm-10.6-11.707c0-.738-.026-1.714-.079-2.926a38.627 38.627 0 0 0-.317-3.56c-.158-1.16-.369-2.162-.632-3.006-.264-.844-.554-1.266-.871-1.266-.316 0-.711.396-1.186 1.187a33.75 33.75 0 0 0-1.503 2.848 31.377 31.377 0 0 0-1.424 3.559 44.648 44.648 0 0 0-.949 3.164h6.961Z" style="fill-rule:nonzero;"/><path d="M2995.98 360.911c3.691-3.692 7.435-7.462 11.232-11.312a222.055 222.055 0 0 0 11.075-12.102 153.102 153.102 0 0 0 10.045-13.21 107.06 107.06 0 0 0 8.306-14.634c.527-1.16 1.266-2.03 2.215-2.611.949-.58 2.004-.87 3.164-.87 1.793 0 3.243.633 4.351 1.899 1.107 1.265 1.661 2.689 1.661 4.271 0 .844-.158 1.635-.475 2.373-3.269 6.856-7.014 13.131-11.232 18.826a211.276 211.276 0 0 1-13.289 16.216 474.12 474.12 0 0 1-14.08 14.871 381.89 381.89 0 0 0-13.606 14.476 189.767 189.767 0 0 0 0 21.911c.422 7.33.633 15.109.633 23.335 0 6.75-.211 13.5-.633 20.25-.422 6.75-1.107 13.21-2.057 19.38-.949 6.17-2.241 11.944-3.876 17.323-1.634 5.379-3.717 10.046-6.249 14.001-2.531 3.955-5.484 7.067-8.859 9.334-3.375 2.268-7.33 3.402-11.865 3.402-7.488 0-13.236-2.584-17.244-7.752-4.008-5.168-6.012-12.393-6.012-21.674 0-5.063.554-10.494 1.661-16.295 1.108-5.801 2.663-11.786 4.667-17.956s4.403-12.419 7.198-18.747a251.16 251.16 0 0 1 9.097-18.51 203.627 203.627 0 0 1 10.441-17.165c3.692-5.432 7.436-10.362 11.233-14.792.211-5.063.448-10.31.712-15.741.263-5.432.553-10.468.87-15.109-2.742 4.852-6.144 8.754-10.204 11.707-4.061 2.953-8.517 4.43-13.368 4.43-8.016 0-14.291-2.689-18.827-8.068-4.535-5.379-6.802-12.762-6.802-22.149 0-6.855.659-13.104 1.977-18.747 1.319-5.642 2.742-10.494 4.272-14.555 1.529-4.06 2.927-7.171 4.192-9.334 1.266-2.162 1.899-3.19 1.899-3.084 1.16-1.793 2.794-2.69 4.904-2.69 1.793 0 3.243.607 4.35 1.819 1.108 1.213 1.662 2.611 1.662 4.193a5.58 5.58 0 0 1-.95 3.164c.106-.106-.395.764-1.503 2.61-1.107 1.846-2.32 4.509-3.638 7.989-1.319 3.481-2.531 7.647-3.639 12.498-1.107 4.852-1.661 10.178-1.661 15.979 0 5.801 1.055 10.336 3.164 13.605 2.109 3.27 5.537 4.905 10.283 4.905 6.012 0 11.444-4.456 16.295-13.368 4.852-8.912 8.965-21.859 12.34-38.839a5.412 5.412 0 0 1 1.898-3.402c1.055-.896 2.321-1.344 3.797-1.344 1.688 0 3.112.58 4.272 1.74 1.16 1.16 1.74 2.584 1.74 4.271 0 .317-.211 2.189-.633 5.617-.422 3.427-.923 7.989-1.503 13.684a1140.44 1140.44 0 0 0-1.819 19.855 705.107 705.107 0 0 0-1.582 24.126Zm-12.656 33.539a201.702 201.702 0 0 0-13.052 21.674c-3.955 7.593-7.357 15.134-10.204 22.623-2.848 7.488-5.063 14.66-6.645 21.515-1.582 6.856-2.373 12.973-2.373 18.352 0 5.484.897 9.782 2.69 12.893 1.793 3.112 4.64 4.667 8.543 4.667 3.48 0 6.565-1.714 9.255-5.141 2.689-3.428 4.957-8.306 6.802-14.634 1.846-6.328 3.243-14.001 4.193-23.019.949-9.017 1.423-19.116 1.423-30.296 0-4.535-.079-9.123-.237-13.763-.158-4.641-.29-9.598-.395-14.871Z" style="fill-rule:nonzero;"/></g></svg>