<svg viewBox="0 0 440 55" xmlns="http://www.w3.org/2000/svg" xml:space="preserve" fill-rule="evenodd" clip-rule="evenodd" stroke-linejoin="round" stroke-miterlimit="2"><path d="M25.181 35.068c-.161.293-.403.44-.725.44-.264 0-.469-.084-.616-.253a.891.891 0 0 1-.219-.604 100.972 100.972 0 0 0 .044-3.252c0-1.245.003-2.571.011-3.977.007-1.406-.011-2.835-.055-4.285a61.042 61.042 0 0 0-.286-4.328 32.635 32.635 0 0 0-.681-4.12 20.848 20.848 0 0 0-1.209-3.659c-.498-1.128-1.135-2.105-1.911-2.933a8.355 8.355 0 0 0-2.769-1.945c-1.069-.468-2.329-.703-3.779-.703-1.421 0-2.717.246-3.889.736-1.172.491-2.179 1.15-3.022 1.978a8.73 8.73 0 0 0-1.955 2.9 9 9 0 0 0-.692 3.505c0 1.069.187 2.054.56 2.955a7.328 7.328 0 0 0 1.527 2.34 7.066 7.066 0 0 0 2.252 1.549 6.766 6.766 0 0 0 2.736.561c.718 0 1.377-.099 1.977-.297a9.138 9.138 0 0 0 1.539-.648c.424-.235.754-.451.988-.648.235-.198.359-.297.374-.297a.807.807 0 0 1 .593-.242c.22 0 .41.077.571.231a.744.744 0 0 1 .242.56c0 .22-.08.41-.242.572-.029.029-.194.172-.494.428s-.714.531-1.241.824a10.58 10.58 0 0 1-1.879.791c-.725.234-1.527.352-2.406.352a8.584 8.584 0 0 1-3.417-.682 8.586 8.586 0 0 1-2.779-1.889A8.978 8.978 0 0 1 2.45 18.16c-.461-1.106-.692-2.303-.692-3.592 0-1.465.282-2.849.846-4.153a10.633 10.633 0 0 1 2.34-3.417A11.066 11.066 0 0 1 8.47 4.691c1.355-.564 2.831-.846 4.428-.846 2.065 0 3.809.37 5.229 1.11a10.284 10.284 0 0 1 3.527 2.966c.93 1.238 1.648 2.666 2.153 4.285a30.363 30.363 0 0 1 1.11 5.065 49.16 49.16 0 0 1 .417 5.306c.044 1.78.066 3.453.066 5.021v.944c0 .337-.003.674-.011 1.011-.007.337-.014.656-.022.956a33.3 33.3 0 0 0-.011.736L40.078 3.999c.132-.278.366-.417.703-.417a.78.78 0 0 1 .604.252.84.84 0 0 1 .231.583c0 .073-.044.34-.132.802a72.1 72.1 0 0 0-.318 1.834c-.125.762-.26 1.645-.407 2.648a86.704 86.704 0 0 0-.406 3.241 97.024 97.024 0 0 0-.319 3.614 53.468 53.468 0 0 0-.132 3.747c0 2.094.11 3.951.33 5.57.22 1.618.579 2.984 1.077 4.098.498 1.113 1.153 1.955 1.966 2.527.813.571 1.813.856 2.999.856 1.07 0 2.088-.23 3.055-.692a10.257 10.257 0 0 0 2.702-1.9 16.802 16.802 0 0 0 2.329-2.835 26.396 26.396 0 0 0 1.945-3.504 37.207 37.207 0 0 0 1.538-3.901c.447-1.347.82-2.688 1.121-4.021.3-1.333.527-2.629.681-3.889.154-1.259.23-2.417.23-3.471 0-1.905-.216-3.659-.648-5.263-.432-1.604-1.124-2.911-2.076-3.922a.743.743 0 0 1-.22-.549.79.79 0 0 1 .253-.594.816.816 0 0 1 .582-.241c.249 0 .447.08.593.241a9.702 9.702 0 0 1 1.44 2.033c.402.754.732 1.575.988 2.461.257.886.447 1.82.572 2.801.124.982.186 2 .186 3.055 0 1.611-.153 3.365-.461 5.262a41.03 41.03 0 0 1-3.571 11.261c-.871 1.787-1.875 3.366-3.01 4.735-1.135 1.37-2.391 2.468-3.768 3.296a8.503 8.503 0 0 1-4.461 1.241c-1.508 0-2.775-.34-3.801-1.021-1.025-.681-1.849-1.663-2.472-2.945-.622-1.281-1.069-2.838-1.34-4.669-.271-1.831-.407-3.896-.407-6.196 0-.952.033-1.934.099-2.944.066-1.011.147-2 .242-2.967a123.317 123.317 0 0 1 .626-5.207l-14.04 26.059ZM67.061 16.809c0 .557-.195 1.029-.583 1.417-.388.389-.86.583-1.417.583a1.925 1.925 0 0 1-1.417-.583 1.928 1.928 0 0 1-.582-1.417 1.987 1.987 0 0 1 1.219-1.846c.242-.102.502-.153.78-.153a1.987 1.987 0 0 1 1.846 1.219c.102.242.154.502.154.78Zm-3.56 12.876c0-2.109.132-4.211.395-6.306a.933.933 0 0 1 .275-.538.816.816 0 0 1 .604-.231c.22 0 .403.084.55.253a.86.86 0 0 1 .219.582c0 .088-.018.351-.054.791l-.132 1.571a59.725 59.725 0 0 0-.132 1.933 34.851 34.851 0 0 0-.055 1.879c0 .777.077 1.403.231 1.879.153.476.351.846.593 1.109.242.264.498.44.769.528.271.088.531.132.78.132.41 0 .835-.147 1.274-.44.44-.293.89-.703 1.352-1.23.461-.528.926-1.161 1.395-1.901s.93-1.564 1.384-2.472a.813.813 0 0 1 .747-.461c.235 0 .429.088.583.263.153.176.23.367.23.572a.735.735 0 0 1-.088.373c-.175.337-.395.747-.659 1.231a21.186 21.186 0 0 1-2.01 3.021c-.403.505-.832.959-1.286 1.362-.454.403-.93.729-1.428.978a3.357 3.357 0 0 1-1.516.374c-.659 0-1.238-.14-1.736-.418a3.925 3.925 0 0 1-1.263-1.121 4.844 4.844 0 0 1-.769-1.658 8.002 8.002 0 0 1-.253-2.055Zm2.329-12.876a.737.737 0 0 0-.231-.538.735.735 0 0 0-.538-.231.7.7 0 0 0-.527.231.754.754 0 0 0-.22.538c0 .205.073.381.22.527.146.147.322.22.527.22a.752.752 0 0 0 .538-.22.7.7 0 0 0 .231-.527Z" fill-rule="nonzero"/><path d="M85.43 27.971c-.161.337-.363.736-.605 1.198-.241.461-.516.941-.824 1.439-.307.498-.651.992-1.032 1.483-.381.491-.795.93-1.242 1.318a6.294 6.294 0 0 1-1.428.945 3.692 3.692 0 0 1-1.615.363c-.879 0-1.633-.271-2.263-.813-.63-.542-1.165-1.253-1.604-2.132-.44-.878-.795-1.878-1.066-2.999a30.91 30.91 0 0 1-.626-3.428 44.028 44.028 0 0 1-.297-3.394 63.896 63.896 0 0 1-.077-2.923c0-1.23.041-2.505.121-3.823.081-1.318.209-2.607.385-3.867.176-1.26.399-2.454.67-3.582.271-1.128.593-2.116.967-2.966.373-.85.802-1.523 1.285-2.021.484-.498 1.033-.748 1.648-.748.484 0 .919.114 1.308.341.388.227.714.597.977 1.11.264.512.469 1.179.616 1.999.146.821.219 1.824.219 3.01a23.49 23.49 0 0 1-.461 4.538 38.337 38.337 0 0 1-1.253 4.713 48.184 48.184 0 0 1-1.867 4.735 69.34 69.34 0 0 1-2.307 4.603c.366 1.861.857 3.322 1.472 4.384.615 1.062 1.355 1.593 2.219 1.593.586 0 1.15-.231 1.692-.692a9.214 9.214 0 0 0 1.494-1.637c.454-.63.853-1.271 1.198-1.923.344-.652.611-1.175.802-1.571a.811.811 0 0 1 .747-.461c.249 0 .45.088.604.263a.879.879 0 0 1 .231.594c0 .088-.03.205-.088.351Zm-11.009-8.833c0 .938.022 1.839.066 2.703.044.864.103 1.692.176 2.483a49.58 49.58 0 0 0 1.758-3.791 46.504 46.504 0 0 0 1.472-4.064c.425-1.37.765-2.732 1.022-4.087a20.91 20.91 0 0 0 .384-3.879c0-1.728-.139-2.966-.417-3.713-.278-.747-.652-1.121-1.121-1.121-.307 0-.604.213-.89.638-.285.424-.553 1.003-.802 1.735a21.826 21.826 0 0 0-.681 2.593 39.812 39.812 0 0 0-.516 3.208 64.255 64.255 0 0 0-.33 3.582 57.903 57.903 0 0 0-.121 3.713Z" fill-rule="nonzero"/><path d="M85.671 32.19c.235-.498.506-1.036.813-1.615.308-.579.638-1.172.989-1.78.352-.608.725-1.212 1.121-1.813.395-.6.805-1.164 1.23-1.691.425-.513.853-.883 1.286-1.11.432-.227.838-.341 1.219-.341.381 0 .714.077 1 .231.286.154.52.363.703.626.183.264.322.572.417.923.096.352.143.733.143 1.143 0 .337-.033.787-.099 1.351a15.233 15.233 0 0 0-.098 1.769c0 .351.018.699.054 1.044.037.344.103.651.198.922.095.271.238.491.429.66.19.168.439.252.747.252a2.14 2.14 0 0 0 1.054-.296 5.001 5.001 0 0 0 1.033-.791c.337-.33.659-.696.967-1.099.308-.403.586-.806.835-1.209.249-.402.469-.791.659-1.164.191-.374.344-.685.462-.934.146-.337.402-.505.769-.505.249 0 .446.088.593.263a.88.88 0 0 1 .22.572.823.823 0 0 1-.066.329c-.059.117-.172.359-.341.725-.168.367-.395.791-.681 1.275-.286.483-.619.989-1 1.516a11.039 11.039 0 0 1-1.263 1.461c-.462.447-.96.813-1.494 1.099a3.527 3.527 0 0 1-1.681.428c-.674 0-1.216-.143-1.626-.428a2.977 2.977 0 0 1-.956-1.088 4.692 4.692 0 0 1-.462-1.472 10.827 10.827 0 0 1-.087-2.428c.022-.3.047-.597.076-.89.03-.293.055-.568.077-.824s.033-.472.033-.648c0-.454-.062-.762-.186-.923-.125-.161-.268-.242-.429-.242-.234 0-.502.136-.802.407a7.56 7.56 0 0 0-.945 1.065c-.329.44-.659.934-.988 1.484a73.35 73.35 0 0 0-.956 1.637 37.186 37.186 0 0 0-.835 1.549c-.249.49-.454.897-.615 1.219-.308.615-.619 1.029-.934 1.242-.315.212-.597.318-.846.318-.454 0-.802-.179-1.044-.538-.242-.359-.363-.795-.363-1.308v-1.384c0-2.768.004-5.409.011-7.921.008-2.512.044-4.849.11-7.009.066-2.161.176-4.116.33-5.867.154-1.75.384-3.245.692-4.482.308-1.238.7-2.194 1.176-2.868.476-.674 1.073-1.011 1.79-1.011.616 0 1.136.169 1.56.506.425.337.769.795 1.033 1.373.264.579.454 1.253.571 2.022.118.769.176 1.578.176 2.428 0 1.728-.157 3.424-.472 5.086a37.25 37.25 0 0 1-1.264 4.867 42.752 42.752 0 0 1-1.845 4.625 78.461 78.461 0 0 1-2.22 4.384v3.845l.022 1.033Zm0-8.108a80.358 80.358 0 0 0 1.681-3.944c.506-1.282.938-2.56 1.297-3.834.359-1.275.641-2.567.846-3.878.205-1.311.307-2.677.307-4.098 0-.235-.011-.608-.033-1.121a9.76 9.76 0 0 0-.197-1.56 4.684 4.684 0 0 0-.506-1.384c-.227-.396-.545-.594-.956-.594-.322 0-.6.216-.835.649-.234.432-.439 1.018-.615 1.757-.176.74-.322 1.601-.439 2.582a60.11 60.11 0 0 0-.286 3.12 98.652 98.652 0 0 0-.165 3.384 194.66 194.66 0 0 0-.077 3.373 240.577 240.577 0 0 0-.022 3.065v2.483Z" fill-rule="nonzero"/><path d="M103.469 31.641a3.42 3.42 0 0 0 1.187 1.021c.483.257 1.076.385 1.78.385a3.79 3.79 0 0 0 1.955-.516 6.46 6.46 0 0 0 1.604-1.352 10.8 10.8 0 0 0 1.297-1.867c.38-.689.725-1.377 1.032-2.066a.79.79 0 0 1 .747-.483c.249 0 .451.088.605.263.153.176.23.367.23.572a.668.668 0 0 1-.088.351c-1.01 2.227-2.113 3.904-3.307 5.032-1.193 1.128-2.545 1.706-4.053 1.736-.967 0-1.802-.187-2.505-.561a5.24 5.24 0 0 1-1.736-1.45 6.116 6.116 0 0 1-1.011-2.01 7.898 7.898 0 0 1-.33-2.241c0-.747.092-1.436.275-2.066a5.22 5.22 0 0 1 .791-1.648 3.798 3.798 0 0 1 1.231-1.098 3.183 3.183 0 0 1 1.571-.396c.337 0 .67.07.999.209.33.139.627.337.89.593.264.256.476.568.638.934.161.366.241.784.241 1.252 0 .601-.102 1.165-.307 1.692a5.67 5.67 0 0 1-.846 1.472 7.19 7.19 0 0 1-1.286 1.253 9.443 9.443 0 0 1-1.604.989Zm-.659-1.429a5.356 5.356 0 0 0 2.197-1.691c.264-.352.469-.722.616-1.11.146-.388.219-.78.219-1.176 0-.439-.11-.772-.329-.999a1.039 1.039 0 0 0-.769-.341c-.396 0-.733.11-1.011.33a2.485 2.485 0 0 0-.681.857 4.43 4.43 0 0 0-.385 1.175c-.08.432-.121.861-.121 1.285 0 .264.026.542.077.835.052.293.114.572.187.835Z" fill-rule="nonzero"/><path d="M117.4 32.102c.22-.439.502-.985.846-1.637a72.994 72.994 0 0 1 2.175-3.834c.359-.586.663-1.033.912-1.34.425-.513.864-.879 1.318-1.099.454-.22.872-.33 1.253-.33.381 0 .707.081.978.242.271.161.494.377.67.648.176.271.307.586.395.945.088.359.132.743.132 1.154 0 .234-.011.542-.033.922-.022.381-.044.791-.066 1.231l-.066 1.362c-.022.469-.04.908-.055 1.319a106.38 106.38 0 0 1 1.593-3.055c.286-.527.561-1.021.824-1.483.264-.461.506-.838.725-1.131.63-.865 1.22-1.443 1.769-1.736.55-.293 1.037-.44 1.461-.44.498 0 .909.092 1.231.275.322.183.575.417.758.703.183.286.311.604.384.956.074.351.11.688.11 1.011 0 .498-.036 1.018-.11 1.56a14.726 14.726 0 0 0-.109 1.933c0 .308.014.616.044.923.029.308.091.579.186.813.096.235.246.425.451.571.205.147.483.22.835.22.381 0 .754-.099 1.12-.296a4.9 4.9 0 0 0 1.055-.78c.337-.323.656-.689.956-1.099a18.12 18.12 0 0 0 1.483-2.406c.19-.374.344-.692.461-.956a.866.866 0 0 1 .308-.373.774.774 0 0 1 .439-.132c.25 0 .451.091.605.274.154.183.23.378.23.583a.788.788 0 0 1-.065.307c-.059.117-.176.363-.352.736-.176.374-.41.799-.703 1.275-.293.476-.634.978-1.022 1.505a11.198 11.198 0 0 1-1.285 1.461 6.779 6.779 0 0 1-1.516 1.099 3.635 3.635 0 0 1-1.714.428c-.645 0-1.168-.113-1.571-.34a2.689 2.689 0 0 1-.967-.912 3.583 3.583 0 0 1-.494-1.319 8.954 8.954 0 0 1-.132-1.56c0-.717.036-1.38.11-1.988a12.7 12.7 0 0 0 .109-1.417c0-.367-.033-.645-.098-.835-.066-.191-.147-.326-.242-.407a.509.509 0 0 0-.275-.132 2.802 2.802 0 0 0-.198-.011c-.351 0-.721.194-1.109.583-.388.388-.788.904-1.198 1.549-.41.644-.831 1.377-1.263 2.197-.432.82-.868 1.655-1.308 2.505-.249.469-.457.857-.626 1.164-.168.308-.329.55-.483.725a1.531 1.531 0 0 1-.451.374c-.146.073-.307.11-.483.11-.381 0-.67-.132-.868-.396-.198-.263-.297-.608-.297-1.032 0-.22.008-.513.022-.879.015-.367.03-.769.044-1.209.015-.439.118-2.281.132-2.713.015-.433.03-.817.044-1.154.015-.337.022-.593.022-.769 0-.381-.066-.656-.198-.824-.131-.168-.285-.253-.461-.253-.161 0-.341.059-.538.176-.198.117-.429.344-.692.681-.206.264-.466.648-.781 1.154a51.093 51.093 0 0 0-.999 1.681c-.352.615-.7 1.245-1.044 1.889a51.973 51.973 0 0 0-.89 1.736c-.307.615-.615 1.037-.923 1.264-.307.227-.608.34-.901.34-.424 0-.739-.128-.944-.384-.206-.257-.308-.597-.308-1.022 0-.044.081-1.864.11-2.56.029-.696.168-3.761.198-4.449.014-.367 0-.703-.044-1.011-.044-.308-.103-.491-.176-.549-.117.029-.348.3-.692.813-.345.512-.78 1.406-1.308 2.68a.822.822 0 0 1-.329.374.886.886 0 0 1-.462.132.748.748 0 0 1-.593-.253.865.865 0 0 1-.154-.912c.659-1.567 1.289-2.721 1.89-3.461.6-.739 1.186-1.109 1.758-1.109.337 0 .619.077.846.23.227.154.406.352.538.594.132.241.227.516.286.824.058.307.088.608.088.901 0 1.303-.033 2.497-.099 3.581a594.932 594.932 0 0 1-.209 3.274Z" fill-rule="nonzero"/><path d="M144.668 16.809c0 .557-.194 1.029-.582 1.417a1.927 1.927 0 0 1-1.418.583 1.927 1.927 0 0 1-1.417-.583 1.928 1.928 0 0 1-.582-1.417 1.97 1.97 0 0 1 .582-1.417 1.987 1.987 0 0 1 1.417-.582 1.98 1.98 0 0 1 1.846 1.219c.103.242.154.502.154.78Zm-3.56 12.876c0-2.109.132-4.211.396-6.306a.927.927 0 0 1 .275-.538.815.815 0 0 1 .604-.231c.22 0 .403.084.549.253.147.168.22.362.22.582 0 .088-.018.351-.055.791l-.132 1.571a66.016 66.016 0 0 0-.132 1.933 35.915 35.915 0 0 0-.055 1.879c0 .777.077 1.403.231 1.879.154.476.352.846.593 1.109.242.264.498.44.769.528.271.088.531.132.78.132.411 0 .835-.147 1.275-.44.439-.293.89-.703 1.351-1.23.462-.528.927-1.161 1.395-1.901.469-.74.931-1.564 1.385-2.472a.811.811 0 0 1 .747-.461c.234 0 .428.088.582.263a.853.853 0 0 1 .231.572c0 .146-.03.271-.088.373a88.01 88.01 0 0 1-.659 1.231c-.264.483-.564.981-.901 1.494a20.667 20.667 0 0 1-1.11 1.527 10.93 10.93 0 0 1-1.285 1.362c-.454.403-.93.729-1.428.978a3.364 3.364 0 0 1-1.517.374c-.659 0-1.237-.14-1.735-.418a3.928 3.928 0 0 1-1.264-1.121 4.882 4.882 0 0 1-.769-1.658 8.046 8.046 0 0 1-.253-2.055Zm2.33-12.876a.737.737 0 0 0-.231-.538.738.738 0 0 0-.539-.231.702.702 0 0 0-.527.231.758.758 0 0 0 0 1.065c.147.147.322.22.527.22a.754.754 0 0 0 .539-.22.7.7 0 0 0 .231-.527Z" fill-rule="nonzero"/><path d="M155.413 32.08a47.755 47.755 0 0 1 1.801-3.351c.352-.593.722-1.183 1.11-1.769a22.51 22.51 0 0 1 1.219-1.669c.425-.513.854-.883 1.286-1.11.432-.227.838-.341 1.219-.341.762 0 1.326.279 1.692.835.366.557.55 1.245.55 2.066 0 .19-.011.421-.033.692-.022.271-.044.56-.066.868l-.066.934c-.022.315-.033.611-.033.89 0 .351.018.688.055 1.01.036.323.106.605.208.846.103.242.249.432.44.571.19.14.439.209.747.209.557 0 1.099-.216 1.626-.648a8.91 8.91 0 0 0 1.461-1.538 14.05 14.05 0 0 0 1.165-1.813c.329-.615.575-1.113.736-1.494a.833.833 0 0 1 .769-.505.75.75 0 0 1 .604.274.893.893 0 0 1 .231.583.772.772 0 0 1-.066.307 57.76 57.76 0 0 0-.352.725c-.175.367-.406.788-.692 1.264-.285.476-.619.981-1 1.516-.38.535-.802 1.022-1.263 1.461-.461.44-.959.806-1.494 1.099a3.45 3.45 0 0 1-1.681.439c-.659 0-1.194-.128-1.604-.384a2.797 2.797 0 0 1-.967-1.011 4.132 4.132 0 0 1-.472-1.384 9.645 9.645 0 0 1-.121-1.527c0-.22.011-.469.033-.748.022-.278.154-1.494.176-1.801.022-.308.033-.601.033-.879 0-.469-.074-.788-.22-.956-.147-.168-.278-.253-.396-.253-.234 0-.501.136-.802.407-.3.271-.615.626-.944 1.065-.33.44-.667.934-1.011 1.484a35.108 35.108 0 0 0-.967 1.637 70.98 70.98 0 0 0-.835 1.549c-.256.49-.458.897-.604 1.219-.293.615-.586 1.029-.879 1.242-.293.212-.593.318-.901.318-.425 0-.765-.128-1.022-.384-.256-.257-.384-.619-.384-1.088 0-.103.014-.304.044-.604.029-.301.066-.659.11-1.077.043-.417.087-.868.131-1.351l.132-1.439c.044-.476.081-.92.11-1.33a12.297 12.297 0 0 0 0-2.087c-.029-.337-.088-.542-.176-.615-.132.044-.366.318-.703.824-.337.505-.769 1.395-1.296 2.669a.818.818 0 0 1-.33.374.88.88 0 0 1-.461.132.747.747 0 0 1-.593-.253.86.86 0 0 1-.22-.582.94.94 0 0 1 .066-.33c.659-1.567 1.278-2.721 1.856-3.461.579-.739 1.154-1.109 1.725-1.109.337 0 .623.084.857.252.235.169.421.392.56.671.14.278.242.586.308.922.066.337.099.682.099 1.033 0 .264-.018.674-.055 1.231a69.356 69.356 0 0 1-.143 1.79 229.61 229.61 0 0 0-.165 1.901 73.37 73.37 0 0 1-.142 1.582Z" fill-rule="nonzero"/><path d="M187.537 27.927c-.059.117-.18.363-.363.736a20.147 20.147 0 0 1-1.703 2.802 10.023 10.023 0 0 1-1.274 1.45 6.986 6.986 0 0 1-1.516 1.088 3.635 3.635 0 0 1-1.714.428c-.85 0-1.564-.271-2.143-.813-.578-.542-.999-1.223-1.263-2.043-.498.835-1.091 1.498-1.78 1.988-.688.491-1.377.736-2.065.736a3.557 3.557 0 0 1-1.472-.296 3.17 3.17 0 0 1-1.121-.835 3.864 3.864 0 0 1-.714-1.264 4.759 4.759 0 0 1-.253-1.582c0-1.142.194-2.149.583-3.021.388-.872.882-1.6 1.483-2.186a6.113 6.113 0 0 1 1.988-1.319c.725-.293 1.425-.439 2.099-.439.454 0 .871.062 1.252.187.381.124.707.26.978.406.271.147.48.282.626.407.147.124.227.194.242.208.161.191.241.389.241.594 0 .219-.08.414-.241.582a.768.768 0 0 1-.572.253.807.807 0 0 1-.593-.242 2.493 2.493 0 0 0-.615-.418 3.514 3.514 0 0 0-.626-.23 3.139 3.139 0 0 0-.824-.099c-.454 0-.938.102-1.45.308a4.105 4.105 0 0 0-1.407.955c-.424.432-.78.974-1.065 1.626-.286.652-.429 1.425-.429 2.318 0 .279.029.561.088.846.059.286.161.546.308.78.146.235.344.425.593.572.249.146.557.219.923.219.263 0 .567-.087.912-.263.344-.176.673-.447.988-.813.315-.366.601-.828.857-1.385.257-.556.436-1.215.539-1.977a.813.813 0 0 1 .285-.516.843.843 0 0 1 .572-.209c.205 0 .384.08.538.242a.869.869 0 0 1 .253.549c.014.278.044.67.088 1.175a7.12 7.12 0 0 0 .296 1.505c.154.499.385.931.692 1.297.308.366.733.549 1.275.549.351 0 .699-.095 1.043-.285a4.941 4.941 0 0 0 1.011-.758c.33-.315.645-.674.945-1.077a16.361 16.361 0 0 0 1.483-2.406c.191-.381.352-.711.484-.989a.833.833 0 0 1 .769-.505.75.75 0 0 1 .604.274.893.893 0 0 1 .231.583.772.772 0 0 1-.066.307ZM188.459 8.306a.813.813 0 0 1-.285.516.795.795 0 0 1-1.11-.033.815.815 0 0 1-.252-.615c0-.059.029-.337.043-.44l.55-4.57a.787.787 0 0 1 .285-.527.847.847 0 0 1 .55-.198c.249 0 .447.084.593.253.146.168.22.362.22.582 0 .059-.011.187-.033.384-.022.198-.561 4.648-.561 4.648ZM193.953 25.928c-.088.234-.194.498-.319.791-.124.293-.267.6-.428.923a2.437 2.437 0 0 1-.407.582.73.73 0 0 1-.538.209c-.249 0-.447-.077-.594-.231a.757.757 0 0 1-.219-.538.67.67 0 0 1 .022-.187c.014-.051.051-.136.11-.253.38-.732.662-1.373.846-1.922.183-.55.333-1.125.45-1.725a8.203 8.203 0 0 1-.22-.857 3.926 3.926 0 0 1-.066-.725c0-.484.103-.876.308-1.176.205-.3.491-.45.857-.45.337 0 .604.146.802.439.198.293.297.652.297 1.077 0 .234-.022.469-.066.703a50.32 50.32 0 0 1-.176.879c.337.835.674 1.575 1.011 2.219.336.645.637 1.234.9 1.769.264.535.48 1.036.649 1.505.168.469.252.937.252 1.406a4.26 4.26 0 0 1-.373 1.758c-.249.557-.659 1.025-1.231 1.406.074.015.147.022.22.022h.22c.835 0 1.604-.19 2.307-.571a7.375 7.375 0 0 0 1.901-1.483 11.965 11.965 0 0 0 1.505-2.022c.439-.739.82-1.476 1.142-2.208.147-.337.352-.505.615-.505.249 0 .444.088.583.263a.904.904 0 0 1 .208.572.822.822 0 0 1-.065.329c-.162.396-.37.846-.627 1.352a14.925 14.925 0 0 1-.923 1.56 13.358 13.358 0 0 1-1.241 1.571c-.469.512-.992.97-1.571 1.373a7.877 7.877 0 0 1-1.901.967 6.807 6.807 0 0 1-2.263.362 7.163 7.163 0 0 1-2.735-.516c-.843-.344-1.528-.912-2.055-1.703a.74.74 0 0 1-.132-.417c0-.22.085-.414.253-.583a.801.801 0 0 1 .582-.252c.235 0 .432.08.594.241a.56.56 0 0 0 .153.143c.088.066.194.139.319.22.124.08.271.15.439.209.169.058.341.088.517.088.351 0 .648-.074.89-.22.241-.147.435-.326.582-.539a2.23 2.23 0 0 0 .319-.681c.065-.241.098-.45.098-.626 0-.366-.058-.732-.175-1.099a7.82 7.82 0 0 0-.451-1.098 35.155 35.155 0 0 0-.593-1.132 12.338 12.338 0 0 1-.582-1.219ZM254.971 33.948a.746.746 0 0 1 .088.373c0 .22-.077.41-.231.572a.797.797 0 0 1-.604.241.825.825 0 0 1-.429-.11.768.768 0 0 1-.296-.329c-.279-.542-.524-1.22-.737-2.033a27.38 27.38 0 0 1-.549-2.713 45.818 45.818 0 0 1-.373-3.219 98.904 98.904 0 0 1-.231-3.571c-1.099.147-2.333.308-3.703.484-1.369.175-2.933.38-4.691.615-1.23.176-2.483.329-3.757.461-3.135 3.413-6.434 6.002-9.899 7.768-3.464 1.765-6.939 2.647-10.426 2.647-1.552 0-2.896-.15-4.032-.45-1.135-.3-2.072-.637-2.812-1.011-.74-.373-1.297-.721-1.67-1.044a29.095 29.095 0 0 1-.604-.527.77.77 0 0 1-.22-.571c0-.235.08-.432.242-.593a.777.777 0 0 1 .571-.242.8.8 0 0 1 .615.263c.029.03.205.18.527.451.323.271.802.56 1.44.868.637.307 1.446.586 2.428.835.981.249 2.146.373 3.493.373 1.846 0 3.611-.249 5.296-.747a25.672 25.672 0 0 0 4.779-1.944 27.877 27.877 0 0 0 4.197-2.736 40.568 40.568 0 0 0 3.526-3.12c-1.04.088-2.073.154-3.098.198a70.712 70.712 0 0 1-3.032.066c-1.963 0-3.831-.11-5.603-.33-1.773-.22-3.333-.59-4.68-1.11-1.348-.52-2.421-1.212-3.219-2.076-.799-.864-1.198-1.941-1.198-3.23 0-.586.121-1.172.363-1.758a8.034 8.034 0 0 1 .868-1.593 5.866 5.866 0 0 1 1.054-1.164c.366-.301.681-.451.945-.451a.87.87 0 0 1 .571.22.73.73 0 0 1 .264.593c0 .132-.029.26-.088.385a.68.68 0 0 1-.264.296c-.029.03-.153.132-.373.308s-.454.414-.703.714c-.249.3-.476.659-.681 1.077a3.023 3.023 0 0 0-.308 1.351c0 .835.289 1.571.868 2.208.579.638 1.421 1.172 2.527 1.604 1.106.432 2.464.758 4.076.978 1.611.22 3.449.33 5.515.33 1.186 0 2.439-.037 3.757-.11a93.839 93.839 0 0 0 4.175-.33 42.15 42.15 0 0 0 3.252-4.043 215.186 215.186 0 0 0 4.032-5.932c.681-1.04 1.348-2.069 1.999-3.088a718.77 718.77 0 0 0 1.835-2.878c.571-.901 1.084-1.721 1.538-2.461.454-.74.828-1.351 1.121-1.835.088-.395.22-.758.395-1.087.176-.33.462-.495.857-.495.22 0 .432.092.638.275a.888.888 0 0 1 .307.692c0 .205-.073.425-.22.659a5.737 5.737 0 0 1-.417.594c-.044.278-.114.871-.209 1.779-.095.909-.19 2.018-.285 3.329a139.942 139.942 0 0 0-.242 4.329 114.141 114.141 0 0 0-.099 4.779v1.78c0 .586.015 1.179.044 1.78a301 301 0 0 1 4.812-.583 57.848 57.848 0 0 1 1.604-.165c.19 0 .377.077.56.231a.751.751 0 0 1 .275.604.78.78 0 0 1-.209.539.848.848 0 0 1-.538.274c-.264.03-1.707.205-2.219.264-.513.059-1.114.128-1.802.209-.689.08-1.494.179-2.417.296.044 1.202.113 2.355.209 3.461.095 1.106.212 2.135.351 3.087.139.952.304 1.809.495 2.571.19.762.41 1.384.659 1.868ZM242.996 22.61c1.728-.235 3.299-.443 4.713-.626l3.834-.495a149.075 149.075 0 0 1-.044-3.801c0-2.065.037-4.039.11-5.922.073-1.882.176-3.519.308-4.911l-1.945 3.066a304.342 304.342 0 0 1-2.208 3.427 236.294 236.294 0 0 1-4.527 6.669c-.351.498-.71.982-1.076 1.45-.367.469-.733.93-1.099 1.385.322-.03.641-.066.956-.11.315-.044.641-.088.978-.132ZM264.463 25.027c-.059.395-.132.765-.22 1.109a16.775 16.775 0 0 1-.461 1.528 1.413 1.413 0 0 1-.11.263c-.147.337-.403.506-.769.506a.849.849 0 0 1-.571-.231.74.74 0 0 1-.264-.582c0-.088.015-.154.044-.198.029-.044.073-.132.132-.264.058-.132.131-.351.219-.659.088-.308.198-.784.33-1.428-.249 0-.505-.008-.769-.022a2.399 2.399 0 0 1-.736-.154 1.273 1.273 0 0 1-.56-.417c-.147-.191-.22-.455-.22-.791 0-.25.069-.586.209-1.011.139-.425.325-.843.56-1.253a5.21 5.21 0 0 1 .791-1.065c.293-.301.586-.451.879-.451.337 0 .611.125.824.374.212.249.377.553.494.912.117.359.202.736.253 1.131.051.396.077.74.077 1.033.249 0 1.208-.022 1.428-.022.835 0 1.472.183 1.912.549.439.366.659.967.659 1.802 0 .337-.022.689-.066 1.055-.044.366-.264 1.904-.308 2.285a9.755 9.755 0 0 0-.066 1.12c0 .528.074.964.22 1.308.147.344.33.619.549.824.22.205.454.348.703.428.249.081.477.121.682.121.63 0 1.223-.205 1.779-.615a8.36 8.36 0 0 0 1.538-1.483c.469-.579.89-1.19 1.264-1.835.373-.644.685-1.208.934-1.692a.775.775 0 0 1 .307-.307.84.84 0 0 1 .418-.11c.264 0 .469.084.615.252a.866.866 0 0 1 .132.956c-.337.601-.729 1.278-1.176 2.033a14.452 14.452 0 0 1-1.527 2.12 8.833 8.833 0 0 1-1.922 1.67 4.262 4.262 0 0 1-2.34.681 3.803 3.803 0 0 1-1.495-.297 3.475 3.475 0 0 1-1.219-.856 4.167 4.167 0 0 1-.824-1.385c-.205-.549-.308-1.168-.308-1.856 0-.733.074-1.462.22-2.187.147-.725.22-1.417.22-2.076 0-.278-.062-.487-.187-.626-.124-.14-.399-.209-.824-.209h-.67c-.242 0-.502.007-.78.022Zm-1.472-1.626c0-.103-.004-.238-.011-.407a5.631 5.631 0 0 0-.044-.494 2.54 2.54 0 0 0-.088-.417c-.037-.118-.077-.176-.121-.176s-.099.055-.165.165a4.476 4.476 0 0 0-.208.395c-.074.154-.14.319-.198.494a5.905 5.905 0 0 0-.132.44h.967Z" fill-rule="nonzero"/><path d="M293.599 12.063a.703.703 0 0 1-.242.56.877.877 0 0 1-.593.209h-11.14v.242c0 .893-.066 1.845-.198 2.856a32.745 32.745 0 0 1-.539 3.021 43.658 43.658 0 0 1-.769 2.934 42.357 42.357 0 0 1-.878 2.636 22.78 22.78 0 0 1-.89 2.099c-.293.593-.557 1.036-.791 1.329.19.674.417 1.3.681 1.879.263.578.56 1.084.89 1.516.329.432.684.773 1.065 1.022.381.249.791.373 1.231.373.512 0 1.022-.216 1.527-.648a8.932 8.932 0 0 0 1.406-1.538c.432-.593.813-1.194 1.143-1.802.329-.608.567-1.095.714-1.461.146-.352.403-.527.769-.527.249 0 .45.088.604.263a.853.853 0 0 1 .231.572.772.772 0 0 1-.066.307c-.044.103-.15.337-.319.703-.168.367-.388.791-.659 1.275-.271.483-.586.992-.945 1.527a9.31 9.31 0 0 1-1.208 1.461 7.02 7.02 0 0 1-1.439 1.099 3.229 3.229 0 0 1-1.626.439c-1.011 0-1.919-.329-2.725-.989-.806-.659-1.49-1.582-2.054-2.768-.564-1.187-.993-2.593-1.286-4.219-.293-1.626-.439-3.406-.439-5.339 0-.484.007-1.051.022-1.703.014-.652.044-1.34.088-2.066.044-.725.109-1.472.197-2.241.088-.769.205-1.52.352-2.252h-7.888a.88.88 0 0 1-.594-.209.702.702 0 0 1-.241-.56c0-.234.08-.421.241-.56a.88.88 0 0 1 .594-.209h8.261c.147-.527.319-1.011.517-1.45.198-.44.425-.821.681-1.143a3.07 3.07 0 0 1 .857-.758 2.041 2.041 0 0 1 1.044-.275c.366 0 .684.092.955.275.271.183.502.436.693.758.19.322.34.703.45 1.143.11.439.194.923.253 1.45h11.228c.234 0 .432.07.593.209a.703.703 0 0 1 .242.56Zm-16.546 13.689a28.75 28.75 0 0 0 1.198-3.131c.359-1.121.666-2.252.923-3.395.256-1.143.454-2.263.593-3.362.139-1.098.209-2.109.209-3.032h-2.593c-.205.908-.37 2.033-.495 3.373-.124 1.34-.186 2.97-.186 4.889 0 1.069.029 1.966.088 2.691.058.725.146 1.381.263 1.967Zm2.044-16.436c-.132 0-.323.143-.572.429-.249.286-.498.802-.747 1.549h2.11c-.074-.615-.18-1.099-.319-1.45-.139-.352-.297-.528-.472-.528Zm-1.692 18.018v.022-.022ZM333.479 12.942c0 .22-.077.417-.231.593a.74.74 0 0 1-.582.264.818.818 0 0 1-.571-.22.912.912 0 0 1-.286-.593 12.512 12.512 0 0 1-.099-.835c-.051-.498-.198-1.11-.439-1.835-.242-.725-.612-1.501-1.11-2.329-.498-.828-1.183-1.593-2.054-2.296-.872-.703-1.974-1.289-3.307-1.758-1.333-.469-2.952-.703-4.856-.703-1.685 0-3.38.253-5.087.758a22.242 22.242 0 0 0-4.911 2.131 24.852 24.852 0 0 0-4.394 3.274 22.93 22.93 0 0 0-3.549 4.186 20.935 20.935 0 0 0-2.373 4.878 16.728 16.728 0 0 0-.868 5.339c0 1.656.227 3.073.681 4.252.454 1.179 1.084 2.142 1.89 2.89a7.397 7.397 0 0 0 2.845 1.636c1.092.345 2.267.517 3.527.517 2.183 0 4.222-.377 6.119-1.132a20.876 20.876 0 0 0 5.274-3.054 26.472 26.472 0 0 0 4.427-4.482 42.063 42.063 0 0 0 3.582-5.395c.117-1.787.326-3.153.626-4.098.3-.944.751-1.417 1.351-1.417.337 0 .619.139.846.418.227.278.341.637.341 1.076 0 .484-.125 1.099-.374 1.846-.249.747-.629 1.611-1.142 2.593a34.889 34.889 0 0 0-.066 2.219c0 1.157.048 2.424.143 3.801a71.05 71.05 0 0 0 .45 4.395 21.157 21.157 0 0 1 1.439-.67c.345-.139.597-.235.758-.286.162-.051.264-.073.308-.066a.737.737 0 0 0 .11.011c.22 0 .414.077.582.231a.778.778 0 0 1 .253.604.772.772 0 0 1-.154.472.82.82 0 0 1-.417.297c-.03.015-.282.114-.758.297-.476.183-1.11.472-1.901.868.073.791.132 1.589.176 2.395.044.805.066 1.618.066 2.439 0 1.933-.14 3.779-.418 5.537-.278 1.758-.736 3.303-1.373 4.636-.637 1.333-1.483 2.391-2.538 3.175-1.055.784-2.351 1.176-3.889 1.176a5.507 5.507 0 0 1-2.109-.396 5.01 5.01 0 0 1-1.67-1.099 4.994 4.994 0 0 1-1.099-1.68 5.657 5.657 0 0 1-.396-2.143c0-1.098.187-2.182.561-3.252a15.397 15.397 0 0 1 1.494-3.098 19.758 19.758 0 0 1 2.142-2.823 31.252 31.252 0 0 1 2.483-2.45 27.365 27.365 0 0 1 2.516-1.978 20.448 20.448 0 0 1 2.274-1.384 93.58 93.58 0 0 1-.461-4.318 67.866 67.866 0 0 1-.22-4.12c-1.274 2.036-2.677 3.831-4.208 5.384-1.531 1.552-3.131 2.856-4.801 3.911-1.67 1.054-3.387 1.849-5.152 2.384-1.765.534-3.52.802-5.263.802-1.582 0-3.017-.238-4.306-.714-1.29-.476-2.395-1.176-3.318-2.099-.923-.923-1.634-2.065-2.132-3.427-.498-1.363-.747-2.93-.747-4.703 0-1.875.293-3.724.879-5.548a22.796 22.796 0 0 1 2.439-5.207 24.91 24.91 0 0 1 3.703-4.56 25.611 25.611 0 0 1 4.68-3.614 24.116 24.116 0 0 1 5.361-2.395 19.51 19.51 0 0 1 5.768-.868c1.889 0 3.53.216 4.922.648 1.391.432 2.574.982 3.548 1.648.974.667 1.765 1.392 2.373 2.175.608.784 1.088 1.528 1.44 2.231.293.6.523 1.179.692 1.736a14.4 14.4 0 0 1 .373 1.472 10.388 10.388 0 0 1 .187 1.45Zm-5.559 19.556a25.588 25.588 0 0 0-4.559 3.317c-.74.674-1.44 1.399-2.099 2.176a17.899 17.899 0 0 0-1.736 2.417c-.498.835-.89 1.695-1.175 2.582a8.645 8.645 0 0 0-.429 2.669c0 .557.088 1.059.264 1.505.176.447.425.828.747 1.143.322.315.703.56 1.143.736.439.176.923.264 1.45.264 2.065 0 3.677-1.095 4.834-3.285 1.157-2.19 1.736-5.387 1.736-9.591 0-.63-.015-1.271-.044-1.923a50.882 50.882 0 0 0-.132-2.01ZM352.178 27.927c-.059.117-.18.363-.363.736a20.147 20.147 0 0 1-1.703 2.802 10.023 10.023 0 0 1-1.274 1.45 6.986 6.986 0 0 1-1.516 1.088 3.635 3.635 0 0 1-1.714.428c-.85 0-1.564-.271-2.142-.813-.579-.542-1-1.223-1.264-2.043-.498.835-1.091 1.498-1.78 1.988-.688.491-1.377.736-2.065.736a3.557 3.557 0 0 1-1.472-.296 3.17 3.17 0 0 1-1.121-.835 3.9 3.9 0 0 1-.714-1.264 4.784 4.784 0 0 1-.253-1.582c0-1.142.194-2.149.583-3.021.388-.872.882-1.6 1.483-2.186a6.113 6.113 0 0 1 1.988-1.319c.725-.293 1.425-.439 2.099-.439.454 0 .871.062 1.252.187.381.124.707.26.978.406.271.147.48.282.626.407.147.124.227.194.242.208.161.191.242.389.242.594a.818.818 0 0 1-.242.582.767.767 0 0 1-.571.253.808.808 0 0 1-.594-.242 2.55 2.55 0 0 0-.615-.418 3.485 3.485 0 0 0-.626-.23 3.139 3.139 0 0 0-.824-.099c-.454 0-.938.102-1.45.308a4.105 4.105 0 0 0-1.407.955c-.424.432-.78.974-1.065 1.626-.286.652-.429 1.425-.429 2.318 0 .279.03.561.088.846.059.286.161.546.308.78.146.235.344.425.593.572.249.146.557.219.923.219.264 0 .568-.087.912-.263.344-.176.674-.447.989-.813.314-.366.6-.828.856-1.385.257-.556.436-1.215.539-1.977a.813.813 0 0 1 .285-.516.845.845 0 0 1 .572-.209c.205 0 .384.08.538.242a.869.869 0 0 1 .253.549c.014.278.044.67.088 1.175.044.506.142 1.007.296 1.505.154.499.385.931.692 1.297.308.366.733.549 1.275.549.351 0 .699-.095 1.044-.285a4.964 4.964 0 0 0 1.01-.758c.33-.315.645-.674.945-1.077a16.361 16.361 0 0 0 1.483-2.406c.191-.381.352-.711.484-.989a.833.833 0 0 1 .769-.505.75.75 0 0 1 .604.274.893.893 0 0 1 .231.583.772.772 0 0 1-.066.307Z" fill-rule="nonzero"/><path d="M363.164 27.971c-.161.337-.362.736-.604 1.198-.242.461-.517.941-.824 1.439-.308.498-.652.992-1.033 1.483-.381.491-.795.93-1.241 1.318a6.3 6.3 0 0 1-1.429.945 3.689 3.689 0 0 1-1.615.363c-.878 0-1.633-.271-2.263-.813-.63-.542-1.164-1.253-1.604-2.132-.439-.878-.794-1.878-1.065-2.999a31.146 31.146 0 0 1-.627-3.428 43.522 43.522 0 0 1-.296-3.394 62.49 62.49 0 0 1-.077-2.923c0-1.23.04-2.505.121-3.823.08-1.318.208-2.607.384-3.867.176-1.26.399-2.454.67-3.582.271-1.128.594-2.116.967-2.966.374-.85.802-1.523 1.286-2.021.483-.498 1.032-.748 1.648-.748.483 0 .919.114 1.307.341.388.227.714.597.978 1.11.263.512.468 1.179.615 1.999.146.821.22 1.824.22 3.01 0 1.465-.154 2.978-.462 4.538a38.33 38.33 0 0 1-1.252 4.713 48.194 48.194 0 0 1-1.868 4.735 69.34 69.34 0 0 1-2.307 4.603c.366 1.861.857 3.322 1.472 4.384.615 1.062 1.355 1.593 2.219 1.593.586 0 1.15-.231 1.692-.692a9.214 9.214 0 0 0 1.494-1.637c.455-.63.854-1.271 1.198-1.923.344-.652.611-1.175.802-1.571a.813.813 0 0 1 .747-.461c.249 0 .45.088.604.263a.879.879 0 0 1 .231.594.999.999 0 0 1-.088.351Zm-11.008-8.833c0 .938.022 1.839.066 2.703.044.864.102 1.692.175 2.483a48.826 48.826 0 0 0 1.758-3.791 46.18 46.18 0 0 0 1.472-4.064 36.93 36.93 0 0 0 1.022-4.087 20.83 20.83 0 0 0 .385-3.879c0-1.728-.139-2.966-.418-3.713-.278-.747-.652-1.121-1.12-1.121-.308 0-.605.213-.89.638-.286.424-.553 1.003-.802 1.735a21.826 21.826 0 0 0-.681 2.593 39.358 39.358 0 0 0-.517 3.208 63.337 63.337 0 0 0-.329 3.582 57.184 57.184 0 0 0-.121 3.713Z" fill-rule="nonzero"/><path d="M374.172 27.971c-.161.337-.362.736-.604 1.198-.242.461-.516.941-.824 1.439a16.83 16.83 0 0 1-1.033 1.483c-.38.491-.794.93-1.241 1.318a6.316 6.316 0 0 1-1.428.945 3.695 3.695 0 0 1-1.615.363c-.879 0-1.634-.271-2.263-.813-.63-.542-1.165-1.253-1.604-2.132-.44-.878-.795-1.878-1.066-2.999a30.91 30.91 0 0 1-.626-3.428 43.053 43.053 0 0 1-.297-3.394 63.896 63.896 0 0 1-.077-2.923c0-1.23.04-2.505.121-3.823.081-1.318.209-2.607.385-3.867.175-1.26.399-2.454.67-3.582.271-1.128.593-2.116.966-2.966.374-.85.802-1.523 1.286-2.021.483-.498 1.033-.748 1.648-.748.483 0 .919.114 1.307.341.388.227.714.597.978 1.11.264.512.469 1.179.615 1.999.147.821.22 1.824.22 3.01a23.49 23.49 0 0 1-.461 4.538 38.517 38.517 0 0 1-1.253 4.713 47.946 47.946 0 0 1-1.868 4.735 68.381 68.381 0 0 1-2.307 4.603c.366 1.861.857 3.322 1.472 4.384.616 1.062 1.355 1.593 2.22 1.593.586 0 1.15-.231 1.692-.692a9.214 9.214 0 0 0 1.494-1.637c.454-.63.853-1.271 1.197-1.923.344-.652.612-1.175.802-1.571a.813.813 0 0 1 .747-.461c.249 0 .451.088.605.263.153.176.23.374.23.594a.999.999 0 0 1-.088.351Zm-11.008-8.833c0 .938.022 1.839.066 2.703.044.864.103 1.692.176 2.483a49.58 49.58 0 0 0 1.758-3.791 46.833 46.833 0 0 0 1.472-4.064c.425-1.37.765-2.732 1.021-4.087a20.83 20.83 0 0 0 .385-3.879c0-1.728-.139-2.966-.417-3.713-.279-.747-.652-1.121-1.121-1.121-.308 0-.604.213-.89.638-.286.424-.553 1.003-.802 1.735a21.826 21.826 0 0 0-.681 2.593 39.812 39.812 0 0 0-.516 3.208 62.404 62.404 0 0 0-.33 3.582 57.184 57.184 0 0 0-.121 3.713Z" fill-rule="nonzero"/><path d="M375.315 31.641c.308.424.703.765 1.186 1.021.484.257 1.077.385 1.78.385.718 0 1.37-.172 1.956-.516a6.478 6.478 0 0 0 1.604-1.352c.483-.556.915-1.179 1.296-1.867.381-.689.725-1.377 1.033-2.066a.79.79 0 0 1 .747-.483c.249 0 .45.088.604.263a.853.853 0 0 1 .231.572.668.668 0 0 1-.088.351c-1.011 2.227-2.113 3.904-3.307 5.032-1.194 1.128-2.545 1.706-4.054 1.736-.967 0-1.802-.187-2.505-.561a5.25 5.25 0 0 1-1.736-1.45 6.095 6.095 0 0 1-1.01-2.01 7.898 7.898 0 0 1-.33-2.241c0-.747.092-1.436.275-2.066a5.22 5.22 0 0 1 .791-1.648 3.795 3.795 0 0 1 1.23-1.098c.476-.264 1-.396 1.571-.396.337 0 .671.07 1 .209a2.87 2.87 0 0 1 1.527 1.527c.161.366.242.784.242 1.252 0 .601-.103 1.165-.308 1.692a5.67 5.67 0 0 1-.846 1.472 7.183 7.183 0 0 1-1.285 1.253 9.482 9.482 0 0 1-1.604.989Zm-.659-1.429c.454-.19.868-.432 1.241-.725.374-.293.692-.615.956-.966a4.47 4.47 0 0 0 .615-1.11c.147-.388.22-.78.22-1.176 0-.439-.11-.772-.33-.999a1.037 1.037 0 0 0-.769-.341c-.395 0-.732.11-1.01.33a2.476 2.476 0 0 0-.682.857 4.466 4.466 0 0 0-.384 1.175 6.965 6.965 0 0 0-.121 1.285c0 .264.026.542.077.835.051.293.114.572.187.835Z" fill-rule="nonzero"/><path d="M386.477 25.027c-.059.395-.132.765-.22 1.109a17.85 17.85 0 0 1-.252.901c-.081.257-.151.465-.209.627a1.413 1.413 0 0 1-.11.263c-.146.337-.403.506-.769.506a.849.849 0 0 1-.571-.231.74.74 0 0 1-.264-.582c0-.088.015-.154.044-.198.029-.044.073-.132.132-.264a5.69 5.69 0 0 0 .22-.659c.087-.308.197-.784.329-1.428-.249 0-.505-.008-.769-.022a2.399 2.399 0 0 1-.736-.154 1.273 1.273 0 0 1-.56-.417c-.147-.191-.22-.455-.22-.791 0-.25.07-.586.209-1.011.139-.425.326-.843.56-1.253a5.21 5.21 0 0 1 .791-1.065c.293-.301.586-.451.879-.451.337 0 .612.125.824.374.212.249.377.553.494.912.117.359.202.736.253 1.131.051.396.077.74.077 1.033.249 0 1.208-.022 1.428-.022.835 0 1.472.183 1.912.549.439.366.659.967.659 1.802 0 .337-.022.689-.066 1.055-.044.366-.264 1.904-.308 2.285a9.755 9.755 0 0 0-.066 1.12c0 .528.074.964.22 1.308.147.344.33.619.549.824.22.205.455.348.704.428.249.081.476.121.681.121.63 0 1.223-.205 1.78-.615a8.422 8.422 0 0 0 1.538-1.483c.468-.579.89-1.19 1.263-1.835.374-.644.685-1.208.934-1.692a.837.837 0 0 1 .725-.417c.264 0 .469.084.615.252a.866.866 0 0 1 .132.956c-.337.601-.729 1.278-1.175 2.033a14.533 14.533 0 0 1-1.528 2.12 8.833 8.833 0 0 1-1.922 1.67 4.262 4.262 0 0 1-2.34.681 3.795 3.795 0 0 1-1.494-.297 3.47 3.47 0 0 1-1.22-.856 4.167 4.167 0 0 1-.824-1.385c-.205-.549-.307-1.168-.307-1.856 0-.733.073-1.462.219-2.187.147-.725.22-1.417.22-2.076 0-.278-.062-.487-.187-.626-.124-.14-.399-.209-.824-.209h-.67c-.242 0-.502.007-.78.022Zm-1.472-1.626c0-.103-.004-.238-.011-.407a5.271 5.271 0 0 0-.044-.494 2.54 2.54 0 0 0-.088-.417c-.037-.118-.077-.176-.121-.176s-.099.055-.165.165a4.476 4.476 0 0 0-.208.395 4.346 4.346 0 0 0-.198.494 5.905 5.905 0 0 0-.132.44h.967Z" fill-rule="nonzero"/><path d="M405.989 34.365c.512-.512 1.032-1.036 1.56-1.571a30.637 30.637 0 0 0 1.538-1.681c.498-.586.963-1.197 1.395-1.834a14.94 14.94 0 0 0 1.154-2.033.794.794 0 0 1 .307-.362.825.825 0 0 1 .44-.121c.249 0 .45.088.604.263a.879.879 0 0 1 .165.923 15.813 15.813 0 0 1-1.56 2.615 29.161 29.161 0 0 1-1.846 2.252 65.561 65.561 0 0 1-1.955 2.066c-.66.666-1.29 1.336-1.89 2.01a26.18 26.18 0 0 0 0 3.043c.058 1.018.088 2.099.088 3.241 0 .938-.03 1.875-.088 2.813a30.123 30.123 0 0 1-.286 2.691 17.37 17.37 0 0 1-.538 2.406c-.227.747-.516 1.396-.868 1.945-.352.549-.762.981-1.23 1.296-.469.315-1.019.473-1.648.473-1.04 0-1.839-.359-2.395-1.077-.557-.718-.835-1.721-.835-3.01 0-.703.076-1.458.23-2.263.154-.806.37-1.637.648-2.494a27.64 27.64 0 0 1 1-2.604c.388-.879.81-1.736 1.264-2.571a28.23 28.23 0 0 1 1.45-2.384 23.286 23.286 0 0 1 1.56-2.054c.029-.703.062-1.432.099-2.187.036-.754.077-1.453.121-2.098-.381.674-.854 1.216-1.418 1.626a3.086 3.086 0 0 1-1.856.615c-1.114 0-1.985-.373-2.615-1.12-.63-.747-.945-1.773-.945-3.076 0-.953.092-1.821.275-2.604.183-.784.381-1.458.593-2.022.212-.564.407-.996.582-1.296.176-.3.264-.443.264-.429a.766.766 0 0 1 .681-.373c.249 0 .451.084.604.253a.836.836 0 0 1 .231.582.774.774 0 0 1-.132.439c.015-.014-.055.107-.208.363-.154.256-.323.626-.506 1.109a13.41 13.41 0 0 0-.505 1.736 9.97 9.97 0 0 0-.231 2.22c0 .805.147 1.435.44 1.889.293.454.769.681 1.428.681.835 0 1.589-.619 2.263-1.856.674-1.238 1.245-3.036 1.714-5.395a.783.783 0 0 1 .791-.659c.234 0 .432.081.593.242a.807.807 0 0 1 .242.593c0 .044-.029.304-.088.78-.059.476-.128 1.11-.209 1.901-.08.791-.165 1.71-.253 2.757a99 99 0 0 0-.219 3.351Zm-1.758 4.658a29.432 29.432 0 0 0-3.23 6.153 22.93 22.93 0 0 0-.923 2.988c-.22.952-.329 1.802-.329 2.549 0 .762.124 1.359.373 1.791.249.432.645.648 1.187.648.483 0 .911-.238 1.285-.714.374-.476.688-1.154.945-2.033.256-.879.45-1.944.582-3.197.132-1.252.198-2.655.198-4.208 0-.629-.011-1.267-.033-1.911-.022-.645-.04-1.333-.055-2.066Z" fill-rule="nonzero"/></svg>