<svg xmlns="http://www.w3.org/2000/svg" version="1.1" xmlns:xlink="http://www.w3.org/1999/xlink" xmlns:svgjs="http://svgjs.com/svgjs" width="100%" height="100%"><svg width="100%" height="100%" viewBox="0 0 24 24" version="1.1" xmlns="http://www.w3.org/2000/svg" xmlns:xlink="http://www.w3.org/1999/xlink" xml:space="preserve" xmlns:serif="http://www.serif.com/" style="fill-rule:evenodd;clip-rule:evenodd;stroke-linejoin:round;stroke-miterlimit:2;"><g id="SvgjsG1001"><path d="M12,5.151c1.77,1.072 3.366,1.553 4.844,1.779l-0,7.53c-0,1.558 -0.402,1.878 -4.844,4.619l0,-13.928Zm8.719,-1.885l0,11.194c0,4.467 -3.103,5.632 -8.719,9.185c-5.616,-3.553 -8.719,-4.718 -8.719,-9.185l-0,-11.194c3.406,0 5.453,-0.13 8.719,-2.911c3.266,2.781 5.313,2.911 8.719,2.911Zm-1.937,1.902c-2.37,-0.12 -4.36,-0.592 -6.782,-2.344c-2.422,1.752 -4.412,2.224 -6.782,2.344l0,9.292c0,2.952 1.638,3.717 6.782,6.897c5.147,-3.184 6.782,-3.945 6.782,-6.897l-0,-9.292Z" style="fill:#fce70d;fill-rule:nonzero;"></path><clipPath id="SvgjsClipPath1000"><path d="M12,5.151c1.77,1.072 3.366,1.553 4.844,1.779l-0,7.53c-0,1.558 -0.402,1.878 -4.844,4.619l0,-13.928Zm8.719,-1.885l0,11.194c0,4.467 -3.103,5.632 -8.719,9.185c-5.616,-3.553 -8.719,-4.718 -8.719,-9.185l-0,-11.194c3.406,0 5.453,-0.13 8.719,-2.911c3.266,2.781 5.313,2.911 8.719,2.911Zm-1.937,1.902c-2.37,-0.12 -4.36,-0.592 -6.782,-2.344c-2.422,1.752 -4.412,2.224 -6.782,2.344l0,9.292c0,2.952 1.638,3.717 6.782,6.897c5.147,-3.184 6.782,-3.945 6.782,-6.897l-0,-9.292Z" clip-rule="nonzero"></path></clipPath><g clip-path="url(#_clip1)"><path d="M12,5.151c1.77,1.072 3.366,1.553 4.844,1.779l-0,7.53c-0,1.558 -0.402,1.878 -4.844,4.619l-0,-13.928Z" style="fill:#fce70d;"></path><path d="M20.719,3.266l0,11.194c0,4.467 -3.103,5.632 -8.719,9.185c-5.616,-3.553 -8.719,-4.718 -8.719,-9.185l-0,-11.194c3.406,0 5.453,-0.13 8.719,-2.911c3.266,2.781 5.313,2.911 8.719,2.911Zm-1.937,1.902c-2.37,-0.12 -4.36,-0.592 -6.782,-2.344c-2.422,1.752 -4.412,2.224 -6.782,2.344l0,9.292c0,2.952 1.638,3.717 6.782,6.897c5.147,-3.184 6.782,-3.945 6.782,-6.897l-0,-9.292Z" style="fill:#575757;"></path></g><g><g><ellipse cx="7.083" cy="10.831" rx="0.587" ry="0.552" style="fill:#4a79ae;"></ellipse><ellipse cx="7.215" cy="11.879" rx="0.587" ry="0.552" style="fill:#4a79ae;"></ellipse><ellipse cx="8.096" cy="11.194" rx="0.587" ry="0.552" style="fill:#4a79ae;"></ellipse></g><g><ellipse cx="8.378" cy="12.442" rx="0.587" ry="0.552" style="fill:#4a79ae;"></ellipse><ellipse cx="8.51" cy="13.489" rx="0.587" ry="0.552" style="fill:#4a79ae;"></ellipse><ellipse cx="9.391" cy="12.805" rx="0.587" ry="0.552" style="fill:#4a79ae;"></ellipse></g><g><ellipse cx="9.101" cy="10.511" rx="0.587" ry="0.552" style="fill:#4a79ae;"></ellipse><ellipse cx="9.233" cy="11.558" rx="0.587" ry="0.552" style="fill:#4a79ae;"></ellipse><ellipse cx="10.113" cy="10.873" rx="0.587" ry="0.552" style="fill:#4a79ae;"></ellipse></g></g></g></svg><style>@media (prefers-color-scheme: light) { :root { filter: none; } }
@media (prefers-color-scheme: dark) { :root { filter: contrast(0.7407407407407407) brightness(2); } }
</style></svg>